<svg width="86" height="85" viewBox="0 0 86 85" fill="none" xmlns="http://www.w3.org/2000/svg">
<path d="M43 5.3125C33.0585 5.43105 23.5579 9.38706 16.5277 16.3355C9.4975 23.284 5.49494 32.6741 5.375 42.5C5.49494 52.3259 9.4975 61.716 16.5277 68.6645C23.5579 75.6129 33.0585 79.569 43 79.6875C52.9415 79.569 62.4421 75.6129 69.4723 68.6645C76.5025 61.716 80.5051 52.3259 80.625 42.5C80.5051 32.6741 76.5025 23.284 69.4723 16.3355C62.4421 9.38706 52.9415 5.43105 43 5.3125ZM64.5 45.1562L45.6875 45.1562L45.6875 63.75L40.3125 63.75L40.3125 45.1562L21.5 45.1562L21.5 39.8437L40.3125 39.8437L40.3125 21.25L45.6875 21.25L45.6875 39.8437L64.5 39.8437L64.5 45.1562Z" fill="#495E93"/>
</svg>
