<svg width="612" height="492" viewBox="0 0 612 492" fill="none" xmlns="http://www.w3.org/2000/svg">
<g clip-path="url(#clip0_869_3950)">
<path d="M426.159 478.88L414.83 478.879L409.441 435.198H426.16L426.159 478.88Z" fill="#FFB6B6"/>
<path d="M425.856 475.181L413.761 470.263L413.415 470.121L406.737 475.181C402.966 475.181 399.351 476.679 396.684 479.344C394.018 482.01 392.52 485.625 392.52 489.394V489.856H429.044V475.181H425.856Z" fill="#2F2E41"/>
<path d="M528.517 464.156L518.378 469.208L494.062 432.516L509.027 425.061L528.517 464.156Z" fill="#FFB6B6"/>
<path d="M529.454 459.556L526.861 460.843L526.594 460.977L513.594 461.98L513.203 462.006L509.482 469.508C507.811 470.34 506.32 471.494 505.095 472.902C503.87 474.311 502.935 475.947 502.343 477.717C501.751 479.487 501.513 481.357 501.644 483.219C501.775 485.08 502.272 486.898 503.106 488.568L503.31 488.977L535.999 472.695L529.454 459.556Z" fill="#2F2E41"/>
<path d="M418.474 244.097L480.939 246.283L481.375 245.65C481.375 245.65 486.703 258.079 486.703 268.732C486.703 272.274 484.239 295.44 485.491 299.823C485.647 300.368 484.575 301.704 484.927 304.243C485.155 305.89 486.414 304.623 486.703 306.906C486.911 308.545 484.695 309.449 484.927 311.345C485.18 313.415 488.228 320.124 488.502 322.427C491.422 346.952 495.311 382.482 495.311 382.482C495.311 382.482 510.928 424.299 514.232 424.978C519.777 426.118 523.521 436.198 520.448 438.294C518.985 439.293 500.073 446.008 500.073 446.008C499.034 446.196 495.783 444.566 497.854 440.711C498.235 440.001 495.961 441.807 495.583 440.958C495.181 440.054 495.97 436.459 495.51 435.457C491.377 426.452 485.031 413.973 479.018 407.565C470.132 398.098 464.505 386.04 462.958 373.151L449.164 296.693L444.437 318.134L440.525 321.998L441.598 331.008L441.413 339.753L431.645 376.151C431.645 376.151 430.18 444.125 432.533 446.284C433.807 447.453 439.215 461.854 428.981 463.152L410.387 461.717C410.387 461.717 407.881 456.44 409.134 454.561C410.387 452.683 410.312 453.196 408.783 450.122C407.255 447.048 407.881 441.839 407.881 441.839C405.446 417.359 404.485 392.756 405.004 368.161C405.936 327.766 411.584 281.359 411.584 280.413C411.632 279.447 411.454 278.482 411.064 277.596V275.047L413.463 266.012L418.474 244.097Z" fill="#2F2E41"/>
<path d="M506.381 251.733C520.005 251.733 531.05 240.692 531.05 227.071C531.05 213.451 520.005 202.409 506.381 202.409C492.756 202.409 481.711 213.451 481.711 227.071C481.711 240.692 492.756 251.733 506.381 251.733Z" fill="#6C63FF"/>
<path d="M503.013 239.907C502.587 239.907 502.167 239.808 501.786 239.617C501.405 239.427 501.074 239.15 500.818 238.809L494.088 229.838C493.872 229.55 493.714 229.222 493.625 228.873C493.535 228.524 493.516 228.161 493.567 227.804C493.618 227.448 493.738 227.105 493.922 226.795C494.106 226.485 494.349 226.214 494.637 225.998C494.925 225.781 495.253 225.624 495.602 225.535C495.951 225.445 496.315 225.426 496.671 225.477C497.028 225.528 497.371 225.648 497.681 225.832C497.991 226.015 498.262 226.258 498.478 226.546L502.882 232.415L514.191 215.457C514.39 215.157 514.647 214.899 514.947 214.698C515.246 214.498 515.582 214.358 515.936 214.287C516.289 214.216 516.653 214.216 517.007 214.285C517.361 214.355 517.697 214.494 517.998 214.694C518.298 214.894 518.555 215.151 518.756 215.451C518.956 215.75 519.096 216.086 519.166 216.44C519.237 216.793 519.237 217.157 519.167 217.511C519.097 217.865 518.957 218.201 518.757 218.501L505.297 238.685C505.053 239.05 504.726 239.351 504.342 239.564C503.958 239.776 503.528 239.894 503.09 239.906C503.064 239.906 503.039 239.907 503.013 239.907Z" fill="white"/>
<path d="M518.58 253.143C518.82 252.135 518.836 251.086 518.627 250.071C518.418 249.055 517.989 248.098 517.37 247.266C516.751 246.434 515.957 245.748 515.044 245.256C514.131 244.765 513.122 244.479 512.086 244.419L499.446 201.365L490.895 211.285L504.499 251.598C504.515 253.343 505.17 255.022 506.341 256.317C507.512 257.612 509.117 258.432 510.853 258.623C512.588 258.813 514.333 258.361 515.758 257.351C517.182 256.341 518.186 254.844 518.58 253.143Z" fill="#FFB8B8"/>
<path d="M509.66 232.139L508.017 226.12L509.9 222.524L509.757 222.107L509.189 220.491L506.241 218.13L507.298 215.12L503.568 204.529L502.653 202.692L481.243 159.715L476.11 149.408L474.92 147.544L471.217 141.738L466.155 133.81C465.35 132.543 464.301 131.449 463.07 130.591C461.838 129.733 460.447 129.128 458.98 128.812C458.505 128.708 458.025 128.634 457.541 128.59L457.195 128.564C456.33 128.516 455.463 128.567 454.61 128.715H454.593C453.09 128.975 451.657 129.544 450.383 130.384C449.381 131.032 448.488 131.835 447.737 132.763C446.008 134.907 445.11 137.601 445.206 140.353L445.366 144.685L445.526 148.627L453.039 162.21L453.527 163.098L453.536 163.124L476.652 204.938L483.623 217.544L484.679 219.461L489.368 222.569L488.116 225.694L488.48 230.558L492.467 233.568L498.249 239.436L498.479 239.915L500.255 239.019L500.424 238.93L500.824 238.815L506.321 237.155L509.66 236.151L509.766 236.116L510.681 235.885L509.66 232.139Z" fill="#495E93"/>
<path d="M604.689 427.588C603.015 425.46 600.741 423.881 598.161 423.057C595.581 422.233 592.813 422.2 590.214 422.963L589.646 423.131L584.549 443.026C583.785 440.061 582.151 433.367 581.121 426.816L581.032 426.274L580.526 426.496C575.197 428.851 570.187 431.869 565.616 435.48C557.517 441.975 550.93 450.155 546.312 459.451C541.694 468.748 539.157 478.938 538.877 489.314L538.868 489.696L538.859 489.935L539.534 489.696L554.018 484.52C560.431 485.085 566.889 484.211 572.92 481.963C578.952 479.714 584.405 476.147 588.882 471.523C594.734 465.353 598.748 457.417 602.629 449.738C603.766 447.5 604.929 445.192 606.119 442.973C607.447 440.559 608.02 437.804 607.765 435.061C607.51 432.319 606.439 429.716 604.689 427.588Z" fill="#9E3C54"/>
<path d="M233.007 97.3341H231.23V28.9385H359.691V30.714H233.007V97.3341Z" fill="#3F3D56"/>
<path d="M379.392 49.3239C393.017 49.3239 404.062 38.2824 404.062 24.662C404.062 11.0415 393.017 0 379.392 0C365.768 0 354.723 11.0415 354.723 24.662C354.723 38.2824 365.768 49.3239 379.392 49.3239Z" fill="#6C63FF"/>
<path d="M376.025 37.4975C375.599 37.4975 375.179 37.3984 374.798 37.2079C374.417 37.0173 374.085 36.7408 373.83 36.4L367.1 27.429C366.883 27.1408 366.726 26.8128 366.637 26.4638C366.547 26.1148 366.527 25.7517 366.578 25.3951C366.629 25.0384 366.75 24.6953 366.934 24.3853C367.117 24.0754 367.36 23.8046 367.649 23.5884C367.937 23.3723 368.265 23.215 368.614 23.1257C368.963 23.0363 369.326 23.0165 369.683 23.0674C370.04 23.1184 370.383 23.2391 370.693 23.4227C371.003 23.6062 371.274 23.849 371.49 24.1372L375.893 30.0058L387.202 13.0479C387.402 12.7478 387.659 12.49 387.958 12.2892C388.258 12.0884 388.594 11.9486 388.948 11.8777C389.301 11.8069 389.665 11.8064 390.019 11.8762C390.373 11.9461 390.709 12.085 391.009 12.285C391.309 12.4849 391.567 12.742 391.767 13.0416C391.968 13.3411 392.108 13.6773 392.178 14.0308C392.249 14.3843 392.249 14.7482 392.179 15.1018C392.108 15.4554 391.969 15.7916 391.769 16.0914L378.308 36.2759C378.065 36.6409 377.737 36.9423 377.353 37.1547C376.969 37.3671 376.54 37.4843 376.101 37.4966C376.076 37.4971 376.05 37.4975 376.025 37.4975Z" fill="white"/>
<path d="M145.979 263.385H144.203V331.78H272.664V330.005H145.979V263.385Z" fill="#3F3D56"/>
<path d="M292.365 356.489C305.99 356.489 317.035 345.447 317.035 331.827C317.035 318.207 305.99 307.165 292.365 307.165C278.74 307.165 267.695 318.207 267.695 331.827C267.695 345.447 278.74 356.489 292.365 356.489Z" fill="#6C63FF"/>
<path d="M288.998 344.662C288.572 344.662 288.151 344.563 287.77 344.372C287.389 344.182 287.058 343.905 286.802 343.565L280.072 334.594C279.856 334.305 279.699 333.977 279.609 333.628C279.52 333.279 279.5 332.916 279.551 332.56C279.602 332.203 279.723 331.86 279.906 331.55C280.09 331.24 280.333 330.969 280.621 330.753C280.909 330.537 281.238 330.38 281.587 330.29C281.936 330.201 282.299 330.181 282.656 330.232C283.012 330.283 283.356 330.404 283.666 330.587C283.976 330.771 284.247 331.014 284.463 331.302L288.866 337.17L300.175 320.212C300.375 319.912 300.632 319.655 300.931 319.454C301.231 319.253 301.567 319.113 301.92 319.042C302.274 318.971 302.638 318.971 302.992 319.041C303.345 319.111 303.682 319.25 303.982 319.45C304.282 319.649 304.54 319.907 304.74 320.206C304.941 320.506 305.08 320.842 305.151 321.195C305.221 321.549 305.222 321.913 305.151 322.266C305.081 322.62 304.942 322.956 304.742 323.256L291.281 343.44C291.038 343.805 290.71 344.107 290.326 344.319C289.942 344.532 289.513 344.649 289.074 344.661C289.048 344.662 289.023 344.662 288.998 344.662Z" fill="white"/>
<path d="M487.593 265.9C487.619 267.77 487.319 269.629 486.705 271.396L486.572 271.369C470.8 274.096 456.731 274.542 450.222 264.864C441.731 254.055 430.05 254.177 417.021 258.923L415.476 257.254L412.848 254.422L415.263 251.687L412.848 246.414L414.863 239.907L417.439 239.436L416.746 233.835L415.663 230.559L418.842 227.07L421.541 218.361L419.597 200.135C416.935 175.153 422.092 149.96 434.356 128.031L441.735 121.409L444.799 118.657L448.911 110.986L453.253 111.492L465.011 112.851L465.41 113.809L468.296 120.769L483.5 137.095L482.816 143.984L482.514 147.02L482.292 149.204L481.244 159.715L476.973 202.656L476.653 204.938L473.216 229.627C478.802 235.024 483.739 245.42 486.11 254.919C486.377 255.975 485.622 257.049 485.817 258.079C486.093 259.535 487.292 260.92 487.425 262.278C487.549 263.482 487.605 264.691 487.593 265.9Z" fill="#495E93"/>
<path d="M457.48 108.237C468.759 108.237 477.901 99.0968 477.901 87.8218C477.901 76.5469 468.759 67.4067 457.48 67.4067C446.202 67.4067 437.059 76.5469 437.059 87.8218C437.059 99.0968 446.202 108.237 457.48 108.237Z" fill="#FFB6B6"/>
<path d="M482.098 82.2523C480.89 78.4855 477.574 75.2983 473.639 74.8818C473.937 72.38 473.543 69.8443 472.5 67.5509C471.456 65.2574 469.803 63.2942 467.721 61.8748C465.638 60.4555 463.206 59.6345 460.69 59.5012C458.173 59.3679 455.668 59.9275 453.447 61.119C452.975 60.5522 452.365 60.1168 451.676 59.8549C450.986 59.593 450.241 59.5134 449.512 59.624C448.054 59.8642 446.68 60.4661 445.515 61.3748C442.622 63.4902 440.356 66.3503 438.96 69.6506C437.564 72.9509 437.089 76.5679 437.586 80.1167C437.577 78.3165 438.375 81.7992 440.662 82.107C442.568 82.4904 444.383 83.2386 446.005 84.3104C447.628 85.3821 449.436 86.1401 451.338 86.545C453.258 86.8256 453.752 94.5171 452.381 99.4708C452.122 100.41 451.99 101.669 452.855 102.117C453.921 102.668 454.998 101.282 456.191 101.147C456.726 101.139 457.243 101.338 457.634 101.704C458.025 102.069 458.258 102.572 458.285 103.106C458.287 103.642 458.16 104.171 457.915 104.648C457.671 105.125 457.316 105.537 456.88 105.849C456.003 106.464 455.033 106.934 454.007 107.24L454.351 107.729C454.652 108.288 455.138 108.724 455.726 108.964C456.314 109.203 456.967 109.231 457.573 109.042C458.938 110.689 473.011 106.116 473.697 103.111C476.644 100.456 479.092 97.2952 480.924 93.7777C482.755 90.2212 483.174 86.1047 482.098 82.2523Z" fill="#2F2E41"/>
<path d="M498.613 144.428C498.328 146.808 496.099 148.583 493.755 149.08C492.563 149.31 491.34 149.331 490.141 149.142C488.969 148.968 487.812 148.71 486.677 148.37C485.274 147.971 483.886 147.521 482.513 147.021C478.589 145.62 474.807 143.852 471.217 141.738C468.502 140.154 465.902 138.38 463.438 136.43C462.159 135.418 460.918 134.361 459.717 133.26L461.217 133.971C459.877 132.168 458.536 130.366 457.195 128.564C455.898 126.824 454.605 125.084 453.314 123.344C453.234 123.238 453.172 123.167 453.145 123.131V123.122C452.55 122.332 451.964 121.542 451.378 120.752C449.611 118.382 447.87 114.901 449.904 112.762C450.338 112.345 450.864 112.037 451.44 111.863C452.015 111.689 452.624 111.653 453.216 111.759C453.854 111.842 454.471 112.04 455.037 112.345C456.59 113.35 457.908 114.68 458.9 116.242C460.285 114.227 462.976 113.481 465.409 113.81C465.542 113.818 465.667 113.836 465.791 113.854C468.322 114.289 469.414 112.922 471.607 114.262C472.629 114.884 473.25 118.08 474.272 118.701C474.849 119.056 476.989 119.589 477.575 119.953C478.73 120.663 478.436 123.317 479.6 124.028C480.461 124.551 482.77 123.14 483.631 123.664C484.537 124.223 485.798 127.916 486.704 128.466C488.507 129.576 489.954 127.552 491.757 128.653C494.075 130.082 496.543 131.671 497.52 134.21C498.382 136.447 497.272 139.51 495.132 140.149C496.154 140.271 497.089 140.786 497.738 141.585C498.388 142.383 498.701 143.403 498.613 144.428Z" fill="#495E93"/>
<path opacity="0.2" d="M482.511 147.02L482.289 149.204C479.772 148.962 477.296 148.404 474.918 147.544C471.789 146.494 469.074 144.476 467.166 141.782C465.958 139.971 464.697 138.169 463.436 136.429C461.34 133.517 459.262 130.801 457.54 128.59C455.435 125.918 453.854 123.983 453.313 123.344C453.233 123.237 453.17 123.166 453.144 123.131L453.117 123.104L453.144 123.122C463.695 136.472 473.662 144.171 482.813 143.984C482.813 143.984 483.888 147.517 482.511 147.02Z" fill="black"/>
<path d="M385.953 40.1089C385.693 41.1126 385.656 42.161 385.846 43.1803C386.035 44.1996 386.445 45.1651 387.048 46.0086C387.651 46.8522 388.432 47.5534 389.335 48.0628C390.238 48.5722 391.242 48.8774 392.276 48.9569L404.081 92.248L412.823 82.4946L400.001 41.9268C400.019 40.1814 399.397 38.4899 398.251 37.1727C397.105 35.8555 395.516 35.0043 393.785 34.7802C392.053 34.5561 390.299 34.9748 388.856 35.9569C387.412 36.939 386.38 38.4164 385.953 40.1089Z" fill="#FFB8B8"/>
<path d="M455.258 150.811L455.178 146.869L447.736 132.763L447.461 132.248L447.443 132.221L441.733 121.408L414.179 69.1851L411.22 68.0985L411.368 63.8564L411.22 59.2209L407.665 56.8382L406.149 53.9653L404 54.5779H403.991L403.929 54.5956L394.534 57.2323H394.525L392.571 58.3331L390.795 63.6597L390.406 66.1814L390.795 70.7617L395.235 71.6495L393.764 76.3461L398.228 89.8574C403.814 113.472 411.442 133.855 424.611 145.493L425.695 147.269L434.264 161.287C435.434 163.204 437.145 164.732 439.182 165.679C441.219 166.625 443.491 166.947 445.711 166.604H445.72C447.227 166.37 448.672 165.833 449.965 165.024C451.158 164.288 452.2 163.334 453.037 162.21C454.568 160.178 455.377 157.695 455.337 155.152L455.258 150.811Z" fill="#495E93"/>
<path d="M610.943 491.727L369.62 492C369.339 492 369.071 491.889 368.872 491.691C368.674 491.492 368.562 491.224 368.562 490.943C368.562 490.663 368.674 490.394 368.872 490.196C369.071 489.997 369.339 489.886 369.62 489.886L610.943 489.613C611.224 489.613 611.493 489.725 611.691 489.923C611.889 490.121 612.001 490.39 612.001 490.67C612.001 490.951 611.889 491.22 611.691 491.418C611.493 491.616 611.224 491.727 610.943 491.727Z" fill="#E3E3E3"/>
<path d="M74.2655 136.456C74.2507 123.111 79.3507 110.268 88.517 100.567L57.0598 57.2836C55.7649 55.5004 54.1008 54.0171 52.1809 52.9347C50.2609 51.8524 48.1302 51.1963 45.9338 51.0112C43.7374 50.8261 41.5269 51.1164 39.4528 51.8623C37.3787 52.6081 35.4897 53.7921 33.9145 55.3334C23.1386 65.8347 14.5837 78.3937 8.75778 92.2647C2.93188 106.136 -0.0461716 121.036 0.000541137 136.08C0.000628878 141.761 0.424295 147.434 1.268 153.052C1.59899 155.273 2.41065 157.395 3.64641 159.271C4.88216 161.146 6.51226 162.729 8.42301 163.91C10.3122 165.079 12.4337 165.822 14.6396 166.087C16.8455 166.352 19.0826 166.133 21.195 165.444L75.5121 147.801C74.6855 144.076 74.2675 140.272 74.2655 136.456Z" fill="#F2F2F2"/>
<path d="M77.1552 153.606L20.6852 171.949C18.5953 172.624 16.675 173.741 15.0545 175.223C13.434 176.705 12.1512 178.518 11.2928 180.539C10.4345 182.56 10.0208 184.742 10.0797 186.937C10.1387 189.132 10.6689 191.289 11.6344 193.261C19.6762 209.571 31.5308 223.704 46.1944 234.463C60.8581 245.222 77.899 252.29 95.8746 255.07C98.0638 255.406 100.3 255.265 102.429 254.656C104.559 254.048 106.532 252.986 108.212 251.543C109.89 250.104 111.237 248.32 112.16 246.312C113.083 244.304 113.561 242.119 113.56 239.909V187.183C105.196 185.014 97.4977 180.814 91.1472 174.957C84.7966 169.1 79.9904 161.766 77.1552 153.606Z" fill="#DAA05C"/>
<path d="M246.976 186.55C246.022 184.287 244.592 182.256 242.783 180.594C240.974 178.933 238.829 177.68 236.492 176.922L174.904 156.917C171.309 165.369 165.555 172.729 158.22 178.259C150.884 183.789 142.223 187.294 133.105 188.425V252.574C133.107 255.036 133.64 257.469 134.67 259.706C135.7 261.943 137.201 263.931 139.07 265.534C140.94 267.137 143.135 268.317 145.503 268.993C147.872 269.669 150.358 269.825 152.793 269.451C172.803 266.357 191.773 258.488 208.096 246.511C224.419 234.534 237.616 218.802 246.568 200.646C247.644 198.464 248.238 196.075 248.308 193.643C248.378 191.21 247.924 188.791 246.976 186.55Z" fill="#3F3D56"/>
<path d="M231.672 39.4107C229.919 37.6948 227.816 36.3767 225.507 35.5464C223.198 34.7161 220.737 34.3929 218.292 34.5989C215.847 34.8049 213.475 35.5352 211.338 36.7402C209.201 37.9452 207.348 39.5964 205.907 41.5815L163.801 99.5178C168.645 104.372 172.485 110.133 175.102 116.47C177.719 122.808 179.061 129.599 179.053 136.456C179.053 137.732 178.991 138.992 178.901 140.245L245.832 161.985C248.198 162.749 250.703 162.988 253.171 162.685C255.639 162.382 258.012 161.545 260.124 160.231C262.235 158.918 264.035 157.161 265.398 155.081C266.76 153.002 267.653 150.65 268.014 148.19C268.953 141.936 269.425 135.62 269.425 129.296C269.477 112.549 266.162 95.9628 259.676 80.5219C253.191 65.081 243.668 51.1005 231.672 39.4107Z" fill="#6C63FF"/>
<path d="M126.657 84.078C135.672 84.0679 144.534 86.3945 152.381 90.8307L178.08 55.469C179.391 53.6681 180.294 51.6045 180.729 49.4206C181.164 47.2367 181.119 44.9844 180.598 42.8194C180.094 40.6956 179.135 38.7064 177.788 36.9892C176.44 35.2719 174.735 33.8675 172.792 32.8728C156.925 24.8058 139.38 20.5885 121.579 20.5626C103.778 20.5367 86.2216 24.7029 70.3312 32.7237C68.3273 33.7345 66.5672 35.1687 65.1728 36.9271C63.7784 38.6854 62.783 40.7258 62.2557 42.9069C61.7356 45.0568 61.6894 47.2941 62.1202 49.4637C62.551 51.6333 63.4486 53.6833 64.7507 55.4716L93.9049 95.5868C103.187 88.1243 114.746 84.0629 126.657 84.078Z" fill="#9E3C54"/>
</g>
<defs>
<clipPath id="clip0_869_3950">
<rect width="612" height="492" fill="white"/>
</clipPath>
</defs>
</svg>
