<svg width="731" height="722" viewBox="0 0 731 722" fill="none" xmlns="http://www.w3.org/2000/svg">
<g clip-path="url(#clip0_710_3932)">
<path d="M665.603 720.623V648.283C665.603 648.283 693.794 699.569 665.603 720.623Z" fill="#F1F1F1"/>
<path d="M667.344 720.611L614.054 671.689C614.054 671.689 670.899 685.605 667.344 720.611Z" fill="#F1F1F1"/>
<path d="M480.35 357.109L262.26 484.546C261.496 484.991 260.588 485.115 259.733 484.891C258.878 484.667 258.147 484.113 257.701 483.351L117.454 243.449C117.009 242.685 116.885 241.777 117.109 240.923C117.333 240.068 117.887 239.337 118.65 238.891L336.741 111.454C337.504 111.009 338.413 110.885 339.267 111.109C340.122 111.333 340.853 111.887 341.299 112.649L481.546 352.551C481.991 353.315 482.115 354.223 481.891 355.077C481.667 355.932 481.113 356.663 480.35 357.109Z" fill="white"/>
<path d="M480.35 357.109L262.26 484.546C261.496 484.991 260.588 485.115 259.733 484.891C258.878 484.667 258.147 484.113 257.701 483.351L117.454 243.449C117.009 242.685 116.885 241.777 117.109 240.923C117.333 240.068 117.887 239.337 118.65 238.891L336.741 111.454C337.504 111.009 338.413 110.885 339.267 111.109C340.122 111.333 340.853 111.887 341.299 112.649L481.546 352.551C481.991 353.315 482.115 354.223 481.891 355.077C481.667 355.932 481.113 356.663 480.35 357.109ZM119.322 240.041C118.865 240.309 118.532 240.748 118.398 241.26C118.263 241.773 118.338 242.318 118.605 242.776L258.852 482.678C259.12 483.136 259.558 483.468 260.071 483.602C260.584 483.737 261.129 483.662 261.587 483.396L479.678 355.959C480.135 355.691 480.468 355.252 480.602 354.74C480.737 354.227 480.662 353.682 480.395 353.224L340.148 113.322C339.88 112.864 339.442 112.532 338.929 112.398C338.416 112.263 337.871 112.338 337.413 112.604L119.322 240.041Z" fill="#3F3D56"/>
<path d="M194.268 253.766L170.258 267.798C169.919 267.996 169.516 268.051 169.136 267.952C168.757 267.852 168.433 267.606 168.234 267.268L154.202 243.258C154.004 242.919 153.949 242.516 154.048 242.136C154.148 241.757 154.394 241.433 154.732 241.234L178.742 227.202C179.081 227.004 179.484 226.949 179.864 227.048C180.243 227.148 180.567 227.394 180.766 227.732L194.798 251.742C194.996 252.081 195.051 252.484 194.952 252.864C194.852 253.243 194.606 253.567 194.268 253.766V253.766ZM155.031 241.745C154.828 241.864 154.68 242.059 154.621 242.286C154.561 242.514 154.594 242.756 154.712 242.959L168.745 266.969C168.864 267.172 169.059 267.32 169.286 267.379C169.514 267.439 169.756 267.406 169.959 267.288L193.969 253.255C194.172 253.136 194.32 252.941 194.38 252.714C194.439 252.486 194.406 252.244 194.288 252.041L180.255 228.031C180.136 227.828 179.941 227.68 179.714 227.621C179.486 227.561 179.244 227.594 179.041 227.712L155.031 241.745Z" fill="#E3E3E3"/>
<path d="M189.336 260.682L165.152 274.817C164.845 274.996 164.479 275.046 164.135 274.956C163.791 274.866 163.497 274.643 163.318 274.336L149.183 250.152C149.004 249.845 148.954 249.479 149.044 249.135C149.134 248.791 149.357 248.497 149.664 248.318L173.848 234.183C174.155 234.004 174.521 233.954 174.865 234.044C175.209 234.134 175.503 234.357 175.682 234.664L189.817 258.848C189.996 259.155 190.046 259.521 189.956 259.865C189.866 260.209 189.643 260.503 189.336 260.682V260.682Z" fill="#6C63FF"/>
<path d="M352.473 191.755L178.637 293.578C177.931 293.991 177.091 294.107 176.3 293.899C175.509 293.691 174.834 293.177 174.421 292.47C174.009 291.763 173.893 290.92 174.101 290.128C174.308 289.336 174.821 288.658 175.527 288.245L349.363 186.422C349.712 186.217 350.099 186.084 350.5 186.029C350.901 185.974 351.308 185.998 351.7 186.101C352.091 186.204 352.459 186.383 352.781 186.628C353.104 186.873 353.375 187.18 353.579 187.53C353.783 187.88 353.916 188.267 353.971 188.669C354.026 189.071 354.002 189.48 353.899 189.872C353.797 190.264 353.618 190.633 353.373 190.956C353.128 191.279 352.823 191.551 352.473 191.755V191.755Z" fill="#CCCCCC"/>
<path d="M321.473 234.727L189.636 311.58C189.287 311.784 188.901 311.917 188.5 311.972C188.099 312.026 187.691 312.002 187.3 311.899C186.509 311.693 185.833 311.181 185.421 310.477C185.009 309.774 184.893 308.935 185.101 308.147C185.308 307.358 185.821 306.684 186.527 306.273L318.364 229.42C318.713 229.216 319.099 229.083 319.5 229.028C319.901 228.974 320.309 228.998 320.7 229.101C321.092 229.203 321.459 229.381 321.781 229.625C322.104 229.869 322.375 230.174 322.579 230.523C322.783 230.871 322.917 231.256 322.971 231.656C323.026 232.056 323.002 232.463 322.899 232.853C322.797 233.243 322.618 233.61 322.373 233.931C322.129 234.253 321.823 234.523 321.473 234.727V234.727Z" fill="#CCCCCC"/>
<path d="M296.736 81.1807L199.739 137.872C198.848 138.393 197.787 138.538 196.79 138.277C195.792 138.015 194.939 137.368 194.419 136.477C193.898 135.587 193.753 134.526 194.014 133.528C194.276 132.53 194.923 131.678 195.814 131.157L292.811 74.4655C293.702 73.9451 294.763 73.7997 295.76 74.0613C296.254 74.1909 296.718 74.4164 297.125 74.7252C297.532 75.0339 297.874 75.4198 298.131 75.8607C298.389 76.3016 298.557 76.789 298.627 77.295C298.696 77.801 298.665 78.3157 298.536 78.8097C298.406 79.3037 298.18 79.7673 297.872 80.1742C297.563 80.581 297.177 80.923 296.736 81.1807Z" fill="#CCCCCC"/>
<path d="M286.047 118.459L213.257 161.002C212.816 161.26 212.329 161.428 211.823 161.498C211.317 161.567 210.802 161.536 210.308 161.407C209.814 161.277 209.351 161.051 208.944 160.743C208.537 160.434 208.195 160.048 207.937 159.607C207.679 159.166 207.511 158.679 207.442 158.173C207.372 157.667 207.403 157.152 207.533 156.658C207.663 156.164 207.888 155.701 208.197 155.294C208.506 154.887 208.891 154.545 209.332 154.287L282.123 111.744C283.013 111.223 284.074 111.078 285.072 111.34C286.069 111.601 286.922 112.249 287.443 113.139C287.963 114.03 288.109 115.09 287.847 116.088C287.585 117.086 286.938 117.939 286.047 118.459Z" fill="#CCCCCC"/>
<path d="M374.465 228.755L199.663 330.578C198.953 330.991 198.108 331.107 197.313 330.899C196.518 330.691 195.838 330.177 195.423 329.47C195.009 328.763 194.893 327.92 195.101 327.128C195.31 326.336 195.826 325.658 196.535 325.245L371.337 223.422C372.047 223.009 372.892 222.893 373.687 223.101C374.482 223.309 375.162 223.823 375.577 224.53C375.991 225.237 376.107 226.08 375.899 226.872C375.69 227.664 375.174 228.342 374.465 228.755V228.755Z" fill="#CCCCCC"/>
<path d="M342.473 271.727L210.636 348.58C210.287 348.784 209.901 348.917 209.5 348.972C209.099 349.026 208.691 349.002 208.3 348.899C207.908 348.797 207.541 348.619 207.219 348.375C206.896 348.131 206.625 347.826 206.421 347.477C206.217 347.129 206.083 346.744 206.029 346.344C205.974 345.944 205.998 345.537 206.101 345.147C206.203 344.757 206.382 344.39 206.627 344.069C206.871 343.747 207.177 343.477 207.527 343.273L339.364 266.42C339.713 266.216 340.099 266.083 340.5 266.028C340.901 265.974 341.309 265.998 341.7 266.101C342.092 266.203 342.459 266.381 342.781 266.625C343.104 266.869 343.375 267.174 343.579 267.523C343.783 267.871 343.916 268.256 343.971 268.656C344.026 269.056 344.002 269.463 343.899 269.853C343.797 270.243 343.618 270.61 343.373 270.931C343.129 271.253 342.823 271.523 342.473 271.727V271.727Z" fill="#CCCCCC"/>
<path d="M395.473 264.755L221.637 366.578C221.288 366.783 220.901 366.916 220.5 366.971C220.099 367.026 219.692 367.002 219.3 366.899C218.909 366.796 218.541 366.617 218.219 366.372C217.896 366.126 217.625 365.82 217.421 365.47C217.217 365.12 217.084 364.733 217.029 364.331C216.974 363.929 216.998 363.52 217.101 363.128C217.203 362.736 217.382 362.367 217.627 362.044C217.872 361.721 218.177 361.449 218.527 361.245L392.363 259.422C392.712 259.217 393.099 259.084 393.5 259.029C393.901 258.974 394.308 258.998 394.7 259.101C395.091 259.204 395.459 259.383 395.781 259.628C396.104 259.873 396.375 260.18 396.579 260.53C396.783 260.88 396.916 261.267 396.971 261.669C397.026 262.071 397.002 262.48 396.899 262.872C396.797 263.264 396.618 263.633 396.373 263.956C396.128 264.279 395.823 264.551 395.473 264.755V264.755Z" fill="#CCCCCC"/>
<path d="M406.473 283.755L232.637 385.578C232.288 385.783 231.901 385.916 231.5 385.971C231.099 386.026 230.692 386.002 230.3 385.899C229.909 385.796 229.541 385.617 229.219 385.372C228.896 385.127 228.625 384.82 228.421 384.47C228.217 384.12 228.084 383.733 228.029 383.331C227.974 382.929 227.998 382.52 228.101 382.128C228.203 381.736 228.382 381.367 228.627 381.044C228.872 380.721 229.177 380.449 229.527 380.245L403.363 278.422C403.712 278.217 404.099 278.084 404.5 278.029C404.901 277.974 405.308 277.998 405.7 278.101C406.091 278.204 406.459 278.383 406.781 278.628C407.104 278.873 407.375 279.18 407.579 279.53C407.783 279.88 407.916 280.267 407.971 280.669C408.026 281.071 408.002 281.48 407.899 281.872C407.797 282.264 407.618 282.633 407.373 282.956C407.128 283.279 406.823 283.551 406.473 283.755V283.755Z" fill="#CCCCCC"/>
<path d="M343.852 371.498C346.9 367.909 349.643 364.072 352.054 360.027C354.215 356.378 356.336 352.477 356.813 348.198C357.056 346.376 356.866 344.521 356.259 342.786C355.651 341.051 354.642 339.484 353.314 338.212C352.031 337.029 350.404 336.286 348.67 336.088C346.936 335.891 345.184 336.251 343.668 337.116C342.134 337.996 340.866 339.275 340 340.818C339.133 342.36 338.699 344.107 338.745 345.876C338.869 347.823 339.432 349.717 340.391 351.416C341.349 353.115 342.679 354.576 344.281 355.69C350.765 360.387 360.891 360.142 367.802 356.567C375.586 352.54 379.607 342.005 373.492 334.794C372.22 333.294 370.103 334.97 370.422 336.588C370.826 338.774 372.049 340.723 373.842 342.037C375.635 343.35 377.861 343.93 380.067 343.658C382.273 343.385 384.291 342.281 385.71 340.57C387.129 338.859 387.841 336.671 387.701 334.453L384.952 336.06C388.322 337.553 392.026 338.132 395.692 337.738C399.357 337.345 402.854 335.994 405.831 333.82C407.304 332.75 408.619 331.479 409.738 330.044C411.084 328.288 413.344 327.154 415.175 325.889L428.365 316.775C430.305 315.434 428.46 312.24 426.504 313.591L414.558 321.846C412.568 323.221 410.564 324.58 408.585 325.973C407.171 326.969 406.301 328.576 405.014 329.759C402.577 331.95 399.567 333.404 396.336 333.951C393.104 334.498 389.784 334.114 386.762 332.846C386.48 332.695 386.165 332.618 385.845 332.624C385.525 332.63 385.213 332.717 384.937 332.879C384.661 333.04 384.431 333.269 384.269 333.545C384.107 333.821 384.019 334.133 384.013 334.453C384.158 335.776 383.775 337.104 382.946 338.146C382.118 339.189 380.911 339.861 379.589 340.018C378.266 340.175 376.936 339.802 375.886 338.983C374.837 338.163 374.154 336.961 373.987 335.64L370.917 337.435C374.862 342.087 372.235 349.222 367.69 352.344C362.607 355.834 355.097 356.44 349.367 354.27C347.962 353.787 346.671 353.019 345.576 352.014C344.481 351.009 343.605 349.789 343.002 348.43C342.444 347.203 342.284 345.831 342.547 344.509C342.809 343.186 343.48 341.979 344.464 341.057C345.317 340.215 346.465 339.736 347.664 339.723C348.863 339.711 350.02 340.164 350.891 340.989C351.84 341.957 352.536 343.144 352.918 344.445C353.3 345.746 353.356 347.121 353.082 348.448C352.491 352.143 350.449 355.55 348.549 358.705C346.379 362.301 343.926 365.718 341.212 368.922C339.69 370.723 342.315 373.317 343.852 371.498L343.852 371.498Z" fill="#6C63FF"/>
<path d="M376.593 459.179C376.91 459.506 377.202 459.858 377.465 460.23L418.313 459.231L423.078 450.523L437.16 455.997L430.222 472.233C429.662 473.544 428.691 474.639 427.455 475.352C426.22 476.064 424.787 476.357 423.371 476.186L377.219 470.611C376.131 471.989 374.648 473.003 372.969 473.519C371.29 474.034 369.494 474.025 367.82 473.495C366.145 472.964 364.672 471.937 363.597 470.548C362.521 469.16 361.893 467.477 361.797 465.724C361.701 463.97 362.141 462.229 363.058 460.731C363.976 459.234 365.328 458.051 366.934 457.341C368.54 456.63 370.325 456.426 372.05 456.754C373.775 457.082 375.36 457.928 376.593 459.179V459.179Z" fill="#FFB7B7"/>
<path d="M509.753 707.256H496.322L489.932 655.449L509.755 655.45L509.753 707.256Z" fill="#FFB7B7"/>
<path d="M513.178 720.276L469.87 720.274V719.727C469.87 715.256 471.646 710.969 474.808 707.807C477.969 704.646 482.256 702.87 486.727 702.87H486.728L513.179 702.871L513.178 720.276Z" fill="#2F2E41"/>
<path d="M387.792 706.958L375.441 701.681L389.916 651.529L408.145 659.317L387.792 706.958Z" fill="#FFB7B7"/>
<path d="M385.828 720.276L346.002 703.262L346.217 702.758C347.974 698.647 351.291 695.402 355.44 693.737C359.589 692.072 364.229 692.123 368.34 693.879L368.341 693.879L392.666 704.271L385.828 720.276Z" fill="#2F2E41"/>
<path d="M444.468 470.402L443.496 486.141L471.887 489.179L501.593 492.358L492.849 468.459L444.468 470.402Z" fill="#FFB7B7"/>
<path d="M442.602 486.343L431.573 409.456L450.69 403.191L456.304 395.491L483.627 397.108L487.639 406.093L502.208 412.977L499.969 454.559L501.602 489.343L442.602 486.343Z" fill="#2F2E41"/>
<path d="M435.66 465.739L416.216 457.959L416.299 457.613C416.382 457.265 424.658 422.681 425.757 417.123C426.902 411.333 431.084 409.733 431.261 409.668L431.391 409.62L439.086 411.962L442.466 438.516L435.66 465.739Z" fill="#2F2E41"/>
<path d="M397.796 697.853L371.912 692.543L413.282 578.389L427.44 539.453C427.44 539.453 436.421 508.234 440.478 496.153L442.926 479.943L500.888 486.359C500.888 486.359 517.077 510.133 512.159 548.884L514.383 694.534L488.499 695.862L466.819 548.966L428.768 629.493C428.768 629.493 416.774 663.857 408.194 671.305L397.796 697.853Z" fill="#2F2E41"/>
<path d="M477.644 491.765C478.1 491.754 478.556 491.779 479.008 491.84L506.048 461.206L502.903 451.791L516.491 445.187L523.679 461.313C524.26 462.616 524.402 464.072 524.085 465.463C523.768 466.853 523.008 468.104 521.92 469.026L486.453 499.078C486.724 500.813 486.459 502.59 485.695 504.171C484.932 505.753 483.704 507.064 482.177 507.931C480.65 508.798 478.894 509.18 477.145 509.025C475.395 508.87 473.735 508.186 472.383 507.064C471.032 505.942 470.054 504.436 469.58 502.745C469.106 501.053 469.158 499.258 469.729 497.597C470.3 495.936 471.363 494.489 472.777 493.447C474.191 492.405 475.889 491.818 477.644 491.765V491.765Z" fill="#FFB7B7"/>
<path d="M503.89 464.187L492.61 437.654L497.009 419.173L501.749 413.184C502.097 413.036 502.471 412.961 502.848 412.964C503.226 412.968 503.599 413.05 503.943 413.205C505.691 413.908 507.18 416.065 508.368 419.614L518.939 449.725L503.89 464.187Z" fill="#2F2E41"/>
<path d="M445.367 385.659V365.656C445.367 358.547 448.191 351.729 453.218 346.702C458.245 341.676 465.063 338.852 472.172 338.852C479.28 338.852 486.098 341.676 491.125 346.702C496.152 351.729 498.976 358.547 498.976 365.656V385.659C498.975 386.614 498.595 387.529 497.92 388.204C497.245 388.879 496.33 389.259 495.375 389.26H448.968C448.013 389.259 447.098 388.879 446.423 388.204C445.748 387.529 445.368 386.614 445.367 385.659V385.659Z" fill="#2F2E41"/>
<path d="M466.664 388.794C477.517 388.794 486.316 379.995 486.316 369.142C486.316 358.288 477.517 349.49 466.664 349.49C455.81 349.49 447.012 358.288 447.012 369.142C447.012 379.995 455.81 388.794 466.664 388.794Z" fill="#FFB7B7"/>
<path d="M439.026 367.256C439.033 361.635 441.269 356.245 445.244 352.27C449.219 348.295 454.608 346.059 460.23 346.053H464.231C469.852 346.059 475.242 348.295 479.217 352.27C483.192 356.245 485.428 361.635 485.434 367.256V367.656H476.979L474.096 359.581L473.519 367.656H469.149L467.694 363.582L467.403 367.656H439.026L439.026 367.256Z" fill="#2F2E41"/>
<path d="M464.73 391.509C464.333 390.972 464.096 390.333 464.046 389.667C463.996 389 464.135 388.333 464.448 387.743C468.687 379.679 474.623 364.779 466.744 355.59L466.178 354.93H489.052V389.271L468.273 392.937C468.062 392.975 467.849 392.993 467.636 392.994C467.068 392.994 466.509 392.859 466.004 392.601C465.499 392.343 465.062 391.969 464.73 391.509V391.509Z" fill="#2F2E41"/>
<path d="M197.904 695.94L210.042 700.278L232.551 655.523L214.636 649.121L197.904 695.94Z" fill="#9F616A"/>
<path d="M190.603 706.6L196.224 690.87L220.129 699.414C224.166 700.862 227.464 703.852 229.3 707.729C231.135 711.606 231.358 716.052 229.919 720.093L229.742 720.588L190.603 706.6Z" fill="#2F2E41"/>
<path d="M276.836 707.946L289.726 707.945L295.859 658.226L276.834 658.227L276.836 707.946Z" fill="#9F616A"/>
<path d="M273.548 703.738L298.933 703.737H298.934C301.059 703.737 303.162 704.155 305.125 704.968C307.088 705.781 308.871 706.973 310.374 708.475C311.876 709.977 313.068 711.76 313.881 713.723C314.694 715.686 315.112 717.79 315.112 719.914V720.44L273.549 720.441L273.548 703.738Z" fill="#2F2E41"/>
<path d="M247.459 390.3L253.065 379.223C253.065 379.223 273.949 384.455 275.847 396.559L247.459 390.3Z" fill="#F1F1F1"/>
<path d="M224.328 516.96L239.573 602.034L199.093 673.622L223.276 683.085L264.282 613.691L269.539 594.765L272.693 693.599L294.503 692.937L304.502 600.65L288.464 514.857L224.328 516.96Z" fill="#2F2E41"/>
<path d="M253.268 537.071C230.871 537.071 216.651 532.788 216.333 532.72L215.817 532.61L227.482 478.524L228.008 428.635C228.008 407.493 241.922 391.907 243.853 390.468C244.178 389.185 244.779 387.988 245.615 386.961C246.45 385.935 247.5 385.102 248.69 384.523C253.332 382.417 259.003 384.944 259.242 385.053L276.265 391.436L276.345 391.672C276.551 392.277 298.973 465.886 298.973 465.886C298.973 465.886 297.616 530.201 297.143 532.308C297.143 532.307 265.712 537.071 253.268 537.071Z" fill="#3F3D56"/>
<path d="M270.477 375.735C283.184 375.735 293.485 365.434 293.485 352.727C293.485 340.02 283.184 329.719 270.477 329.719C257.77 329.719 247.469 340.02 247.469 352.727C247.469 365.434 257.77 375.735 270.477 375.735Z" fill="#9F616A"/>
<path opacity="0.2" d="M244.823 432.715L285.076 488.877L291.02 462.65L244.823 432.715Z" fill="black"/>
<path d="M371.023 470.928C369.891 471.824 368.577 472.46 367.172 472.793C365.767 473.125 364.307 473.146 362.893 472.853C361.48 472.56 360.148 471.96 358.991 471.097C357.835 470.233 356.881 469.127 356.198 467.855L321.552 473.401L329.058 456.784L360.808 454.065C363.021 453.06 365.525 452.901 367.847 453.619C370.169 454.336 372.147 455.881 373.406 457.96C374.665 460.038 375.118 462.506 374.679 464.897C374.24 467.287 372.939 469.433 371.023 470.928H371.023Z" fill="#9F616A"/>
<path d="M330.842 455.838L343.291 454.617L346.741 471.983L331.076 472.26L330.842 455.838Z" fill="#F1F1F1"/>
<path d="M341.047 478.034L280.077 472.605L249.291 423.645L249.196 423.212C248.323 419.212 248.935 415.032 250.918 411.45C252.901 407.868 256.119 405.131 259.973 403.749C263.826 402.367 268.051 402.434 271.859 403.939C275.666 405.444 278.796 408.283 280.663 411.926L298.735 447.177L335.208 452.69L341.047 478.034Z" fill="#3F3D56"/>
<path d="M250.879 372.703L269.976 373.389C271.14 373.431 274.299 360.868 274.713 358.262C275.039 356.565 275.973 355.046 277.338 353.987C278.704 352.928 280.408 352.402 282.132 352.508C283.562 352.643 287.167 349.972 290.886 346.81C297.948 340.806 297.581 329.53 289.823 324.456C289.611 324.318 289.403 324.191 289.199 324.077C284.305 321.337 278.58 320.418 272.972 320.347C267.889 320.284 262.661 320.924 258.182 323.33C250.153 327.644 245.88 337.071 245.504 346.178C245.129 355.285 248.049 364.19 251.362 372.681" fill="#2F2E41"/>
<path d="M729.602 721.343H-14C-14.2652 721.343 -14.5196 721.238 -14.7071 721.05C-14.8946 720.863 -15 720.608 -15 720.343C-15 720.078 -14.8946 719.824 -14.7071 719.636C-14.5196 719.449 -14.2652 719.343 -14 719.343H730C730.265 719.343 730.52 719.449 730.707 719.636C730.895 719.824 731 720.078 731 720.343C731 720.896 730.155 721.343 729.602 721.343Z" fill="#CBCBCB"/>
</g>
<defs>
<clipPath id="clip0_710_3932">
<rect width="746" height="721.343" fill="white" transform="translate(-15)"/>
</clipPath>
</defs>
</svg>
