<svg width="509" height="339" viewBox="0 0 509 339" fill="none" xmlns="http://www.w3.org/2000/svg">
<g clip-path="url(#clip0_709_2604)">
<path d="M382.839 13.097C378.993 15.2584 372.787 6.70941 371.38 10.8911C369.974 15.0728 373.38 31.9457 375.138 35.9923C376.012 38.0037 377.246 39.8434 378.104 41.8619C378.961 43.8803 379.42 46.2012 378.663 48.2591C377.344 51.8404 372.993 53.2973 370.835 56.445C368.322 60.1111 369.337 65.049 370.512 69.3358C371.524 73.0308 372.603 76.7591 374.553 80.0573C376.502 83.3555 379.44 86.2273 383.112 87.3185C387.787 88.7079 392.784 87.0568 397.291 85.1926C401.624 83.4004 405.91 81.3687 409.596 78.4692C413.281 75.5696 416.356 71.721 417.644 67.2117C419.26 61.5553 417.91 55.3651 415.112 50.1906C412.314 45.0161 408.175 40.7052 403.929 36.6352C396.776 29.7806 389.164 23.4053 381.161 17.5663L382.839 13.097Z" fill="#2F2E41"/>
<path d="M440.028 303.332L436.398 337.223L436.233 338.773L395.159 338.613L394.942 337.058L390.593 306.003L440.028 303.332Z" fill="#FFB6B6"/>
<path d="M377.227 336.991C377.227 337.502 377.222 338.019 377.216 338.54L334.578 338.375L334.438 336.82L331.81 307.34L375.899 301.994C375.899 301.994 377.32 317.63 377.227 336.991Z" fill="#FFB6B6"/>
<path d="M372.481 73.1336C379.254 81.6671 391.195 84.14 400.833 79.0606C414.589 71.8101 433.37 63.5004 436.69 70.1404C442.034 80.831 442.034 91.2061 442.034 91.2061L447.378 215.801C447.378 215.801 450.051 266.108 416.648 261.668C383.246 257.228 331.139 275.936 331.139 275.936L336.462 220.74L350.674 199.929L356.431 140.223L346.504 92.1899L358.529 86.8446C358.529 86.8446 359.865 77.4902 363.873 77.4902C367.881 77.4902 368.849 68.5041 372.374 72.9972C372.409 73.0421 372.445 73.0876 372.481 73.1336V73.1336Z" fill="#6C63FF"/>
<path d="M444.945 338.809L436.232 338.773L395.158 338.613L389.813 338.592L389.503 337.037L381.24 295.315L379.949 337.001L379.902 338.551L377.217 338.54L334.578 338.375L331.52 338.36L331.51 336.81L331.329 307.346L331.164 280.061L331.138 275.934L331.143 275.929L343.91 250.044L347.634 242.492L348.398 240.942L355.856 225.823L423.336 216.478L424.369 216.334L442.703 213.797L442.838 221.313L442.915 225.58L443.189 240.942L443.22 242.492L443.251 244.264L444.914 337.254L444.945 338.809Z" fill="#2F2E41"/>
<path d="M392.444 69.1705C407.855 69.1705 420.347 56.6756 420.347 41.2623C420.347 25.849 407.855 13.354 392.444 13.354C377.034 13.354 364.542 25.849 364.542 41.2623C364.542 56.6756 377.034 69.1705 392.444 69.1705Z" fill="#FFB6B6"/>
<path d="M423.899 84.9701C417.386 94.2621 414.056 105.743 414.584 117.078C407.2 113.5 402.217 105.942 400.521 97.9128C398.824 89.8837 400.118 81.4533 402.844 73.713C402.871 73.6356 402.899 73.5583 402.926 73.481C407.065 61.863 403.219 48.8781 393.224 41.656C386.481 36.7845 380.634 30.6729 376.145 23.6674C373.612 19.7124 371.458 14.7512 373.351 10.4524C375.095 6.49124 379.601 4.63984 383.747 3.40105C393.215 0.572363 403.275 -1.0372 412.994 0.752713C422.712 2.54263 432.067 8.13233 436.66 16.8832C441.253 25.6342 440.05 37.577 432.595 44.0643C434.946 44.8246 436.61 47.3173 436.41 49.7808C436.21 52.2443 434.167 54.4363 431.724 54.8078C433.318 54.7513 434.259 56.851 433.69 58.3414C433.122 59.8319 431.656 60.7577 430.258 61.5249C428.266 62.6177 426.058 63.7604 426.049 66.6221C426.046 67.7695 426.455 68.8831 427.123 69.8157C428.743 72.0756 431.358 73.0934 433.876 74.0489C428.551 75.6173 424.305 80.3771 423.352 85.8462L423.899 84.9701Z" fill="#2F2E41"/>
<path d="M304.916 74.1737C304.154 66.1833 307.659 59.3136 312.743 58.8297C317.828 58.3459 322.565 64.4306 323.326 72.4239C323.673 75.6127 323.252 78.8384 322.098 81.8311L324.897 115.727L308.966 116.702L307.898 83.1828C306.199 80.4611 305.176 77.3718 304.916 74.1737Z" fill="#FFB6B6"/>
<path d="M391.713 90.2536C391.713 90.2536 365.685 74.9402 360.327 77.2372C354.968 79.5342 328.94 118.583 328.94 118.583L326.547 111.457L308.271 113.224C308.271 113.224 297.554 162.992 321.285 158.398C345.016 153.804 384.058 110.927 384.058 110.927L391.713 90.2536H391.713Z" fill="#6C63FF"/>
<path d="M150.235 172.533C150.235 172.533 164.931 163.916 168.888 171.906C172.846 179.897 209.408 275.219 209.408 275.219L185.848 279.808L150.235 172.533V172.533Z" fill="#6C63FF"/>
<path d="M118.182 115.59L118.875 116.576C116.292 118.067 115.911 121.83 117.122 124.56C118.333 127.289 120.677 129.313 122.705 131.506C124.733 133.699 126.581 136.415 126.393 139.398C126.182 142.751 123.448 145.514 123.067 148.854C122.517 153.717 127.045 157.984 126.82 162.875C126.65 166.61 123.778 169.61 120.93 172.033C118.7 173.933 116.274 175.841 114.769 178.291C114.356 178.966 114.012 179.686 113.76 180.457C112.636 183.935 113.696 187.724 115.122 191.088C116.544 194.451 118.356 197.736 118.801 201.36C119.242 204.985 117.875 209.169 114.54 210.656C121.182 210.087 127.664 207.77 133.164 204.003C133.659 203.664 134.141 203.315 134.618 202.957C142.417 197.084 147.894 188.601 153.165 180.333C153.6 179.654 154.032 178.97 154.467 178.291C155.637 176.451 156.811 174.616 157.986 172.776C161.334 167.518 164.724 162.182 166.55 156.227C168.229 150.735 168.514 144.931 169.202 139.228C169.536 136.434 169.977 133.649 170.059 130.836C170.192 126.509 169.454 122.165 167.949 118.104C166.477 114.112 164.266 110.391 161.417 107.225C158.5 103.982 154.931 101.344 151.004 99.444C147.201 97.6042 143.063 96.4617 138.848 96.1452C137.435 96.0397 136.026 96.0213 134.618 96.0855C129.063 96.315 123.572 97.7189 118.232 99.444C114.306 101.344 110.737 103.982 107.819 107.226C104.971 110.391 102.76 114.112 101.287 118.104C106.406 115.369 112.489 114.429 118.182 115.59Z" fill="#2F2E41"/>
<path d="M157.994 165.783L131.654 155.452L130.987 165.783L107.897 169.399L97.0518 218.472L106.864 248.949L180.201 251.015L177.619 240.684C177.619 240.684 189.498 227.253 182.267 205.558L181.464 200.037C179.365 185.6 170.697 172.951 157.994 165.783L157.994 165.783Z" fill="#6C63FF"/>
<path d="M143.334 154.988C156.255 154.988 166.729 144.512 166.729 131.588C166.729 118.665 156.255 108.189 143.334 108.189C130.413 108.189 119.939 118.665 119.939 131.588C119.939 144.512 130.413 154.988 143.334 154.988Z" fill="#A0616A"/>
<path d="M99.1769 130.836C99.2595 133.649 99.6999 136.434 100.035 139.228C100.723 144.931 101.007 150.735 102.686 156.227C104.512 162.182 107.902 167.518 111.251 172.776C112.425 174.616 113.599 176.451 114.769 178.291C115.205 178.97 115.636 179.654 116.072 180.333C121.343 188.601 126.82 197.084 134.618 202.957C135.095 203.315 135.577 203.664 136.072 204.003C141.572 207.77 148.054 210.087 154.697 210.656C151.362 209.169 149.995 204.985 150.435 201.36C150.88 197.736 152.692 194.451 154.114 191.088C155.541 187.724 156.6 183.935 155.476 180.457C155.224 179.686 154.88 178.966 154.467 178.291C152.963 175.841 150.536 173.933 148.307 172.033C145.458 169.61 142.586 166.61 142.417 162.875C142.192 157.984 139.068 159.622 138.517 154.759C138.137 151.419 133.682 145.725 133.471 142.371C133.283 139.388 135.114 132.176 137.141 129.983C139.169 127.79 137.306 121.242 138.517 118.512C139.728 115.782 152.944 118.067 150.362 116.576L151.054 115.59C156.747 114.429 162.83 115.369 167.949 118.104C169.064 118.696 170.128 119.37 171.137 120.132C173.573 115.681 170.683 110.034 166.752 106.826C162.903 103.679 158.16 101.862 153.453 100.261C152.642 99.9855 151.825 99.7102 151.004 99.444C145.664 97.7189 140.173 96.3149 134.618 96.0855C133.21 96.0213 131.802 96.0397 130.389 96.1452C126.173 96.4617 122.035 97.6042 118.232 99.444C114.306 101.344 110.737 103.982 107.819 107.226C104.971 110.391 102.76 114.112 101.287 118.104C99.7824 122.165 99.0439 126.509 99.1769 130.836H99.1769Z" fill="#2F2E41"/>
<path d="M507.555 317.894L474.946 249.362C472.514 244.248 467.282 240.942 461.616 240.942H49.731C48.166 240.942 46.6426 241.185 45.2067 241.65C41.5761 242.812 38.4877 245.354 36.6594 248.846L1.70547 315.492C-0.711515 320.094 -0.551382 325.508 2.13417 329.96C4.81456 334.418 9.51954 337.094 14.7203 337.115L331.521 338.36L334.578 338.375L377.217 338.54L379.902 338.551L389.813 338.592L395.158 338.613L436.232 338.773L444.945 338.809L494.169 339H494.231C499.312 339 503.966 336.438 506.693 332.145C509.43 327.832 509.75 322.501 507.555 317.894Z" fill="white"/>
<path d="M507.555 317.894L474.946 249.362C472.514 244.248 467.282 240.942 461.616 240.942H49.731C48.166 240.942 46.6426 241.185 45.2067 241.65C41.5761 242.812 38.4877 245.354 36.6594 248.846L1.70547 315.492C-0.711515 320.094 -0.551382 325.508 2.13417 329.96C4.81456 334.418 9.51954 337.094 14.7203 337.115L331.521 338.36L334.578 338.375L377.217 338.54L379.902 338.551L389.813 338.592L395.158 338.613L436.232 338.773L444.945 338.809L494.169 339H494.231C499.312 339 503.966 336.438 506.693 332.145C509.43 327.832 509.75 322.501 507.555 317.894ZM505.386 331.314C502.943 335.162 498.781 337.45 494.231 337.45H494.174L444.914 337.254L436.398 337.223L394.942 337.058L389.503 337.037L379.949 337.001L377.227 336.991L334.439 336.82L331.51 336.81L14.7253 335.565C10.0722 335.544 5.85781 333.153 3.4615 329.165C1.05989 325.177 0.915399 320.332 3.07933 316.21L38.0331 249.569C39.2933 247.167 41.2145 245.266 43.5128 244.042C45.3875 243.04 47.5154 242.492 49.731 242.492H461.616C466.688 242.492 471.367 245.452 473.546 250.029L506.156 318.555C508.123 322.687 507.834 327.455 505.386 331.314Z" fill="#3F3D56"/>
<path d="M146.373 290.531L224.359 262.121L185.366 246.435L107.639 266.77L146.373 290.531Z" fill="#F2F2F2"/>
<path d="M265.159 247.657L256.379 275.551L359.154 281.75L350.374 250.24L265.159 247.657Z" fill="#F2F2F2"/>
<path d="M144.012 252.429C151.238 253.146 156.726 257.456 156.269 262.055C155.812 266.655 149.585 269.801 142.356 269.083C139.465 268.836 136.674 267.9 134.219 266.353L103.64 262.929L105.552 248.611L135.494 253.506C138.207 252.472 141.128 252.102 144.012 252.429H144.012Z" fill="#A0616A"/>
<path d="M113.32 172.24L107.897 169.399C107.897 169.399 99.3759 169.658 93.6948 175.34C88.0138 181.022 42.049 246.108 42.049 246.108C42.049 246.108 30.687 263.671 59.0922 266.254C87.4973 268.836 119.001 268.836 119.001 268.836L121.584 247.658L78.7175 243.009L108.735 203.234L113.32 172.24Z" fill="#6C63FF"/>
<path d="M274.47 165.36C269.259 166.904 263.754 167.777 258.067 167.86C257.732 167.87 257.396 167.875 257.06 167.875C251.916 167.875 246.922 167.24 242.145 166.042L242.269 164.817L245.048 138.013L245.223 136.298L242.646 128.565H274.264L273.757 136.123L273.572 138.876L273.845 139.749L280.817 161.971L281.127 162.963C278.968 163.888 276.748 164.688 274.47 165.36H274.47Z" fill="#6C63FF"/>
<path d="M242.145 166.041C234.641 164.166 227.679 160.902 221.549 156.547C219.023 155.178 216.57 153.696 214.22 152.125L215.382 151.542L244.578 136.938L245.048 138.013L257.618 166.837L258.067 167.86C257.732 167.87 257.396 167.875 257.06 167.875C251.916 167.875 246.922 167.24 242.145 166.041Z" fill="#2F2E41"/>
<path d="M305.752 143.871C305.623 144.047 305.489 144.217 305.355 144.388C303.175 147.156 300.758 149.729 298.145 152.079L298.124 150.7L298.052 145.622C298.052 145.622 300.138 144.098 302.715 143.7C303.33 143.602 303.976 143.571 304.626 143.644C305.003 143.68 305.375 143.752 305.752 143.871Z" fill="#2F2E41"/>
<path d="M298.144 152.079C293.145 156.588 287.402 160.287 281.127 162.963C278.968 163.887 276.748 164.688 274.47 165.36L274.444 164.29L273.845 139.749L273.757 136.123L302.715 143.7L304.254 144.103L305.354 144.387C303.175 147.156 300.758 149.729 298.144 152.079Z" fill="#2F2E41"/>
<path d="M258.753 120.186C271.562 120.186 281.947 109.799 281.947 96.9871C281.947 84.1749 271.562 73.7886 258.753 73.7886C245.943 73.7886 235.559 84.1749 235.559 96.9871C235.559 109.799 245.943 120.186 258.753 120.186Z" fill="#A0616A"/>
<path d="M274.447 164.29C269.107 165.902 263.462 166.785 257.62 166.837L258.07 167.86C263.756 167.777 269.261 166.904 274.472 165.36L274.447 164.29ZM215.385 151.542C203.48 140.539 195.924 124.898 195.62 107.521C183.467 121.592 195.542 139.651 214.223 152.126C216.572 153.696 219.025 155.178 221.551 156.547C219.387 155.013 217.326 153.339 215.385 151.542ZM305.155 68.1749C293.886 54.0213 276.518 44.9351 257.063 44.9351C223.178 44.9351 195.604 72.5088 195.604 106.405C195.604 106.777 195.609 107.149 195.62 107.521C195.94 107.144 196.281 106.772 196.637 106.405C213.68 88.8423 223.746 45.9682 257.063 45.9682C276.538 45.9682 293.891 55.23 304.949 69.5851C312.809 79.7819 317.488 92.5563 317.488 106.405C317.488 108.415 317.39 110.403 317.194 112.361C317.07 113.663 316.899 114.954 316.688 116.23C315.149 125.606 311.446 134.268 306.111 141.67C305.63 142.342 305.134 142.998 304.628 143.644C304.504 143.799 304.386 143.954 304.257 144.103C302.377 146.454 300.326 148.659 298.126 150.7C293.08 155.39 287.234 159.223 280.82 161.971C278.754 162.865 276.626 163.64 274.447 164.29C269.107 165.902 263.462 166.785 257.62 166.837C257.435 166.842 257.249 166.842 257.063 166.842C252.384 166.842 247.369 166.124 242.271 164.817C235.309 163.035 228.187 160.163 221.551 156.547C227.681 160.902 234.643 164.166 242.147 166.042C246.925 167.24 251.919 167.875 257.063 167.875C257.398 167.875 257.734 167.87 258.07 167.86C263.756 167.777 269.261 166.904 274.472 165.36C276.75 164.688 278.971 163.887 281.13 162.963C287.405 160.287 293.148 156.589 298.147 152.079C300.76 149.729 303.177 147.156 305.357 144.388C305.491 144.217 305.625 144.047 305.754 143.871C305.93 143.644 306.105 143.411 306.276 143.179C312.117 135.394 316.145 126.179 317.746 116.163C317.953 114.877 318.118 113.575 318.242 112.258C318.428 110.331 318.521 108.378 318.521 106.405C318.521 91.9674 313.522 78.6765 305.155 68.1749V68.1749Z" fill="#E6E6E6"/>
<path d="M237.979 109.328C233.806 105.39 230.895 100.17 233.808 89.0425C234.024 88.2141 233.443 87.3247 232.882 86.678C232.321 86.0312 231.263 85.7306 230.597 86.2688C231.071 84.8718 237.57 79.882 238.045 78.4851C237.491 79.22 233.265 80.7958 232.926 79.94C232.587 79.0842 232.884 78.1226 233.182 77.2516L234.956 72.0598C235.402 70.7539 237.162 72.3142 238.045 71.2533C239.625 69.3527 237.821 67.3493 240.235 66.8164C248.135 65.0725 256.51 63.5144 264.184 66.0741C267.537 67.1922 270.585 69.0498 273.601 70.8919L279.12 74.2626C282.286 76.1963 285.724 78.4902 286.592 82.0975L280.797 80.0262C282.088 82.775 283.39 85.558 283.98 88.5369C284.571 91.5159 282.974 102.733 281.427 105.346C280.068 107.642 279.106 101.476 278.659 104.106C279.171 98.9393 276.845 93.5797 272.723 90.4242C271.877 89.777 270.913 89.1546 270.537 88.1583C270.118 87.0472 270.538 85.7111 269.966 84.6707C269.254 83.3771 267.394 83.2538 266.008 83.7615C264.622 84.2692 263.41 85.2235 261.973 85.5655C258.166 86.4722 254.702 82.8715 250.798 82.6007C247.078 82.3428 243.751 85.2551 242.204 88.6483C240.657 92.0416 236.379 91.3071 235.979 95.0149C235.579 98.7226 241.42 106.06 239.077 108.962L237.979 109.328Z" fill="#2F2E41"/>
<path d="M235.051 143.917L233.321 142.569L232.918 142.259C232.531 141.955 232.02 141.851 231.539 141.97L229.515 142.476C229.303 142.528 229.076 142.466 228.921 142.311L226.648 140.038C226.493 139.883 226.432 139.656 226.483 139.444L226.989 137.419C227.113 136.939 227.005 136.433 226.7 136.04L225.042 133.907C225.001 133.855 224.954 133.803 224.908 133.757C224.278 133.127 223.261 133.127 222.63 133.757L221.675 134.712C220.988 135.394 220.689 136.422 221.024 137.373C221.882 139.811 223.276 142.027 225.109 143.85C225.76 144.501 226.457 145.1 227.196 145.638C228.539 146.609 230.016 147.384 231.586 147.936C232.541 148.272 233.564 147.972 234.246 147.291L235.201 146.33C235.888 145.648 235.816 144.517 235.051 143.917ZM234.504 145.638L233.548 146.593C233.099 147.037 232.469 147.203 231.911 147.006C230.594 146.547 229.349 145.917 228.198 145.131C227.341 144.558 226.54 143.892 225.807 143.153C224.082 141.433 222.765 139.346 221.954 137.047C221.758 136.489 221.923 135.859 222.367 135.41L223.328 134.454C223.343 134.434 223.364 134.418 223.384 134.403C223.658 134.191 224.051 134.237 224.262 134.511L225.92 136.644C226.039 136.794 226.08 136.996 226.034 137.182L225.528 139.206C225.388 139.754 225.554 140.338 225.951 140.736L228.224 143.008C228.621 143.411 229.205 143.571 229.752 143.432L231.777 142.926C231.963 142.879 232.164 142.921 232.314 143.039L232.34 143.06L234.447 144.697C234.468 144.713 234.488 144.734 234.504 144.749C234.752 144.997 234.752 145.39 234.504 145.638Z" fill="#CCCCCC"/>
<path d="M255.213 139.249C255.468 139.249 255.675 139.455 255.675 139.711V140.635C255.675 142.677 257.33 144.333 259.372 144.333C261.413 144.333 263.069 142.677 263.069 140.635V139.711C263.069 139.455 263.275 139.249 263.531 139.249C263.786 139.249 263.993 139.455 263.993 139.711V140.635C263.993 143.009 262.195 144.997 259.834 145.234V147.106H262.606C262.862 147.106 263.069 147.313 263.069 147.568C263.069 147.823 262.862 148.03 262.606 148.03H256.137C255.882 148.03 255.675 147.823 255.675 147.568C255.675 147.313 255.882 147.106 256.137 147.106H258.909V145.234C256.548 144.997 254.75 143.009 254.75 140.635V139.711C254.75 139.455 254.957 139.249 255.213 139.249Z" fill="#CCCCCC"/>
<path d="M259.372 133.24C257.843 133.24 256.598 134.48 256.598 136.014V140.637C256.598 142.166 257.843 143.406 259.372 143.406C260.905 143.406 262.145 142.166 262.145 140.637V136.014C262.145 134.48 260.905 133.24 259.372 133.24ZM261.221 140.637C261.221 141.655 260.394 142.487 259.372 142.487C258.349 142.487 257.523 141.655 257.523 140.637V136.014C257.523 134.991 258.349 134.165 259.372 134.165C260.394 134.165 261.221 134.991 261.221 136.014V140.637Z" fill="#CCCCCC"/>
<path d="M291.356 133.421C289.904 132.931 288.329 133.705 287.838 135.157L288.618 135.937C288.67 134.955 289.486 134.186 290.472 134.191C291.49 134.196 292.316 135.028 292.311 136.045V139.63L293.235 140.555V136.045C293.235 134.862 292.476 133.803 291.356 133.421ZM293.7 147.141H290.927V145.266C291.738 145.188 292.512 144.894 293.174 144.414L292.507 143.747C291.924 144.14 291.221 144.367 290.462 144.367C288.422 144.367 286.764 142.709 286.764 140.669V139.744C286.764 139.661 286.744 139.579 286.697 139.511C286.62 139.377 286.475 139.284 286.305 139.284C286.222 139.284 286.144 139.305 286.077 139.346C285.938 139.424 285.84 139.573 285.84 139.744V140.669C285.84 143.04 287.642 145.028 290.003 145.266V147.141H287.229C286.971 147.141 286.764 147.348 286.764 147.601C286.764 147.859 286.971 148.066 287.229 148.066H293.7C293.953 148.066 294.16 147.859 294.16 147.601C294.16 147.348 293.953 147.141 293.7 147.141ZM294.625 139.284C294.367 139.284 294.16 139.491 294.16 139.744V140.669C294.16 140.916 294.134 141.164 294.088 141.407L294.134 141.454L294.836 142.161C294.888 142.001 294.935 141.841 294.971 141.676C295.048 141.35 295.084 141.015 295.084 140.669V139.744C295.084 139.491 294.878 139.284 294.625 139.284V139.284Z" fill="#CCCCCC"/>
<path d="M292.368 140.994L285.246 133.871L284.59 134.527L290.591 140.529L295.683 145.617L296.334 144.961L292.368 140.994ZM291.144 142.389C290.199 142.766 289.124 142.301 288.747 141.35C288.659 141.133 288.613 140.901 288.613 140.668V139.858L287.689 138.933V140.668C287.689 142.197 288.933 143.442 290.462 143.442C290.942 143.442 291.417 143.318 291.836 143.081L291.144 142.389Z" fill="#CCCCCC"/>
<path d="M415.721 241.964C409.59 246.518 402.271 247.045 399.375 243.142C396.478 239.239 399.1 232.385 405.234 227.831C407.659 225.978 410.493 224.733 413.498 224.2L439.718 205.234L448.354 217.731L421.588 235.101C420.209 237.824 418.197 240.178 415.721 241.964Z" fill="#FFB6B6"/>
<path d="M432.24 87.5127C432.24 87.5127 453.391 88.1809 457.399 102.881C461.407 117.58 469.424 148.912 468.088 192.415C468.088 192.415 474.768 220.478 457.399 219.142L433.349 229.833L417.316 208.451L430.677 192.415L432.24 87.5127Z" fill="#6C63FF"/>
</g>
<defs>
<clipPath id="clip0_709_2604">
<rect width="509" height="339" fill="white"/>
</clipPath>
</defs>
</svg>
