<svg width="384" height="284" viewBox="0 0 384 284" fill="none" xmlns="http://www.w3.org/2000/svg">
<g clip-path="url(#clip0_839_4115)">
<path d="M214.338 279.504C290.649 279.504 352.512 216.935 352.512 139.752C352.512 62.569 290.649 0 214.338 0C138.027 0 76.1643 62.569 76.1643 139.752C76.1643 216.935 138.027 279.504 214.338 279.504Z" fill="#F2F2F2"/>
<path d="M256.569 87.2987C276.414 87.2987 292.501 71.0274 292.501 50.9557C292.501 30.8841 276.414 14.6128 256.569 14.6128C236.724 14.6128 220.636 30.8841 220.636 50.9557C220.636 71.0274 236.724 87.2987 256.569 87.2987Z" fill="#9E3C54"/>
<path d="M105.932 27.1573L106.914 47.8677C110.986 53.36 115.378 59.6451 119.713 66.4949L120.332 34.899L120.673 35.1198C115.659 31.4968 110.562 28.7249 105.591 26.9653L105.932 27.1573Z" fill="#6C63FF"/>
<path d="M106.198 46.9058L105.247 26.8442C99.664 24.9184 94.2469 24.2795 89.2953 25.1727C89.0377 25.2192 88.7844 25.2727 88.5317 25.3269C89.7899 26.6921 97.1218 34.7548 106.198 46.9058Z" fill="#6C63FF"/>
<path d="M151.278 71.614L151.608 71.932C150.255 69.358 148.82 66.8555 147.305 64.4243L138.072 101.169L137.916 101.03C138.583 102.642 139.218 104.243 139.82 105.833L151.278 71.614Z" fill="#6C63FF"/>
<path d="M137.213 50.7237L137.553 50.9989C132.671 45.1491 127.122 39.9046 121.021 35.375L120.39 67.5729C124.424 74.0117 128.035 80.3539 131.225 86.5994L137.213 50.7237Z" fill="#6C63FF"/>
<path d="M70.2361 60.7764C70.7548 66.2034 71.8143 71.5635 73.3985 76.775L128.457 82.519C125.583 77.158 122.616 72.1284 119.735 67.5444L70.3761 61.2142L70.2361 60.7764Z" fill="#6C63FF"/>
<path d="M75.4014 82.7849L75.2532 82.3479L130.978 87.3577C130.305 86.0258 129.624 84.7117 128.936 83.4152L73.6736 77.6501L73.5283 77.2124C74.0853 79.0494 74.7097 80.9069 75.4014 82.7849Z" fill="#6C63FF"/>
<path d="M146.678 63.6581L147.013 63.9569C144.25 59.5621 141.197 55.3609 137.875 51.3818L131.806 87.7426C133.91 91.9194 135.815 96.0374 137.521 100.097L146.678 63.6581Z" fill="#6C63FF"/>
<path d="M145.499 124.397C147.714 134.09 148.553 143.255 147.999 151.791C151.115 145.075 162.966 117.255 158.536 91.3267L145.499 124.397Z" fill="#6C63FF"/>
<path d="M85.624 102.381C88.5726 106.398 91.784 110.211 95.2366 113.793L95.1022 113.308L144.671 123.622C143.381 118.209 141.772 112.88 139.851 107.662L85.624 102.381Z" fill="#6C63FF"/>
<path d="M105.771 47.244C95.9471 34.0999 88.196 25.7923 88.0845 25.6734L88.2122 25.3965C80.7577 27.1082 75.4944 32.2379 72.5984 39.6629L105.771 47.244Z" fill="#6C63FF"/>
<path d="M140.279 107.066C140.462 107.56 140.648 108.056 140.825 108.548C142.527 113.265 143.974 118.072 145.16 122.949L158.073 90.1915L158.389 90.5114C157.571 85.9533 156.186 81.5182 154.266 77.3123C153.504 75.6631 152.707 74.0389 151.874 72.4395L140.279 107.066Z" fill="#6C63FF"/>
<path d="M119.158 66.6307C114.868 59.8617 110.525 53.6522 106.501 48.2245L72.5674 40.4693L72.4524 40.0361C70.334 45.6785 69.5594 52.6101 70.201 60.352L119.158 66.6307Z" fill="#6C63FF"/>
<path d="M144.872 124.482L95.6655 114.244C116.363 135.733 145.319 152.213 147.167 153.255C148.03 143.787 147.052 134.062 144.872 124.482Z" fill="#6C63FF"/>
<path d="M139.503 106.78L139.514 106.747C137.148 100.439 134.448 94.2633 131.425 88.2482L75.5632 83.2261C76.5117 85.7662 77.5835 88.3336 78.7789 90.9281C80.5199 94.6245 82.5907 98.1526 84.9654 101.468L139.503 106.78Z" fill="#6C63FF"/>
<path d="M210.562 96.916L198.258 113.501C197.93 120.357 197.35 128.031 196.369 136.103L216.77 112.168L216.894 112.558C215.317 106.533 213.139 101.11 210.42 96.5479L210.562 96.916Z" fill="#6C63FF"/>
<path d="M198.313 112.298L210.232 96.2329C207.146 91.148 203.377 87.1614 199 84.655C198.772 84.5246 198.543 84.4025 198.315 84.2812C198.423 86.1444 198.985 97.0839 198.313 112.298Z" fill="#6C63FF"/>
<path d="M217.452 160.409L217.505 160.866C218.086 158.011 218.56 155.158 218.925 152.308L188.643 174.652L188.61 174.444C188.108 176.116 187.587 177.759 187.048 179.372L217.452 160.409Z" fill="#6C63FF"/>
<path d="M219.792 135.246L219.88 135.677C219.81 128.023 218.843 120.404 217 112.979L196.21 137.37C195.256 144.932 194.039 152.146 192.557 159.014L219.792 135.246Z" fill="#6C63FF"/>
<path d="M161.868 99.7812C158.845 104.296 156.281 109.108 154.215 114.143L192.998 154.086C194.165 148.103 195.052 142.315 195.724 136.926L161.7 100.209L161.868 99.7812Z" fill="#6C63FF"/>
<path d="M151.968 120.064L152.129 119.632L191.889 159.438C192.21 157.978 192.514 156.527 192.802 155.085L153.875 114.995L154.039 114.564C153.31 116.338 152.619 118.171 151.968 120.064Z" fill="#6C63FF"/>
<path d="M218.925 151.313L218.995 151.76C219.639 146.592 219.937 141.387 219.887 136.18L192.284 160.269C191.27 164.843 190.14 169.244 188.895 173.471L218.925 151.313Z" fill="#6C63FF"/>
<path d="M179.715 197.333C175.308 206.228 170.175 213.828 164.365 220.044C171 216.882 197.672 203.1 210.61 180.273L179.715 197.333Z" fill="#6C63FF"/>
<path d="M147.483 141.751C147.221 146.748 147.29 151.756 147.69 156.742L147.893 156.282L179.566 196.202C181.986 191.202 184.107 186.059 185.918 180.801L147.483 141.751Z" fill="#6C63FF"/>
<path d="M197.77 112.282C198.493 95.8219 197.762 84.4233 197.751 84.2598L198.024 84.1289C191.204 80.6383 183.915 81.1938 177.002 85.0443L197.77 112.282Z" fill="#6C63FF"/>
<path d="M186.624 180.618C186.453 181.117 186.284 181.619 186.109 182.112C184.446 186.843 182.529 191.479 180.367 195.999L210.97 179.1L211.011 179.55C213.256 175.512 214.986 171.203 216.159 166.725C216.613 164.963 217.023 163.198 217.39 161.429L186.624 180.618Z" fill="#6C63FF"/>
<path d="M195.856 135.85C196.82 127.869 197.391 120.285 197.714 113.508L176.469 85.6451L176.654 85.2373C171.464 88.2164 166.497 93.0554 162.109 99.432L195.856 135.85Z" fill="#6C63FF"/>
<path d="M179.178 196.995L147.737 157.366C150.126 187.268 162.035 218.641 162.802 220.636C169.436 213.9 174.816 205.779 179.178 196.995Z" fill="#6C63FF"/>
<path d="M186.206 179.897L186.235 179.879C188.391 173.494 190.206 166.996 191.671 160.413L151.814 120.509C150.943 123.077 150.149 125.746 149.434 128.515C148.444 132.485 147.814 136.538 147.552 140.624L186.206 179.897Z" fill="#6C63FF"/>
<path d="M87.8825 119.058L95.1459 138.447C100.696 142.398 106.794 147.002 113.01 152.161L103.943 121.919L104.335 122.022C98.4593 120.144 92.7645 119.102 87.499 118.982L87.8825 119.058Z" fill="#6C63FF"/>
<path d="M94.171 137.756L87.1354 118.974C81.2372 118.888 75.8901 119.974 71.4539 122.371C71.2231 122.496 70.9986 122.626 70.7749 122.757C72.3887 123.662 81.8256 129.037 94.171 137.756Z" fill="#6C63FF"/>
<path d="M144.594 147.161L145.005 147.36C142.932 145.335 140.803 143.404 138.618 141.565L141.067 179.397L140.876 179.314C142.003 180.638 143.096 181.962 144.155 183.286L144.594 147.161Z" fill="#6C63FF"/>
<path d="M124.833 131.691L125.241 131.847C118.811 127.809 111.93 124.557 104.744 122.156L113.983 152.975C119.788 157.837 125.161 162.74 130.103 167.682L124.833 131.691Z" fill="#6C63FF"/>
<path d="M64.2085 162.19C66.3604 167.189 69.0061 171.956 72.1053 176.417L126.223 164.666C121.852 160.467 117.493 156.611 113.352 153.152L64.4754 162.563L64.2085 162.19Z" fill="#6C63FF"/>
<path d="M75.8472 181.506L75.5726 181.137L130.1 168.48C129.052 167.424 128.003 166.387 126.953 165.369L72.6347 177.163L72.3628 176.792C73.4539 178.365 74.6153 179.936 75.8472 181.506Z" fill="#6C63FF"/>
<path d="M137.787 141.033L138.197 141.212C134.227 137.897 130.039 134.855 125.664 132.11L131.005 168.587C134.281 171.902 137.352 175.223 140.215 178.55L137.787 141.033Z" fill="#6C63FF"/>
<path d="M155.229 199.167C160.297 207.692 163.896 216.146 165.978 224.437C166.889 217.076 169.658 186.913 157.521 163.64L155.229 199.167Z" fill="#6C63FF"/>
<path d="M91.5576 196.947C95.5895 199.845 99.8088 202.467 104.187 204.795L103.911 204.375L154.204 198.688C151.324 193.944 148.165 189.378 144.744 185.017L91.5576 196.947Z" fill="#6C63FF"/>
<path d="M93.8674 138.211C80.5082 128.782 70.5978 123.304 70.4554 123.226L70.4922 122.923C63.9258 126.881 60.488 133.405 60.0029 141.372L93.8674 138.211Z" fill="#6C63FF"/>
<path d="M144.968 184.316C145.293 184.729 145.621 185.142 145.94 185.555C149 189.508 151.846 193.628 154.464 197.894L156.734 162.704L157.132 162.91C154.961 158.831 152.288 155.046 149.177 151.646C147.949 150.316 146.694 149.02 145.413 147.76L144.968 184.316Z" fill="#6C63FF"/>
<path d="M112.525 152.464C106.376 147.367 100.348 142.82 94.8616 138.916L60.2201 142.149L59.9783 141.773C59.688 147.801 61.0697 154.636 64.0459 161.798L112.525 152.464Z" fill="#6C63FF"/>
<path d="M154.658 199.443L104.733 205.089C130.984 219.056 163.559 225.676 165.635 226.089C163.561 216.816 159.659 207.873 154.658 199.443Z" fill="#6C63FF"/>
<path d="M144.142 184.287L144.143 184.252C139.965 178.992 135.51 173.963 130.797 169.188L76.1357 181.875C77.814 183.994 79.618 186.101 81.5477 188.195C84.3331 191.166 87.3807 193.874 90.6525 196.285L144.142 184.287Z" fill="#6C63FF"/>
<path d="M384 237.541C384 254.302 298.752 284 193.594 284C88.4362 284 3.18872 254.302 3.18872 237.541C3.18872 220.78 88.4362 223.304 193.594 223.304C298.752 223.304 384 220.78 384 237.541Z" fill="#3F3D56"/>
<path opacity="0.1" d="M384 237.541C384 254.302 298.752 284 193.594 284C88.4362 284 3.18872 254.302 3.18872 237.541C3.18872 220.78 88.4362 223.304 193.594 223.304C298.752 223.304 384 220.78 384 237.541Z" fill="black"/>
<path d="M193.594 267.889C298.752 267.889 384 254.302 384 237.541C384 220.78 298.752 207.193 193.594 207.193C88.4362 207.193 3.18872 220.78 3.18872 237.541C3.18872 254.302 88.4362 267.889 193.594 267.889Z" fill="#3F3D56"/>
<path opacity="0.1" d="M226.605 205.82C226.605 224.081 201.44 218.433 170.627 218.433C139.815 218.433 115.023 224.081 115.023 205.82C115.023 187.56 140.185 183.588 170.998 183.588C201.81 183.588 226.605 187.56 226.605 205.82Z" fill="black"/>
<path d="M226.605 201.325C226.605 219.585 201.44 213.937 170.627 213.937C139.815 213.937 115.023 219.585 115.023 201.325C115.023 183.064 140.185 179.093 170.998 179.093C201.81 179.093 226.605 183.064 226.605 201.325Z" fill="#3F3D56"/>
<path d="M127.482 151.079C128.16 150.591 128.908 150.212 129.7 149.954C134.721 148.065 139.982 146.906 145.326 146.514C149.972 146.181 155.008 146.577 158.637 149.53C159.201 149.949 159.663 150.493 159.987 151.121C160.443 152.118 160.305 153.276 160.157 154.364C160.124 154.786 160.019 155.199 159.846 155.585C159.358 156.525 158.156 156.855 157.111 156.742C156.067 156.629 155.087 156.182 154.057 155.975C153.42 155.863 152.775 155.796 152.128 155.776L145.668 155.422C141.65 155.202 137.58 154.986 133.64 155.806C132.426 156.027 131.254 156.435 130.164 157.017C129.264 157.528 128.658 158.262 127.823 157.318C126.356 155.659 125.544 152.611 127.482 151.079Z" fill="#2F2E41"/>
<path d="M137.493 153.969C137.493 153.969 146.182 150.029 149.478 154.575C152.774 159.121 147.681 157.302 147.681 157.302L141.988 159.121L135.695 157.908L137.493 153.969Z" fill="#F2F2F2"/>
<path d="M137.943 151.09C137.943 151.09 139.141 156.848 138.242 158.363C137.343 159.878 143.336 162 143.336 162L149.029 159.575C149.029 159.575 147.531 150.181 149.029 148.362L137.943 151.09Z" fill="#FFB9B9"/>
<path opacity="0.1" d="M137.943 151.09C137.943 151.09 139.141 156.848 138.242 158.363C137.343 159.878 143.336 162 143.336 162L149.029 159.575C149.029 159.575 147.531 150.181 149.029 148.362L137.943 151.09Z" fill="black"/>
<path d="M132.328 220.327C133.134 222.016 133.796 223.772 134.308 225.575C134.316 225.634 134.337 225.692 134.369 225.742C134.401 225.793 134.443 225.837 134.492 225.87C134.542 225.903 134.598 225.926 134.656 225.936C134.715 225.946 134.775 225.943 134.832 225.928L140.162 225.922C140.82 225.921 141.702 225.707 141.695 225.042C141.691 224.575 141.218 224.283 140.867 223.98C139.891 223.138 139.637 221.75 139.233 220.518C138.448 218.147 136.934 216.091 134.913 214.65C134.64 214.433 134.325 214.276 133.989 214.188C133.651 214.139 133.307 214.157 132.977 214.244C132.041 214.435 128.547 215.088 129.207 216.464C129.492 217.057 130.545 217.674 130.986 218.227C131.501 218.881 131.95 219.584 132.328 220.327Z" fill="#575A89"/>
<path d="M150.861 214.074C150.673 214.474 150.464 214.863 150.235 215.239C149.463 216.527 148.551 217.729 147.832 219.048C147.348 219.854 147.048 220.76 146.957 221.698C146.916 222.168 146.987 222.64 147.164 223.076C147.341 223.512 147.619 223.898 147.974 224.203C148.748 224.797 149.808 224.824 150.77 224.686C151.732 224.548 152.687 224.269 153.656 224.342C153.329 222.473 154.888 220.828 155.278 218.972C155.387 218.451 155.403 217.91 155.55 217.398C155.708 216.93 155.91 216.478 156.153 216.049C156.929 214.52 157.478 212.884 157.781 211.193C157.818 210.988 153.043 210.955 152.595 211.053C151.198 211.358 151.402 212.902 150.861 214.074Z" fill="#575A89"/>
<path d="M114.063 184.713C112.7 186.871 113.014 189.73 113.971 192.1C114.929 194.469 116.452 196.565 117.495 198.897C118.16 200.384 118.626 201.961 119.374 203.407C120.301 205.198 121.655 206.776 122.277 208.696C122.673 209.921 122.764 211.262 123.407 212.375C123.795 212.969 124.238 213.525 124.73 214.035C126.114 215.639 127.152 217.515 127.78 219.546C128.367 217.777 130.125 216.617 131.931 216.235C133.736 215.852 135.607 216.112 137.434 216.373C136.415 214.777 135.386 213.16 134.779 211.362C134.191 209.623 134.018 207.773 133.622 205.979C132.811 202.301 131.077 198.908 129.361 195.563L138.182 194.855C139.621 194.709 141.069 194.654 142.515 194.692C144.792 194.801 147.022 195.365 149.286 195.626C151.551 195.887 153.947 195.819 155.965 194.748C152.106 200.348 150.096 207.038 150.223 213.863C151.085 213.187 152.086 212.715 153.153 212.481C154.219 212.247 155.323 212.257 156.385 212.51C157.447 212.764 158.44 213.254 159.29 213.946C160.14 214.637 160.827 215.512 161.299 216.507C164.756 211.729 164.345 205.078 167.084 199.847C167.647 198.771 168.338 197.769 168.945 196.718C170.094 194.608 171.077 192.41 171.886 190.145C172.653 188.163 173.424 185.957 172.69 183.963C172.384 183.207 171.94 182.516 171.38 181.927C169.8 180.164 167.6 178.861 165.249 178.807C161.639 178.723 158.656 181.43 155.49 183.185C151.709 185.217 147.433 186.114 143.165 185.77C138.816 185.458 134.661 184.018 130.517 182.75C128.444 182.086 126.337 181.536 124.205 181.103C122.427 180.766 120.735 181.139 118.984 181.599C117.077 182.099 115.16 182.977 114.063 184.713Z" fill="#2F2E41"/>
<path d="M151.726 145.331C151.724 147.742 150.776 150.053 149.091 151.758C147.405 153.463 145.12 154.421 142.737 154.423C142.201 154.424 141.666 154.375 141.14 154.278C139.457 153.97 137.897 153.184 136.64 152.012C135.384 150.839 134.485 149.328 134.047 147.657C133.61 145.985 133.653 144.222 134.171 142.575C134.69 140.927 135.662 139.463 136.974 138.355C138.285 137.246 139.883 136.539 141.578 136.316C143.273 136.093 144.996 136.363 146.544 137.096C148.093 137.828 149.403 138.992 150.321 140.451C151.238 141.909 151.726 143.602 151.726 145.331Z" fill="#FFB9B9"/>
<path d="M137.493 153.968C137.493 153.968 139.141 154.726 139.74 155.332C140.34 155.938 142.137 159.272 145.134 157.151C148.13 155.029 148.43 153.817 149.329 153.817C150.227 153.817 151.426 155.635 151.426 155.635L159.666 180.637C157.445 183.173 154.871 185.368 152.025 187.153C147.231 190.184 141.538 191.699 138.841 190.487C136.145 189.274 131.051 188.365 130.152 185.941C129.253 183.516 127.755 176.243 127.755 176.243L131.95 157.757L137.493 153.968Z" fill="#F2F2F2"/>
<path d="M136.336 179.255C136.989 177.828 137.084 176.213 137.14 174.641C137.228 173.084 137.187 171.523 137.018 169.973C136.752 167.946 136.099 165.993 135.687 163.991C135.326 162.235 135.15 160.445 135.163 158.652C135.169 157.834 135.228 156.972 135.669 156.286C135.976 155.807 136.457 155.436 136.65 154.9C137.026 153.847 136.095 152.745 135.075 152.312C133.832 151.84 132.472 151.785 131.196 152.154C129.93 152.524 128.707 153.03 127.547 153.664C126.671 154.042 125.865 154.569 125.164 155.222C124.234 156.196 123.825 157.552 123.494 158.863C123.23 159.913 122.995 161.008 123.196 162.073C123.523 163.801 124.916 165.101 125.658 166.692C126.521 168.539 126.462 170.693 126.119 172.706C125.777 174.719 125.168 176.688 124.98 178.722C124.792 180.757 125.08 182.943 126.341 184.54C126.854 185.191 128.247 186.733 129.187 186.559C129.926 186.422 130.996 184.777 131.591 184.256C133.31 182.751 135.349 181.411 136.336 179.255Z" fill="#2F2E41"/>
<path d="M152.035 152.98C152.061 154.671 151.324 156.277 150.458 157.723C149.592 159.168 148.574 160.536 147.936 162.098C147.143 164.054 146.981 166.213 147.473 168.267C147.656 168.967 147.877 169.656 148.134 170.331L149.776 174.886C149.997 175.602 150.317 176.283 150.728 176.908C151.099 177.386 151.534 177.81 152.022 178.166C153.269 179.185 154.704 179.942 156.243 180.394C157.793 180.842 159.447 180.747 160.937 180.123C161.095 173.949 162.076 167.824 163.853 161.915C164.181 160.824 164.54 159.675 164.287 158.564C164.003 157.32 163.015 156.385 162.075 155.532C159.202 152.922 156.042 150.181 152.196 149.829C149.97 149.625 152.016 151.758 152.035 152.98Z" fill="#2F2E41"/>
<path d="M132.372 188.215C132.599 188.666 132.741 189.158 132.967 189.61C133.299 190.217 133.71 190.776 134.189 191.273C136.193 193.52 138.642 195.758 141.63 195.893C141.927 195.922 142.226 195.883 142.507 195.782C142.76 195.651 142.977 195.46 143.14 195.224C143.302 194.989 143.406 194.717 143.44 194.432C143.652 193.258 143.14 192.087 142.627 191.013C141.516 188.685 140.265 186.297 138.184 184.795C137.145 184.075 135.957 183.602 134.712 183.413C133.466 183.223 132.194 183.322 130.991 183.701C129.907 184.038 128.109 184.628 129.545 185.629C130.634 186.388 131.74 186.965 132.372 188.215Z" fill="#FFB9B9"/>
<path d="M145.29 158.569C144.978 157.717 144.5 156.938 143.884 156.276C143.262 155.745 142.527 155.368 141.736 155.176C140.711 154.88 139.651 154.726 138.585 154.719C137.316 154.711 135.844 155.055 135.305 156.217C134.877 157.14 135.209 158.233 135.64 159.154C135.824 159.631 136.131 160.05 136.528 160.368C137.076 160.742 137.783 160.73 138.432 160.855C139.438 161.113 140.391 161.55 141.246 162.145L143.468 163.503L147.286 165.837C147.185 165.776 147.221 163.128 147.104 162.694C146.726 161.296 145.876 159.893 145.29 158.569Z" fill="#FFB9B9"/>
<path d="M134.169 224.889C133.276 226.117 133.455 227.872 132.664 229.169C131.978 230.294 130.685 230.883 129.827 231.88C129.553 232.211 129.309 232.566 129.098 232.941C128.302 234.289 127.655 236.017 128.439 237.373C129.069 238.463 130.395 238.889 131.61 239.18C133.147 239.547 134.743 239.841 136.297 239.56C137.851 239.28 139.37 238.317 139.924 236.822C140.033 236.446 140.162 236.077 140.312 235.715C141.154 234.038 143.796 234.02 144.658 232.353C145.261 231.187 144.707 229.777 144.152 228.585L142.459 224.948C141.898 223.74 139.62 224.435 138.433 224.145C136.884 223.768 135.283 223.352 134.169 224.889Z" fill="#2F2E41"/>
<path d="M147.264 221.763C146.571 222.315 146.041 223.05 145.732 223.886C144.895 225.841 144.607 227.984 144.327 230.096C144.168 230.936 144.152 231.798 144.279 232.644C144.64 234.369 146.185 235.639 147.849 236.166C149.512 236.693 151.296 236.612 153.037 236.526C153.599 236.54 154.157 236.426 154.668 236.191C155.543 235.703 155.885 234.556 155.735 233.557C155.585 232.557 155.045 231.668 154.517 230.811C153.989 229.953 153.449 229.064 153.297 228.065C153.043 226.385 153.761 223.918 152.74 222.398C151.717 220.874 148.629 220.796 147.264 221.763Z" fill="#2F2E41"/>
<path d="M151.5 140.593C151.34 140.049 150.987 139.584 150.51 139.287C150.535 138.704 150.464 138.122 150.301 137.563C149.757 135.935 148.467 136.028 147.25 135.309C146.722 134.996 146.755 134.72 146.48 134.208C146.12 133.535 145.581 132.979 144.923 132.601C144.143 132.098 143.319 131.58 142.395 131.516C140.455 131.382 138.967 133.229 137.112 133.821C136.294 134.082 135.416 134.093 134.594 134.34C133.772 134.587 132.952 135.176 132.829 136.035C132.773 136.431 132.873 136.837 132.815 137.234C132.701 138.021 132.018 138.572 131.561 139.22C130.55 140.652 130.666 142.675 131.474 144.233C131.645 144.556 131.839 144.864 132.057 145.156C132.125 145.892 132.334 146.608 132.673 147.264C133.481 148.822 134.872 149.986 136.326 150.953C136.207 150.437 136.135 149.91 136.11 149.38C136.09 149.203 136.112 149.024 136.176 148.859C136.338 148.517 136.766 148.426 137.092 148.238C137.767 147.85 138.032 146.991 138.052 146.205C138.071 145.42 137.907 144.633 137.988 143.852C137.991 143.672 138.032 143.495 138.107 143.332C138.182 143.169 138.289 143.024 138.423 142.906C138.673 142.762 138.957 142.693 139.244 142.708C140.628 142.651 142.074 142.625 143.294 141.963C143.688 141.699 144.111 141.482 144.555 141.318C145.592 141.045 146.652 141.78 147.25 142.68C147.848 143.58 148.146 144.651 148.698 145.581C149.249 146.511 150.202 147.34 151.268 147.23C151.329 147.23 151.388 147.217 151.443 147.192C151.498 147.168 151.547 147.131 151.587 147.086C151.633 147.003 151.653 146.907 151.646 146.812L151.705 142.689C151.755 141.984 151.685 141.275 151.5 140.593Z" fill="#2F2E41"/>
<path d="M123.052 162.161C122.194 163.44 121.205 164.671 120.734 166.141C120.457 167.006 120.371 167.92 120.17 168.805C119.502 171.756 117.572 174.376 117.378 177.396C117.31 178.068 117.407 178.745 117.661 179.369C118.215 180.587 119.54 181.229 120.804 181.633C122.069 182.037 123.426 182.328 124.435 183.198C124.943 183.69 125.404 184.23 125.811 184.811C127.457 186.882 129.672 188.414 132.177 189.216C131.979 187.837 131.886 186.175 132.976 185.323C133.566 184.861 134.354 184.779 135.097 184.714L138.608 184.407C136.267 182.111 133.686 180.077 130.912 178.343C129.941 177.737 128.884 177.097 128.441 176.034C128.212 175.348 128.117 174.625 128.161 173.903C128.137 171.262 127.916 168.627 127.5 166.019C127.211 164.209 126.828 162.415 126.391 160.635C126.268 160.136 125.541 157.895 124.648 158.419C124.437 158.543 124.24 159.964 124.117 160.259C123.824 160.927 123.468 161.564 123.052 162.161Z" fill="#2F2E41"/>
<path d="M163.488 157.324L164.922 160.34C165.612 161.58 165.927 162.998 165.826 164.418L165.911 173.464C165.977 174.673 165.878 175.885 165.617 177.067C165.527 177.456 165.359 177.822 165.122 178.142C164.879 178.418 164.592 178.652 164.274 178.833C161.561 180.548 158.042 181.522 155.175 180.086C154.519 179.732 153.895 179.319 153.31 178.854C152.168 177.998 151.008 177.126 150.153 175.977C149.259 174.774 148.746 173.334 148.144 171.958C147.064 169.489 145.669 167.174 143.993 165.072C143.716 164.794 143.535 164.432 143.479 164.041C143.461 163.248 144.392 162.858 145.117 162.556C146.356 162.041 147.524 161.046 147.732 159.707C150.366 163.202 153.274 166.894 157.432 168.171C157.497 168.213 157.572 168.237 157.649 168.239C157.727 168.242 157.803 168.223 157.871 168.185C157.938 168.147 157.995 168.091 158.033 168.023C158.072 167.956 158.092 167.879 158.091 167.8C158.327 166.802 158.411 165.773 158.583 164.761C158.9 162.919 159.51 161.14 160.389 159.495C160.881 158.572 162.476 155.196 163.488 157.324Z" fill="#2F2E41"/>
<path opacity="0.1" d="M127.911 166.045C127.95 168.186 127.5 170.307 126.597 172.244C126.362 172.671 126.188 173.131 126.082 173.609C125.925 174.628 126.498 175.614 127.153 176.404C128.446 177.958 130.123 179.138 132.012 179.823" fill="black"/>
<path opacity="0.1" d="M159.043 164.241C158.832 164.816 159.024 165.451 159.186 166.042C159.658 167.754 159.878 169.528 159.84 171.305C159.847 171.337 159.846 171.369 159.837 171.399C159.829 171.43 159.813 171.458 159.791 171.481C159.769 171.504 159.742 171.521 159.712 171.53C159.681 171.539 159.65 171.541 159.619 171.535C158.927 171.578 158.135 171.582 157.666 171.067" fill="black"/>
<path opacity="0.1" d="M276.573 249.905C302.351 249.905 323.248 245.376 323.248 239.789C323.248 234.202 302.351 229.673 276.573 229.673C250.795 229.673 229.897 234.202 229.897 239.789C229.897 245.376 250.795 249.905 276.573 249.905Z" fill="black"/>
<path d="M299.91 149.494L296.576 152.866L299.91 156.238L303.244 149.494H299.91Z" fill="#A0616A"/>
<path d="M300.661 120.254C301.597 120.642 302.042 121.7 302.394 122.659L306.719 134.413L307.561 136.7C307.974 137.822 308.387 138.945 308.736 140.089C308.957 140.813 309.152 141.544 309.321 142.282C309.496 142.914 309.564 143.571 309.52 144.226C309.403 144.947 309.143 145.636 308.756 146.252C307.251 148.902 305.108 151.125 302.527 152.713C302.378 151.742 301.99 150.823 301.4 150.042C300.809 149.26 300.034 148.641 299.146 148.241L301.382 146.997C301.855 146.773 302.281 146.458 302.635 146.069C302.852 145.766 303.006 145.422 303.088 145.057C303.17 144.693 303.179 144.315 303.114 143.947C302.98 143.213 302.757 142.498 302.45 141.819C301.7 139.924 301.049 137.992 300.5 136.028C300.175 134.867 299.876 133.673 299.233 132.657C298.649 131.735 297.803 130.998 297.272 130.044C296.464 128.589 296.484 126.798 296.842 125.169C297.143 123.794 297.649 122.47 298.074 121.131C298.408 120.079 299.659 119.84 300.661 120.254Z" fill="#D0CDE1"/>
<path d="M280.041 88.8507C278.322 89.4381 276.764 90.812 276.412 92.6129C276.248 93.4477 276.349 94.3156 276.211 95.1551C275.893 97.1023 274.381 98.5893 272.988 99.9706C271.594 101.352 270.154 102.957 270.053 104.928C269.941 107.086 271.489 109.108 271.221 111.252C270.91 113.743 268.309 115.357 267.666 117.782C267.236 119.402 267.762 121.146 268.628 122.576C270.278 125.3 273.097 127.15 276.1 128.142C279.103 129.133 282.301 129.342 285.46 129.375C289.306 129.416 293.482 129.082 296.371 126.515C298.022 125.035 299.059 122.979 299.273 120.759C299.548 117.785 298.321 114.712 299.167 111.851C299.7 110.05 301.036 108.405 300.837 106.537C300.642 104.709 299.064 103.414 297.981 101.938C296.971 100.559 296.357 98.9318 295.756 97.3271L293.7 91.8364C293.295 90.7571 292.851 89.6219 291.95 88.9135C290.264 87.5872 287.551 87.8478 285.579 88.1213C283.749 88.3751 281.801 88.2497 280.041 88.8507Z" fill="#2F2E41"/>
<path d="M281.632 106.945C281.632 106.945 281.834 113.053 281.23 113.664C280.626 114.275 283.645 118.347 283.645 118.347L289.081 118.144L291.899 115.904L289.483 112.646C289.483 112.646 288.477 107.353 289.282 106.131C290.087 104.909 281.632 106.945 281.632 106.945Z" fill="#A0616A"/>
<path opacity="0.1" d="M281.632 106.945C281.632 106.945 281.834 113.053 281.23 113.664C280.626 114.275 283.645 118.347 283.645 118.347L289.081 118.144L291.899 115.904L289.483 112.646C289.483 112.646 288.477 107.353 289.282 106.131C290.087 104.909 281.632 106.945 281.632 106.945Z" fill="black"/>
<path d="M269.051 154.079L272.473 161.816L275.09 158.558L269.856 151.636L269.051 154.079Z" fill="#A0616A"/>
<path d="M259.892 231.549L258.483 239.49L256.067 242.951L257.476 243.765L259.892 243.358L262.71 242.34L263.918 237.658L266.132 231.549H259.892Z" fill="#A0616A"/>
<path d="M285.658 226.663L284.853 238.065L286.866 239.693L290.087 236.843V228.495L285.658 226.663Z" fill="#A0616A"/>
<path d="M284.954 109.287C288.956 109.287 292.201 106.006 292.201 101.958C292.201 97.9095 288.956 94.6279 284.954 94.6279C280.952 94.6279 277.707 97.9095 277.707 101.958C277.707 106.006 280.952 109.287 284.954 109.287Z" fill="#A0616A"/>
<path d="M290.546 111.816C290.329 111.71 290.092 111.653 289.851 111.648C289.61 111.644 289.371 111.691 289.15 111.789C288.71 111.986 288.283 112.211 287.872 112.462C286.814 113.019 285.615 113.239 284.431 113.095C284.292 113.084 284.156 113.049 284.029 112.99C283.895 112.906 283.771 112.805 283.661 112.69C283.232 112.337 282.684 112.167 282.133 112.215C281.582 112.263 281.071 112.525 280.708 112.947C280.495 113.215 280.349 113.536 280.117 113.787C279.516 114.437 278.523 114.464 277.642 114.462C275.816 114.411 273.991 114.58 272.205 114.966C270.41 115.358 268.758 116.244 267.43 117.525C267.067 117.87 266.778 118.286 266.581 118.749C266.338 119.382 266.37 120.094 266.152 120.736C265.909 121.452 265.37 122.039 265.152 122.763C264.988 123.308 265.011 123.915 264.736 124.413C265.913 125.442 266.909 126.816 268.086 127.846C268.865 128.528 269.68 129.265 269.973 130.264C270.105 130.88 270.163 131.51 270.147 132.14C270.293 135.151 271.908 137.883 273.714 140.282C274.209 140.994 274.801 141.631 275.473 142.174C276.386 142.802 277.423 143.223 278.512 143.407C280.568 143.833 282.685 143.831 284.784 143.81C286.953 143.788 289.161 143.741 291.223 143.06C292.272 142.763 293.216 142.17 293.944 141.35C294.792 140.297 295.123 138.773 296.28 138.082C296.561 137.953 296.826 137.792 297.072 137.604C297.307 137.346 297.474 137.031 297.557 136.689C297.961 135.41 298.184 134.08 298.219 132.738C298.189 131.932 298.243 131.126 298.38 130.332C298.58 129.632 298.872 128.962 299.247 128.341L301.645 123.942C301.84 123.585 301.789 123.059 301.807 122.651C301.789 122.063 301.611 121.491 301.291 120.999C299.736 118.219 297.293 116.056 294.362 114.865C294.131 114.786 293.912 114.677 293.708 114.541C293.468 114.337 293.265 114.092 293.109 113.818C292.473 112.848 291.695 111.755 290.546 111.816Z" fill="#D0CDE1"/>
<path d="M260.661 135.771C260.188 136.934 259.841 138.145 259.625 139.383C259.394 141.094 259.666 142.835 260.409 144.39C261.701 147.08 264.245 148.905 266.041 151.282C267.709 153.49 268.703 156.136 270.147 158.5C269.896 157.898 270.202 157.202 270.614 156.699C271.026 156.196 271.553 155.778 271.855 155.201C272.061 154.753 272.191 154.274 272.238 153.783C272.454 152.317 272.57 150.725 271.831 149.445C271.275 148.482 270.314 147.842 269.554 147.034C268.793 146.212 268.234 145.221 267.922 144.141C267.609 143.06 267.552 141.921 267.755 140.814C267.901 140.052 268.171 139.32 268.372 138.571C268.622 137.564 268.811 136.543 268.938 135.514L269.845 129.216C270.086 127.541 270.29 125.688 269.352 124.286C269.169 123.993 268.916 123.75 268.616 123.582C268.368 123.467 268.104 123.392 267.833 123.359C266.847 123.196 265.51 122.759 265.028 123.828C264.447 125.119 264.042 126.525 263.555 127.856L260.661 135.771Z" fill="#D0CDE1"/>
<path d="M295.21 139.216C295.21 139.216 283.243 141.558 280.425 141.558H275.392C275.392 141.558 273.58 144.815 273.58 148.073C273.58 151.331 261.704 196.937 261.704 196.937C261.704 196.937 250.431 234.4 262.911 234.603C275.392 234.807 283.243 235.418 283.444 231.142C283.645 226.867 284.853 171.691 284.853 171.691L286.732 200.062C287.237 207.086 286.698 214.146 285.132 221.008C284.231 224.855 284.371 229.072 288.879 229.921C297.535 231.549 308.406 230.124 308.406 227.07C308.406 224.016 302.769 156.217 302.769 156.217C302.769 156.217 299.951 146.241 298.341 145.426C296.73 144.612 295.21 139.216 295.21 139.216Z" fill="#2F2E41"/>
<path d="M257.677 242.544L262.106 240.915L265.126 233.178L268.346 232.771C268.346 232.771 266.535 236.639 265.528 237.25C264.522 237.861 262.911 242.951 262.911 242.951C262.911 242.951 263.717 244.987 259.892 245.801C256.067 246.616 253.249 247.227 253.249 247.227C253.249 247.227 252.846 246.412 254.658 244.376C256.47 242.34 258.585 238.913 258.585 238.913L257.677 242.544Z" fill="#2F2E41"/>
<path d="M284.853 233.178L284.048 239.286C284.048 239.286 286.262 242.544 286.866 242.544C287.47 242.544 290.691 239.693 290.691 239.693C290.691 239.693 290.49 236.639 290.691 235.825C290.892 235.011 291.295 231.142 290.691 230.939C290.087 230.735 290.087 235.476 290.087 235.476L287.47 238.268L284.947 236.738L284.853 233.178Z" fill="#2F2E41"/>
<path d="M285.558 101.957C289.894 101.957 293.409 100.043 293.409 97.6819C293.409 95.3205 289.894 93.4062 285.558 93.4062C281.222 93.4062 277.707 95.3205 277.707 97.6819C277.707 100.043 281.222 101.957 285.558 101.957Z" fill="#2F2E41"/>
<path d="M0 181.587C0 205.572 14.877 224.981 33.262 224.981L0 181.587Z" fill="#3F3D56"/>
<path d="M33.262 224.98C33.262 200.726 49.8638 181.1 70.3804 181.1L33.262 224.98Z" fill="#6C63FF"/>
<path d="M12.0515 183.762C12.0515 206.545 21.5383 224.981 33.2621 224.981L12.0515 183.762Z" fill="#6C63FF"/>
<path d="M33.262 224.98C33.262 193.989 52.4511 168.911 76.1651 168.911L33.262 224.98Z" fill="#3F3D56"/>
<path d="M26.2646 225.286C26.2646 225.286 30.9818 225.14 32.4034 224.116C33.825 223.092 39.6595 221.869 40.0121 223.511C40.3648 225.153 47.1011 231.678 41.7755 231.722C36.4499 231.765 29.4012 230.883 27.9823 230.008C26.5634 229.134 26.2646 225.286 26.2646 225.286Z" fill="#A8A8A8"/>
<path opacity="0.2" d="M41.8705 231.15C36.5449 231.193 29.4962 230.311 28.0773 229.437C26.9968 228.771 26.5662 226.382 26.4221 225.28C26.3223 225.285 26.2646 225.286 26.2646 225.286C26.2646 225.286 26.5634 229.134 27.9823 230.008C29.4012 230.883 36.4499 231.765 41.7755 231.722C43.3128 231.709 43.8438 231.156 43.8146 230.337C43.601 230.832 43.0147 231.141 41.8705 231.15Z" fill="black"/>
</g>
<defs>
<clipPath id="clip0_839_4115">
<rect width="384" height="284" fill="white"/>
</clipPath>
</defs>
</svg>
