<svg width="369" height="326" viewBox="0 0 369 326" fill="none" xmlns="http://www.w3.org/2000/svg">
<g clip-path="url(#clip0_301_174)">
<path d="M258.571 324.9C258.187 325.27 257.788 325.635 257.384 326H211.284C210.905 325.644 210.531 325.279 210.157 324.9C210.142 324.886 210.127 324.867 210.112 324.853C205.103 319.777 201.95 312.398 199.984 304.617C199.858 304.146 199.747 303.669 199.635 303.189C199.12 301.002 198.701 298.792 198.357 296.6C198.296 296.221 198.236 295.842 198.185 295.463C197.72 292.314 197.407 289.217 197.205 286.309C197.179 285.934 197.154 285.569 197.129 285.204C196.759 279.414 196.755 273.61 197.119 267.82C197.119 267.82 197.179 267.82 197.296 267.825C197.634 267.839 198.448 267.871 199.646 267.936C202.946 268.121 209.172 268.583 216.494 269.674C216.894 269.734 217.298 269.799 217.702 269.864C223.896 270.8 230.006 272.154 235.981 273.914C236.355 274.029 236.724 274.145 237.098 274.26L237.103 274.283L241.687 295.324L243.587 276.595C245.098 277.219 246.569 277.885 247.979 278.597C248.373 278.796 248.757 278.995 249.136 279.198C252.36 280.869 255.286 282.98 257.813 285.458C272.848 300.701 269.629 314.326 258.571 324.9Z" fill="#F2F2F2"/>
<path d="M239.307 298.219L240.106 299.029C249.344 308.488 254.857 317.267 256.555 325.252C256.582 325.368 256.601 325.484 256.628 325.6L256.037 325.702L255.467 325.794C253.734 317.088 247.28 308.089 239.225 299.837C238.968 299.569 238.707 299.297 238.438 299.032C234.994 295.566 231.292 292.241 227.548 289.132C227.261 288.89 226.965 288.646 226.669 288.403C221.705 284.323 216.71 280.632 212.256 277.521C211.942 277.299 211.624 277.082 211.31 276.868C203.747 271.63 197.879 268.158 196.571 267.397C196.413 267.302 196.324 267.252 196.304 267.239L196.613 266.787L196.614 266.78L196.928 266.324C196.948 266.336 197.248 266.503 197.79 266.827C199.826 268.027 205.298 271.332 212.105 276.029C212.411 276.243 212.729 276.46 213.043 276.681C216.66 279.203 220.617 282.092 224.613 285.255C225.618 286.047 226.598 286.839 227.553 287.63C227.853 287.869 228.149 288.113 228.436 288.355C232.484 291.716 236.107 295.003 239.307 298.219Z" fill="white"/>
<path d="M216.929 268.777C216.793 269.078 216.646 269.378 216.495 269.674C215.34 271.959 213.864 274.097 212.103 276.031C211.845 276.308 211.582 276.591 211.31 276.868C210.572 277.612 209.787 278.332 208.954 279.027C205.55 281.847 201.514 283.955 197.129 285.204C196.987 285.245 196.851 285.287 196.709 285.324C196.735 285.689 196.76 286.05 196.785 286.424C196.927 286.387 197.063 286.35 197.205 286.309C201.858 285.025 206.141 282.811 209.743 279.827C210.624 279.099 211.462 278.329 212.255 277.52C212.527 277.247 212.79 276.965 213.043 276.683C214.926 274.613 216.493 272.319 217.702 269.864C217.844 269.568 217.985 269.272 218.122 268.971C217.718 268.907 217.318 268.842 216.929 268.777Z" fill="white"/>
<path d="M236.189 273.095C236.128 273.368 236.057 273.641 235.981 273.914C234.611 279.111 231.694 283.859 227.552 287.631C227.264 287.894 226.971 288.153 226.668 288.403C226.582 288.482 226.486 288.565 226.395 288.639C222.627 291.75 218.101 293.993 213.194 295.18C208.287 296.367 203.141 296.464 198.185 295.463C198.069 295.444 197.948 295.417 197.832 295.394C197.892 295.773 197.948 296.156 198.013 296.535C198.13 296.559 198.241 296.582 198.357 296.6C203.439 297.562 208.697 297.415 213.706 296.171C218.714 294.926 223.331 292.62 227.183 289.439C227.304 289.337 227.431 289.24 227.547 289.134C227.85 288.875 228.143 288.616 228.437 288.357C232.675 284.477 235.672 279.61 237.104 274.283C237.179 274.006 237.25 273.729 237.316 273.451C236.942 273.331 236.568 273.211 236.189 273.095Z" fill="white"/>
<path d="M247.979 277.816C247.984 278.075 247.984 278.338 247.979 278.597C247.894 285.904 244.797 292.912 239.307 298.218C239.024 298.496 238.73 298.764 238.438 299.032C238.119 299.314 237.801 299.596 237.472 299.864C232.388 304.056 225.966 306.642 219.154 307.241C212.341 307.839 205.498 306.419 199.635 303.188C199.535 303.141 199.437 303.088 199.342 303.031C199.464 303.521 199.585 304.002 199.716 304.483C199.807 304.529 199.893 304.575 199.984 304.617C206.017 307.694 212.951 308.968 219.815 308.26C226.679 307.552 233.128 304.898 238.261 300.669C238.589 300.396 238.918 300.123 239.226 299.837C239.529 299.573 239.817 299.305 240.105 299.027C245.673 293.655 248.887 286.598 249.136 279.198C249.146 278.948 249.151 278.699 249.151 278.449C248.767 278.232 248.373 278.024 247.979 277.816Z" fill="white"/>
<path d="M145.812 76.5522H56.9754C56.2361 76.5515 55.5274 76.2825 55.0046 75.8042C54.4819 75.326 54.1878 74.6776 54.187 74.0013V12.2914C54.1878 11.6151 54.4818 10.9666 55.0046 10.4884C55.5273 10.0101 56.2361 9.74104 56.9754 9.74023H166.017C166.757 9.74104 167.465 10.0101 167.988 10.4884C168.511 10.9666 168.805 11.6151 168.806 12.2914V55.5161C168.799 61.0933 166.374 66.4403 162.063 70.3839C157.752 74.3276 151.908 76.5459 145.812 76.5522Z" fill="white"/>
<path d="M145.811 76.7834H56.9752C56.1689 76.7825 55.396 76.4891 54.8258 75.9675C54.2557 75.446 53.935 74.7388 53.9341 74.0013V12.2914C53.935 11.5537 54.2557 10.8466 54.8258 10.325C55.3959 9.80335 56.1689 9.50992 56.9752 9.50903H166.017C166.823 9.50988 167.596 9.8033 168.166 10.3249C168.737 10.8465 169.057 11.5537 169.058 12.2914V55.5161C169.051 61.1545 166.6 66.5602 162.242 70.5472C157.883 74.5342 151.975 76.777 145.811 76.7834ZM56.9752 10.4337C56.4368 10.4343 55.9208 10.6302 55.5401 10.9785C55.1595 11.3267 54.9454 11.7989 54.9448 12.2914V74.0013C54.9454 74.4937 55.1595 74.9658 55.5402 75.3141C55.9208 75.6623 56.4369 75.8582 56.9752 75.8587H145.811C151.707 75.8526 157.359 73.7074 161.527 69.8938C165.696 66.0801 168.041 60.9094 168.047 55.5161V12.2914C168.047 11.7989 167.833 11.3267 167.452 10.9785C167.071 10.6302 166.555 10.4343 166.017 10.4337H56.9752Z" fill="#CCCCCC"/>
<path d="M144.463 30.5806H78.5303C77.925 30.5806 77.3445 30.3607 76.9165 29.9691C76.4885 29.5775 76.248 29.0465 76.248 28.4927C76.248 27.939 76.4885 27.4079 76.9165 27.0163C77.3445 26.6248 77.925 26.4048 78.5303 26.4048H144.463C145.067 26.4056 145.647 26.626 146.074 27.0174C146.501 27.4089 146.741 27.9395 146.741 28.4927C146.741 29.0459 146.501 29.5765 146.074 29.968C145.647 30.3595 145.067 30.5798 144.463 30.5806Z" fill="#CCCCCC"/>
<path d="M144.463 44.9642H78.5303C77.925 44.9642 77.3445 44.7442 76.9165 44.3526C76.4885 43.9611 76.248 43.43 76.248 42.8763C76.248 42.3225 76.4885 41.7914 76.9165 41.3999C77.3445 41.0083 77.925 40.7883 78.5303 40.7883H144.463C145.068 40.7883 145.648 41.0083 146.076 41.3999C146.504 41.7914 146.745 42.3225 146.745 42.8763C146.745 43.43 146.504 43.9611 146.076 44.3526C145.648 44.7442 145.068 44.9642 144.463 44.9642Z" fill="#CCCCCC"/>
<path d="M144.463 59.7589H78.5303C77.925 59.7589 77.3445 59.5389 76.9165 59.1473C76.4885 58.7558 76.248 58.2247 76.248 57.6709C76.248 57.1172 76.4885 56.5861 76.9165 56.1945C77.3445 55.803 77.925 55.583 78.5303 55.583H144.463C145.068 55.583 145.648 55.803 146.076 56.1945C146.504 56.5861 146.745 57.1172 146.745 57.6709C146.745 58.2247 146.504 58.7558 146.076 59.1473C145.648 59.5389 145.068 59.7589 144.463 59.7589Z" fill="#CCCCCC"/>
<path d="M165.199 24.9368C172.726 24.9368 178.828 19.3545 178.828 12.4684C178.828 5.5823 172.726 0 165.199 0C157.672 0 151.57 5.5823 151.57 12.4684C151.57 19.3545 157.672 24.9368 165.199 24.9368Z" fill="#6C63FF"/>
<path d="M163.34 18.9577C163.104 18.9577 162.872 18.9076 162.662 18.8112C162.451 18.7149 162.268 18.5751 162.127 18.4028L158.409 13.8673C158.289 13.7216 158.202 13.5558 158.153 13.3794C158.103 13.2029 158.093 13.0193 158.121 12.839C158.149 12.6587 158.216 12.4853 158.317 12.3285C158.418 12.1718 158.553 12.0349 158.712 11.9256C158.871 11.8164 159.052 11.7369 159.245 11.6917C159.438 11.6465 159.639 11.6365 159.836 11.6622C160.033 11.688 160.223 11.749 160.394 11.8418C160.565 11.9346 160.715 12.0574 160.834 12.2031L163.267 15.1701L169.515 6.59662C169.738 6.29056 170.084 6.07808 170.479 6.00594C170.873 5.9338 171.282 6.0079 171.617 6.21195C171.952 6.41599 172.184 6.73327 172.263 7.09397C172.342 7.45467 172.261 7.82926 172.037 8.13532L164.601 18.34C164.467 18.5246 164.286 18.677 164.074 18.7844C163.861 18.8918 163.624 18.951 163.382 18.9573C163.368 18.9575 163.354 18.9577 163.34 18.9577Z" fill="white"/>
<path d="M113.022 130.15H24.1861C18.0897 130.144 12.2451 127.925 7.93433 123.982C3.62357 120.038 1.19877 114.691 1.19189 109.114V65.8888C1.19276 65.2125 1.48685 64.564 2.00963 64.0857C2.53241 63.6075 3.24121 63.3384 3.98054 63.3376H113.022C113.761 63.3384 114.47 63.6075 114.993 64.0857C115.516 64.564 115.81 65.2125 115.811 65.8888V127.599C115.81 128.275 115.516 128.924 114.993 129.402C114.47 129.88 113.761 130.149 113.022 130.15Z" fill="white"/>
<path d="M113.022 130.381H24.1863C18.023 130.375 12.1141 128.132 7.75603 124.145C3.39792 120.158 0.946461 114.752 0.939453 109.114V65.889C0.940367 65.1514 1.26109 64.4442 1.83125 63.9225C2.40141 63.4009 3.17445 63.1075 3.98078 63.1067H113.022C113.829 63.1075 114.602 63.4009 115.172 63.9225C115.742 64.4442 116.063 65.1514 116.064 65.889V127.599C116.063 128.337 115.742 129.044 115.172 129.565C114.602 130.087 113.829 130.38 113.022 130.381ZM3.98078 64.0314C3.44243 64.0319 2.92632 64.2279 2.54565 64.5761C2.16498 64.9244 1.95083 65.3965 1.95019 65.889V109.114C1.95684 114.507 4.30171 119.678 8.47035 123.492C12.639 127.305 18.291 129.45 24.1863 129.457H113.022C113.561 129.456 114.077 129.26 114.458 128.912C114.838 128.564 115.052 128.091 115.053 127.599V65.889C115.052 65.3965 114.838 64.9244 114.458 64.5761C114.077 64.2279 113.561 64.0319 113.022 64.0314H3.98078Z" fill="#CCCCCC"/>
<path d="M91.468 84.1783H25.5357C24.9304 84.1783 24.3499 83.9583 23.9219 83.5668C23.4939 83.1752 23.2534 82.6441 23.2534 82.0904C23.2534 81.5366 23.4939 81.0056 23.9219 80.614C24.3499 80.2224 24.9304 80.0024 25.5357 80.0024H91.468C92.0733 80.0024 92.6538 80.2224 93.0818 80.614C93.5098 81.0056 93.7502 81.5366 93.7502 82.0904C93.7502 82.6441 93.5098 83.1752 93.0818 83.5668C92.6538 83.9583 92.0733 84.1783 91.468 84.1783Z" fill="#CCCCCC"/>
<path d="M91.468 98.5618H25.5357C24.9304 98.5618 24.3499 98.3419 23.9219 97.9503C23.4939 97.5587 23.2534 97.0277 23.2534 96.4739C23.2534 95.9202 23.4939 95.3891 23.9219 94.9975C24.3499 94.606 24.9304 94.386 25.5357 94.386H91.468C92.0733 94.386 92.6538 94.606 93.0818 94.9975C93.5098 95.3891 93.7502 95.9202 93.7502 96.4739C93.7502 97.0277 93.5098 97.5587 93.0818 97.9503C92.6538 98.3419 92.0733 98.5618 91.468 98.5618Z" fill="#CCCCCC"/>
<path d="M91.468 113.357H25.5357C24.9304 113.357 24.3499 113.137 23.9219 112.745C23.4939 112.353 23.2534 111.822 23.2534 111.269C23.2534 110.715 23.4939 110.184 23.9219 109.792C24.3499 109.401 24.9304 109.181 25.5357 109.181H91.468C92.0733 109.181 92.6538 109.401 93.0818 109.792C93.5098 110.184 93.7502 110.715 93.7502 111.269C93.7502 111.822 93.5098 112.353 93.0818 112.745C92.6538 113.137 92.0733 113.357 91.468 113.357Z" fill="#CCCCCC"/>
<path d="M113.146 79.0296C120.673 79.0296 126.775 73.4473 126.775 66.5612C126.775 59.6751 120.673 54.0928 113.146 54.0928C105.619 54.0928 99.5171 59.6751 99.5171 66.5612C99.5171 73.4473 105.619 79.0296 113.146 79.0296Z" fill="#6C63FF"/>
<path d="M111.287 73.0505C111.051 73.0505 110.819 73.0003 110.609 72.904C110.398 72.8077 110.215 72.6679 110.074 72.4956L106.356 67.9601C106.236 67.8144 106.15 67.6486 106.1 67.4721C106.051 67.2957 106.04 67.1121 106.068 66.9318C106.096 66.7515 106.163 66.578 106.264 66.4213C106.366 66.2646 106.5 66.1277 106.659 66.0184C106.818 65.9091 107 65.8296 107.193 65.7844C107.385 65.7392 107.586 65.7292 107.783 65.755C107.98 65.7808 108.17 65.8418 108.341 65.9346C108.512 66.0274 108.662 66.1502 108.782 66.2959L111.214 69.2629L117.462 60.6894C117.685 60.3833 118.032 60.1709 118.426 60.0987C118.82 60.0266 119.23 60.1007 119.564 60.3047C119.899 60.5088 120.131 60.826 120.21 61.1867C120.289 61.5474 120.208 61.922 119.985 62.2281L112.548 72.4328C112.414 72.6174 112.233 72.7697 112.021 72.8771C111.809 72.9845 111.571 73.0438 111.329 73.05C111.315 73.0503 111.301 73.0505 111.287 73.0505Z" fill="white"/>
<path d="M223.71 187.67H99.4082C93.3119 187.664 87.4672 185.446 83.1565 181.502C78.8457 177.558 76.4209 172.211 76.4141 166.634V103.057C76.4152 102.185 76.7942 101.349 77.4681 100.733C78.142 100.116 79.0556 99.7696 80.0086 99.7686H223.71C224.663 99.7696 225.577 100.116 226.25 100.733C226.924 101.349 227.303 102.185 227.304 103.057V184.381C227.303 185.253 226.924 186.089 226.25 186.706C225.577 187.322 224.663 187.669 223.71 187.67Z" fill="white"/>
<path d="M223.71 187.901H99.408C93.2447 187.895 87.3358 185.652 82.9777 181.665C78.6196 177.678 76.1681 172.272 76.1611 166.634V103.057C76.1623 102.124 76.568 101.229 77.2892 100.569C78.0105 99.9096 78.9884 99.5384 80.0084 99.5374H223.71C224.73 99.5384 225.708 99.9096 226.429 100.569C227.15 101.229 227.556 102.124 227.557 103.057V184.381C227.556 185.315 227.15 186.209 226.429 186.869C225.708 187.529 224.73 187.9 223.71 187.901ZM80.0084 100.462C79.2564 100.463 78.5354 100.736 78.0036 101.223C77.4719 101.709 77.1727 102.369 77.1719 103.057V166.634C77.1785 172.027 79.5234 177.198 83.692 181.012C87.8607 184.825 93.5126 186.971 99.408 186.977H223.71C224.462 186.976 225.183 186.702 225.714 186.216C226.246 185.729 226.545 185.069 226.546 184.381V103.057C226.545 102.369 226.246 101.709 225.714 101.223C225.183 100.737 224.462 100.463 223.71 100.462H80.0084Z" fill="#CCCCCC"/>
<path d="M195.304 127.16H108.414C108.019 127.16 107.628 127.09 107.262 126.951C106.897 126.813 106.565 126.611 106.285 126.355C106.005 126.1 105.784 125.796 105.632 125.462C105.481 125.128 105.403 124.77 105.403 124.408C105.403 124.047 105.481 123.689 105.632 123.355C105.784 123.02 106.005 122.717 106.285 122.461C106.565 122.206 106.897 122.003 107.262 121.865C107.628 121.727 108.019 121.656 108.414 121.657H195.304C195.699 121.656 196.09 121.727 196.456 121.865C196.821 122.003 197.153 122.206 197.433 122.461C197.713 122.717 197.935 123.02 198.086 123.355C198.237 123.689 198.315 124.047 198.315 124.408C198.315 124.77 198.237 125.128 198.086 125.462C197.935 125.796 197.713 126.1 197.433 126.355C197.153 126.611 196.821 126.813 196.456 126.951C196.09 127.09 195.699 127.16 195.304 127.16Z" fill="#CCCCCC"/>
<path d="M195.304 146.115H108.414C108.019 146.116 107.628 146.045 107.262 145.907C106.897 145.769 106.565 145.566 106.285 145.311C106.005 145.055 105.784 144.752 105.632 144.417C105.481 144.083 105.403 143.725 105.403 143.364C105.403 143.002 105.481 142.644 105.632 142.31C105.784 141.976 106.005 141.672 106.285 141.417C106.565 141.161 106.897 140.959 107.262 140.82C107.628 140.682 108.019 140.612 108.414 140.612H195.304C196.101 140.612 196.866 140.902 197.43 141.418C197.994 141.934 198.311 142.634 198.311 143.364C198.311 144.093 197.994 144.793 197.43 145.309C196.866 145.825 196.101 146.115 195.304 146.115Z" fill="#CCCCCC"/>
<path d="M195.304 165.612H108.414C107.617 165.612 106.852 165.322 106.288 164.806C105.724 164.29 105.407 163.59 105.407 162.861C105.407 162.131 105.724 161.431 106.288 160.915C106.852 160.399 107.617 160.109 108.414 160.109H195.304C195.699 160.109 196.09 160.179 196.456 160.318C196.821 160.456 197.153 160.658 197.433 160.914C197.713 161.169 197.935 161.473 198.086 161.807C198.237 162.141 198.315 162.499 198.315 162.861C198.315 163.222 198.237 163.58 198.086 163.915C197.935 164.249 197.713 164.552 197.433 164.808C197.153 165.063 196.821 165.266 196.456 165.404C196.09 165.542 195.699 165.613 195.304 165.612Z" fill="#CCCCCC"/>
<path d="M224.161 120.529C233.69 120.529 241.414 113.463 241.414 104.746C241.414 96.0287 233.69 88.9622 224.161 88.9622C214.633 88.9622 206.909 96.0287 206.909 104.746C206.909 113.463 214.633 120.529 224.161 120.529Z" fill="#6C63FF"/>
<path d="M221.808 112.96C221.51 112.96 221.216 112.897 220.95 112.775C220.683 112.653 220.451 112.476 220.273 112.258L215.566 106.516C215.415 106.332 215.305 106.122 215.242 105.899C215.18 105.675 215.166 105.443 215.201 105.215C215.237 104.987 215.322 104.767 215.45 104.569C215.578 104.37 215.748 104.197 215.95 104.059C216.151 103.92 216.381 103.82 216.625 103.762C216.869 103.705 217.123 103.693 217.373 103.725C217.622 103.758 217.862 103.835 218.079 103.952C218.296 104.07 218.485 104.225 218.637 104.41L221.716 108.166L229.625 97.3127C229.907 96.9259 230.346 96.6575 230.845 96.5666C231.344 96.4756 231.862 96.5695 232.285 96.8276C232.708 97.0857 233.002 97.4869 233.102 97.943C233.202 98.3992 233.1 98.873 232.818 99.2605L223.405 112.178C223.235 112.412 223.005 112.605 222.737 112.741C222.468 112.877 222.168 112.952 221.861 112.96C221.843 112.96 221.826 112.96 221.808 112.96Z" fill="white"/>
<path d="M268.857 313.399L261.837 315.547L249.442 291.8L259.802 288.63L268.857 313.399Z" fill="#FFB6B6"/>
<path d="M272.923 319.076L250.29 324.614L250.194 324.352C249.407 322.199 249.583 321.282 250.691 319.251C251.233 318.25 251.986 317.358 252.907 316.626C253.828 315.894 254.898 315.336 256.057 314.984L256.057 314.984L259.142 310.85L267.905 311.359L269.881 310.755L272.923 319.076Z" fill="#2F2E41"/>
<path d="M286.199 319.437H278.798L275.276 293.32L286.2 293.32L286.199 319.437Z" fill="#FFB6B6"/>
<path d="M288.086 324.614L264.221 324.613V324.337C264.221 322.067 265.188 321.32 266.942 319.715C267.803 318.923 268.826 318.296 269.954 317.869C271.081 317.441 272.29 317.223 273.51 317.226H273.511L277.87 314.2L286.004 317.226L288.087 317.227L288.086 324.614Z" fill="#2F2E41"/>
<path d="M229.87 110.181C230.022 110.891 230.343 111.561 230.809 112.145C231.275 112.728 231.875 113.212 232.568 113.56C233.26 113.909 234.028 114.114 234.816 114.162C235.605 114.21 236.395 114.099 237.132 113.837L245.676 121.998L252.364 118.457L240.12 107.087C239.557 105.984 238.572 105.109 237.35 104.626C236.129 104.144 234.756 104.088 233.493 104.469C232.229 104.85 231.163 105.643 230.495 106.695C229.827 107.748 229.605 108.988 229.87 110.181Z" fill="#FFB6B6"/>
<path d="M285.168 151.216L289.02 147.57L266.744 128.696L244.325 110.382L238.115 118.409L261.609 138.472L285.168 151.216Z" fill="#E4E4E4"/>
<path d="M271.481 275.076C271.481 270.494 271.58 267.225 271.66 264.599C271.893 256.914 271.955 254.848 268.741 241.613L267.915 238.214L263.046 251.577C261.491 255.839 260.696 260.304 260.692 264.797L268.2 306.006H252.856L241.618 261.456L241.612 247.828C240.622 246.891 240.069 245.638 240.069 244.335C240.069 243.031 240.622 241.779 241.612 240.841L245.346 220.425L249.125 192.91H290.518C290.518 192.91 297.823 206.763 290.564 220.503L290.563 275.093L286.812 312.837H275.233L271.481 275.076Z" fill="#2F2E41"/>
<path d="M287.988 196.241L249.27 193.289L249.069 193.274L252.159 142.393C252.34 139.194 253.567 136.118 255.681 133.564C257.795 131.01 260.697 129.095 264.014 128.067V124.506C264.015 123.625 264.398 122.78 265.079 122.157C265.761 121.534 266.684 121.183 267.648 121.182H273.305C273.98 121.18 274.642 121.351 275.217 121.676C275.791 122.001 276.255 122.466 276.555 123.02L279.321 128.081L289.781 135.737C294.948 139.518 290.789 177.428 290.566 179.429L293.096 191.001C293.235 191.638 293.218 192.295 293.046 192.925C292.875 193.555 292.553 194.142 292.104 194.644C291.655 195.147 291.089 195.552 290.448 195.831C289.808 196.11 289.107 196.255 288.398 196.257C288.262 196.257 288.125 196.251 287.988 196.241Z" fill="#E4E4E4"/>
<path d="M246.986 209.676C247.598 209.218 248.093 208.644 248.436 207.993C248.779 207.341 248.962 206.629 248.972 205.906C248.982 205.183 248.818 204.467 248.493 203.808C248.167 203.15 247.688 202.564 247.088 202.093L250.93 191.353L244.365 187.625L239.173 202.863C238.375 203.836 237.995 205.044 238.105 206.257C238.216 207.47 238.808 208.604 239.772 209.444C240.735 210.284 242.001 210.771 243.331 210.814C244.66 210.857 245.961 210.452 246.986 209.676Z" fill="#FFB6B6"/>
<path d="M260.488 136.66L255.158 135.034L247.459 166.458L240.368 197.709L251.033 199.145L259.303 165.916L260.488 136.66Z" fill="#E4E4E4"/>
<path d="M266.309 117.93C273.332 117.93 279.025 112.721 279.025 106.297C279.025 99.8717 273.332 94.6633 266.309 94.6633C259.286 94.6633 253.593 99.8717 253.593 106.297C253.593 112.721 259.286 117.93 266.309 117.93Z" fill="#FFB6B6"/>
<path d="M249.199 100.599C249.316 99.497 249.662 98.4249 250.217 97.4405C250.811 98.623 252.666 98.8282 253.935 98.2396C255.204 97.6511 256.054 96.5332 256.961 95.5303C259.354 92.8838 262.646 90.737 266.375 90.346C270.106 89.955 274.217 91.6776 275.626 94.8611C276.259 94.0577 277.608 93.9684 278.563 94.4352C279.485 94.9671 280.204 95.7469 280.622 96.6677C281.561 98.4298 282.092 100.35 282.181 102.309C282.27 104.267 281.915 106.222 281.14 108.049C279.569 111.685 275.69 116.584 271.689 117.956C269.259 118.789 266.805 117.723 264.221 117.956C264.357 115.376 264.903 112.193 265.039 109.614C265.113 108.201 265.124 106.62 264.069 105.586C263.745 105.305 263.358 105.093 262.935 104.964C262.512 104.835 262.063 104.792 261.619 104.84C261.176 104.887 260.75 105.023 260.371 105.237C259.991 105.452 259.668 105.741 259.424 106.082C259.293 105.28 258.997 104.508 258.551 103.807C258.323 103.46 257.992 103.177 257.598 102.992C257.203 102.807 256.76 102.727 256.318 102.76C255.239 102.922 254.573 103.935 253.582 104.359C253.02 104.566 252.402 104.61 251.812 104.486C251.222 104.362 250.687 104.076 250.279 103.666C249.882 103.248 249.582 102.761 249.397 102.234C249.212 101.707 249.144 101.151 249.199 100.599Z" fill="#2F2E41"/>
<path opacity="0.1" d="M267.955 165.775L253.021 193.1H264.221L267.955 165.775Z" fill="black"/>
<path d="M368.049 325.45C368.049 325.522 368.034 325.594 368.003 325.661C367.973 325.728 367.929 325.788 367.873 325.839C367.817 325.891 367.751 325.931 367.678 325.959C367.605 325.986 367.526 326 367.447 326H82.2742C82.1147 326 81.9618 325.942 81.849 325.839C81.7362 325.736 81.6729 325.596 81.6729 325.45C81.6729 325.304 81.7362 325.164 81.849 325.061C81.9618 324.958 82.1147 324.9 82.2742 324.9H367.447C367.526 324.899 367.605 324.914 367.678 324.941C367.751 324.969 367.817 325.009 367.873 325.06C367.929 325.111 367.973 325.172 368.003 325.239C368.034 325.306 368.049 325.378 368.049 325.45Z" fill="#CACACA"/>
</g>
<defs>
<clipPath id="clip0_301_174">
<rect width="367.109" height="326" fill="white" transform="translate(0.939453)"/>
</clipPath>
</defs>
</svg>
