<svg width="28" height="28" viewBox="0 0 28 28" fill="none" xmlns="http://www.w3.org/2000/svg">
<g clip-path="url(#clip0_281_403)">
<path d="M14 27.125C21.2487 27.125 27.125 21.2487 27.125 14C27.125 6.75126 21.2487 0.875 14 0.875C6.75126 0.875 0.875 6.75126 0.875 14C0.875 21.2487 6.75126 27.125 14 27.125Z" fill="#4FD1D9"/>
<path d="M10.1936 8.92498C11.1998 7.87498 12.5123 7.34998 14.0873 7.34998C16.1873 7.34998 17.7623 8.04998 18.7248 9.44998C19.2498 10.2375 19.5561 11.025 19.5998 11.8125H16.9311C16.7561 11.2 16.5373 10.7625 16.2748 10.4562C15.7936 9.88748 15.0936 9.62498 14.1748 9.62498C13.2123 9.62498 12.4686 10.0187 11.9436 10.8062C11.4186 11.5937 11.1123 12.6875 11.1123 14.0875C11.1123 15.5312 11.4186 16.5812 11.9873 17.2812C12.5561 17.9812 13.2998 18.3312 14.1748 18.3312C15.0936 18.3312 15.7936 18.025 16.2748 17.4125C16.5373 17.1062 16.7561 16.5812 16.9311 15.925H19.5561C19.3373 17.325 18.7686 18.4187 17.8061 19.2937C16.8873 20.1687 15.6623 20.6062 14.2186 20.6062C12.4248 20.6062 10.9811 20.0375 9.97485 18.8562C8.92485 17.675 8.4436 16.0562 8.4436 14C8.39985 11.8125 9.01235 10.1062 10.1936 8.92498Z" fill="white"/>
</g>
<defs>
<clipPath id="clip0_281_403">
<rect width="28" height="28" fill="white"/>
</clipPath>
</defs>
</svg>
