<svg width="44" height="38" viewBox="0 0 44 38" fill="none" xmlns="http://www.w3.org/2000/svg">
<path d="M17.9018 33.201L15.6548 8H40.3448L38.0948 33.197L27.9848 36L17.9018 33.201Z" fill="#E44F26"/>
<path d="M28 33.858L36.17 31.593L38.092 10.061H28V33.858Z" fill="#F1662A"/>
<path d="M28 19.407H23.91L23.628 16.242H28V13.151H20.25L20.324 13.981L21.083 22.498H28V19.407ZM28 27.434L27.986 27.438L24.544 26.509L24.324 24.044H21.221L21.654 28.896L27.986 30.654L28 30.65V27.434Z" fill="#EBEBEB"/>
<path d="M27.9888 19.407V22.498H31.7948L31.4368 26.507L27.9888 27.437V30.653L34.3258 28.896L34.3718 28.374L35.0978 20.237L35.1738 19.407H27.9888ZM27.9888 13.151V16.242H35.4548L35.5168 15.548L35.6578 13.981L35.7318 13.151H27.9888Z" fill="white"/>
<path d="M5.90176 27.201L3.65576 2H28.3438L26.0948 27.197L15.9848 30L5.90176 27.201Z" fill="#1572B6"/>
<path d="M16 27.858L24.17 25.593L26.092 4.06097H16V27.858Z" fill="#33A9DC"/>
<path d="M16 13.191H20.09L20.372 10.026H16V6.935H23.75L23.676 7.764L22.917 16.282H16V13.191Z" fill="white"/>
<path d="M16.0192 21.218L16.0052 21.222L12.5632 20.292L12.3432 17.827H9.24023L9.67323 22.68L16.0042 24.438L16.0192 24.434V21.218Z" fill="#EBEBEB"/>
<path d="M19.8268 16.151L19.4548 20.29L16.0078 21.22V24.436L22.3438 22.68L22.3908 22.158L22.9278 16.151H19.8268Z" fill="white"/>
<path d="M16.0111 6.935V10.026H8.54507L8.48307 9.331L8.34207 7.764L8.26807 6.935H16.0111ZM16.0001 13.191V16.282H12.6011L12.5391 15.587L12.3991 14.02L12.3251 13.191H16.0001Z" fill="#EBEBEB"/>
</svg>
