<svg width="19" height="19" viewBox="0 0 19 19" fill="none" xmlns="http://www.w3.org/2000/svg">
<path d="M12.375 9.375C12.375 9.96834 12.1991 10.5484 11.8694 11.0417C11.5398 11.5351 11.0712 11.9196 10.5231 12.1466C9.97487 12.3737 9.37167 12.4331 8.78973 12.3174C8.20779 12.2016 7.67324 11.9159 7.25368 11.4963C6.83412 11.0768 6.5484 10.5422 6.43264 9.96027C6.31689 9.37833 6.3763 8.77513 6.60336 8.22695C6.83042 7.67877 7.21494 7.21024 7.70829 6.88059C8.20164 6.55095 8.78166 6.375 9.375 6.375C10.1704 6.37591 10.9329 6.69227 11.4953 7.25468C12.0577 7.8171 12.3741 8.57963 12.375 9.375ZM18.75 5.25V13.5C18.7484 14.8919 18.1948 16.2263 17.2106 17.2106C16.2263 18.1948 14.8919 18.7484 13.5 18.75H5.25C3.8581 18.7484 2.52365 18.1948 1.53943 17.2106C0.555206 16.2263 0.00157638 14.8919 0 13.5V5.25C0.00157638 3.8581 0.555206 2.52365 1.53943 1.53943C2.52365 0.555206 3.8581 0.00157638 5.25 0H13.5C14.8919 0.00157638 16.2263 0.555206 17.2106 1.53943C18.1948 2.52365 18.7484 3.8581 18.75 5.25ZM13.875 9.375C13.875 8.48498 13.6111 7.61495 13.1166 6.87493C12.6221 6.13491 11.9193 5.55814 11.0971 5.21754C10.2748 4.87695 9.37001 4.78783 8.49709 4.96147C7.62418 5.1351 6.82236 5.56368 6.19302 6.19302C5.56368 6.82236 5.1351 7.62418 4.96147 8.49709C4.78783 9.37001 4.87695 10.2748 5.21754 11.0971C5.55814 11.9193 6.13491 12.6221 6.87493 13.1166C7.61495 13.6111 8.48498 13.875 9.375 13.875C10.5681 13.8737 11.7119 13.3991 12.5555 12.5555C13.3991 11.7119 13.8737 10.5681 13.875 9.375ZM15.375 4.5C15.375 4.2775 15.309 4.05999 15.1854 3.87498C15.0618 3.68998 14.8861 3.54578 14.6805 3.46064C14.475 3.37549 14.2488 3.35321 14.0305 3.39662C13.8123 3.44002 13.6118 3.54717 13.4545 3.7045C13.2972 3.86184 13.19 4.06229 13.1466 4.28052C13.1032 4.49875 13.1255 4.72495 13.2106 4.93052C13.2958 5.13609 13.44 5.31179 13.625 5.4354C13.81 5.55902 14.0275 5.625 14.25 5.625C14.5484 5.625 14.8345 5.50647 15.0455 5.2955C15.2565 5.08452 15.375 4.79837 15.375 4.5Z" fill="white"/>
</svg>
