<svg width="19" height="19" viewBox="0 0 19 19" fill="none" xmlns="http://www.w3.org/2000/svg">
<path d="M14.0365 0H4.69865C2.11142 0 0 2.1131 0 4.70238V14.0625C0 16.6369 2.11142 18.75 4.69865 18.75H14.0513C16.6386 18.75 18.75 16.6369 18.75 14.0476V4.70238C18.7351 2.1131 16.6237 0 14.0365 0ZM6.24504 15.1786H3.5686V7.44048H6.24504V15.1786ZM4.89195 6.25C4.13362 6.25 3.52399 5.63988 3.52399 4.88095C3.52399 4.12202 4.13362 3.5119 4.89195 3.5119C5.65028 3.5119 6.25991 4.12202 6.25991 4.88095C6.24504 5.63988 5.63541 6.25 4.89195 6.25ZM15.1814 15.1786H15.1665H12.9362V11.4286C12.9362 10.5208 12.8172 9.36012 11.5831 9.36012C10.3192 9.36012 10.111 10.3423 10.111 11.369V15.1786H7.88065V7.44048H9.96233V8.48214H10.0218C10.3489 7.8869 11.1073 7.4256 12.2968 7.4256C14.7502 7.4256 15.1814 8.83929 15.1814 10.9375V15.1786Z" fill="white"/>
</svg>
