<svg width="26" height="29" viewBox="0 0 26 29" fill="none" xmlns="http://www.w3.org/2000/svg">
<g clip-path="url(#clip0_281_406)">
<path d="M25.9987 8.51774C25.9985 8.03068 25.8934 7.60022 25.6808 7.23077C25.4722 6.86746 25.1595 6.56296 24.7402 6.3222C21.279 4.34346 17.8142 2.37075 14.354 0.38999C13.4212 -0.143992 12.5168 -0.124558 11.5907 0.417178C10.213 1.22273 3.31541 5.14075 1.25988 6.32109C0.413461 6.80694 0.00152344 7.55047 0.00132031 8.51674C0 12.4963 0.00132031 16.4756 0 20.4552C0 20.9315 0.100852 21.3537 0.303977 21.7176C0.512789 22.0919 0.829766 22.4047 1.25877 22.6509C3.31439 23.8313 10.2129 27.7491 11.5903 28.5547C12.5167 29.0967 13.4212 29.1161 14.3543 28.5819C17.8146 26.6011 21.2795 24.6285 24.7413 22.6497C25.1703 22.4036 25.4873 22.0905 25.6961 21.7166C25.8989 21.3527 26 20.9305 26 20.454C26 20.454 26 12.4973 25.9987 8.51774Z" fill="#649AD2"/>
<path d="M13.0396 14.4473L0.303711 21.7176C0.512625 22.0919 0.829602 22.4047 1.2586 22.6509C3.31423 23.8313 10.2128 27.7491 11.5901 28.5548C12.5165 29.0967 13.421 29.1161 14.3542 28.5819C17.8144 26.6011 21.2793 24.6285 24.7412 22.6497C25.1702 22.4036 25.4871 22.0906 25.696 21.7166L13.0396 14.4473Z" fill="#004482"/>
<path d="M9.26758 16.6008C10.0087 17.8835 11.4018 18.7486 13 18.7486C14.608 18.7486 16.0091 17.8726 16.7464 16.576L13.0398 14.4473L9.26758 16.6008Z" fill="#1A4674"/>
<path d="M25.9989 8.51775C25.9987 8.03069 25.8936 7.60022 25.681 7.23077L13.04 14.4472L25.6964 21.7166C25.8992 21.3527 26 20.9306 26.0002 20.454C26.0002 20.454 26.0002 12.4973 25.9989 8.51775Z" fill="#01589C"/>
<path d="M25.3027 14.9668H24.3137V15.9476H23.3245V14.9668H22.3356V13.9864H23.3245V13.0059H24.3137V13.9864H25.3027V14.9669V14.9668ZM13 5.92554C16.1621 5.92554 18.9269 7.61116 20.4313 10.1254L20.4764 10.2018L16.7185 12.3473C15.9737 11.0777 14.5879 10.2233 13 10.2233C10.6254 10.2233 8.70051 12.1317 8.70051 14.4859C8.69972 15.2279 8.89523 15.9571 9.26754 16.6008C10.0086 17.8834 11.4018 18.7486 13 18.7486C14.5903 18.7486 15.9783 17.8917 16.7219 16.6186L16.7464 16.576L20.4988 18.7315C19.0109 21.3089 16.21 23.0463 13 23.0463C9.79576 23.0463 6.99924 21.3159 5.50932 18.746C4.78193 17.4914 4.36572 16.0369 4.36572 14.4859C4.36572 9.75827 8.23129 5.92554 13 5.92554ZM20.705 13.0058V13.9863H21.6939V14.9668H20.705V15.9476H19.716V14.9668H18.727V13.9864H19.716V13.0059H20.705V13.0058Z" fill="white"/>
</g>
<defs>
<clipPath id="clip0_281_406">
<rect width="26" height="29" fill="white"/>
</clipPath>
</defs>
</svg>
