<svg width="28" height="28" viewBox="0 0 28 28" fill="none" xmlns="http://www.w3.org/2000/svg">
<g clip-path="url(#clip0_281_390)">
<path d="M0 0H28V28H0V0Z" fill="#F7DF1E"/>
<path d="M7.36241 23.3988L9.50507 22.1021C9.91851 22.835 10.2945 23.4551 11.1966 23.4551C12.0612 23.4551 12.6064 23.1169 12.6064 21.8014V12.8547H15.2376V21.8386C15.2376 24.5639 13.6401 25.8044 11.3093 25.8044C9.2044 25.8044 7.98257 24.7143 7.3623 23.3986M16.6668 23.1168L18.8093 21.8764C19.3733 22.7975 20.1064 23.4741 21.4031 23.4741C22.4935 23.4741 23.1886 22.9289 23.1886 22.1771C23.1886 21.275 22.4744 20.9554 21.2715 20.4293L20.6139 20.1471C18.7154 19.3391 17.4562 18.3241 17.4562 16.1815C17.4562 14.2079 18.9598 12.7042 21.3093 12.7042C22.982 12.7042 24.1849 13.287 25.0494 14.8094L23.0006 16.1251C22.5495 15.317 22.061 14.9975 21.3091 14.9975C20.5385 14.9975 20.0498 15.4862 20.0498 16.1251C20.0498 16.9145 20.5385 17.2342 21.6661 17.7229L22.3239 18.0048C24.5606 18.9634 25.8199 19.9407 25.8199 22.1396C25.8199 24.508 23.9592 25.8047 21.4594 25.8047C19.0161 25.8047 17.4373 24.6394 16.6667 23.1169" fill="black"/>
</g>
<defs>
<clipPath id="clip0_281_390">
<rect width="28" height="28" fill="white"/>
</clipPath>
</defs>
</svg>
