<svg width="25" height="33" viewBox="0 0 25 33" fill="none" xmlns="http://www.w3.org/2000/svg">
<g clip-path="url(#clip0_279_231)">
<path d="M8.06208 25.5104C8.06208 25.5104 6.77321 26.2424 8.97937 26.4901C11.6521 26.7879 13.018 26.7452 15.9634 26.2007C15.9634 26.2007 16.7379 26.6749 17.8192 27.0857C11.2166 29.8494 2.87595 26.9256 8.06208 25.5104ZM7.25525 21.9039C7.25525 21.9039 5.80964 22.949 8.01745 23.172C10.8725 23.4596 13.1272 23.4832 17.0288 22.7495C17.0288 22.7495 17.5684 23.2838 18.417 23.576C10.4339 25.8559 1.54216 23.7558 7.25525 21.9039Z" fill="#5382A1"/>
<path d="M14.0567 15.7861C15.6836 17.6154 13.6292 19.2616 13.6292 19.2616C13.6292 19.2616 17.7602 17.1789 15.863 14.5708C14.0912 12.1387 12.7323 10.9301 20.0884 6.76349C20.0884 6.76349 8.54175 9.57993 14.0567 15.786" fill="#E76F00"/>
<path d="M22.7893 28.178C22.7893 28.178 23.7431 28.9455 21.7388 29.5393C17.9277 30.6669 5.87629 31.0074 2.52844 29.5842C1.32502 29.073 3.58186 28.3634 4.29172 28.2144C5.03205 28.0576 5.4552 28.0869 5.4552 28.0869C4.11682 27.1661 -3.19549 29.895 1.74094 30.6764C15.2031 32.8086 26.2812 29.7163 22.7893 28.178ZM8.68147 18.1672C8.68147 18.1672 2.55148 19.5892 6.51076 20.1055C8.18244 20.3241 11.515 20.2747 14.6192 20.0206C17.1561 19.8117 19.7034 19.3673 19.7034 19.3673C19.7034 19.3673 18.8089 19.7415 18.1617 20.173C11.9367 21.772 -0.0888474 21.0282 3.37316 19.3926C6.301 18.0104 8.68156 18.1672 8.68156 18.1672M19.6781 24.1703C26.0063 20.9588 23.0804 17.8727 21.0382 18.2885C20.5376 18.3902 20.3145 18.4783 20.3145 18.4783C20.3145 18.4783 20.5003 18.1941 20.8552 18.071C24.8952 16.6838 28.0024 22.1624 19.551 24.3322C19.551 24.3323 19.6489 24.2468 19.6781 24.1703Z" fill="#5382A1"/>
<path d="M15.8631 0.0353737C15.8631 0.0353737 19.3677 3.45936 12.5392 8.7242C7.06347 12.9476 11.2905 15.3557 12.5369 18.107C9.34062 15.2905 6.99491 12.8111 8.56864 10.5036C10.8783 7.11616 17.277 5.47389 15.8631 0.0352783" fill="#E76F00"/>
<path d="M9.30361 32.8727C15.3777 33.2525 24.7052 32.662 24.9261 29.855C24.9261 29.855 24.5015 30.9192 19.9062 31.7642C14.7218 32.717 8.32764 32.6058 4.53516 31.9951C4.53525 31.9951 5.31152 32.6227 9.30371 32.8727" fill="#5382A1"/>
</g>
<defs>
<clipPath id="clip0_279_231">
<rect width="25" height="33" fill="white"/>
</clipPath>
</defs>
</svg>
