<svg width="14" height="30" viewBox="0 0 14 30" fill="none" xmlns="http://www.w3.org/2000/svg">
<g clip-path="url(#clip0_281_423)">
<path d="M9.60434 3.33947C8.34598 1.84761 7.26234 0.332364 7.04097 0.0177196C7.03571 0.0121975 7.02938 0.00780116 7.02237 0.00479715C7.01535 0.00179314 7.0078 0.000244141 7.00017 0.000244141C6.99254 0.000244141 6.98499 0.00179314 6.97798 0.00479715C6.97097 0.00780116 6.96464 0.0121975 6.95938 0.0177196C6.738 0.332419 5.65437 1.84761 4.39595 3.33947C-6.40521 17.1043 6.09717 26.3936 6.09717 26.3936L6.20201 26.4635C6.2952 27.8971 6.52827 29.9601 6.52827 29.9601H7.46042C7.46042 29.9601 7.69339 27.9088 7.78663 26.4636L7.89152 26.3819C7.90317 26.3936 20.4056 17.1043 9.60434 3.33947ZM6.99432 26.1837C6.99432 26.1837 6.43503 25.7059 6.28355 25.4612V25.4378L6.95938 10.4492C6.95938 10.4026 7.02932 10.4026 7.02932 10.4492L7.7051 25.4378V25.4612C7.55361 25.7059 6.99432 26.1838 6.99432 26.1838V26.1837Z" fill="#01EC64"/>
</g>
<defs>
<clipPath id="clip0_281_423">
<rect width="14" height="30" fill="white"/>
</clipPath>
</defs>
</svg>
