<svg width="28" height="32" viewBox="0 0 28 32" fill="none" xmlns="http://www.w3.org/2000/svg">
<g clip-path="url(#clip0_281_396)">
<path d="M14 31.9408C13.5652 31.9408 13.1595 31.8235 12.7827 31.6181L8.92752 29.2999C8.34783 28.9771 8.63767 28.8598 8.81158 28.8011C9.59416 28.537 9.73908 28.4783 10.5506 28.0087C10.6377 27.95 10.7536 27.9794 10.8405 28.0381L13.7971 29.8281C13.913 29.8867 14.058 29.8867 14.1449 29.8281L25.7102 23.0497C25.8262 22.991 25.8841 22.8737 25.8841 22.7269V9.19936C25.8841 9.05264 25.8262 8.93528 25.7102 8.87659L14.1449 2.12747C14.029 2.06878 13.8841 2.06878 13.7971 2.12747L2.2318 8.8767C2.11586 8.93539 2.05789 9.0821 2.05789 9.19947V22.7269C2.05789 22.8443 2.11586 22.991 2.2318 23.0497L5.39131 24.8983C7.1015 25.7786 8.17381 24.7516 8.17381 23.7246V10.3731C8.17381 10.197 8.31884 10.0209 8.52173 10.0209H10C10.174 10.0209 10.3479 10.1677 10.3479 10.3731V23.7245C10.3479 26.0427 9.10142 27.3924 6.92748 27.3924C6.26084 27.3924 5.73913 27.3924 4.26092 26.6588L1.21734 24.8983C0.46375 24.458 0 23.6364 0 22.7562V9.22881C0 8.34853 0.46375 7.52694 1.21734 7.08669L12.7827 0.308341C13.5073 -0.102455 14.4927 -0.102455 15.2173 0.308341L26.7827 7.08669C27.5362 7.52683 28 8.34842 28 9.22881V22.7563C28 23.6366 27.5362 24.4582 26.7827 24.8983L15.2173 31.6769C14.8405 31.8529 14.4058 31.941 14 31.941V31.9408ZM17.5652 22.6388C12.4927 22.6388 11.4493 20.2914 11.4493 18.296C11.4493 18.1199 11.5942 17.9439 11.7971 17.9439H13.3043C13.4782 17.9439 13.6232 18.0613 13.6232 18.2373C13.8551 19.7925 14.5217 20.5555 17.5942 20.5555C20.029 20.5555 21.0725 19.998 21.0725 18.6776C21.0725 17.9145 20.7827 17.357 16.9855 16.9755C13.8261 16.6527 11.855 15.9485 11.855 13.3957C11.855 11.0187 13.826 9.61026 17.1304 9.61026C20.8405 9.61026 22.6667 10.9013 22.8985 13.7183C22.8985 13.8064 22.8695 13.8944 22.8116 13.9824C22.7536 14.0411 22.6667 14.0998 22.5797 14.0998H21.0725C20.9275 14.0998 20.7827 13.9824 20.7536 13.8357C20.4058 12.2219 19.5072 11.6937 17.1304 11.6937C14.4639 11.6937 14.1449 12.6327 14.1449 13.3369C14.1449 14.1879 14.5217 14.4519 18.1159 14.9214C21.6812 15.3909 23.3623 16.0658 23.3623 18.5894C23.3333 21.1717 21.2464 22.6388 17.5652 22.6388Z" fill="#539E43"/>
</g>
<defs>
<clipPath id="clip0_281_396">
<rect width="28" height="32" fill="white"/>
</clipPath>
</defs>
</svg>
