<svg width="423" height="280" viewBox="0 0 423 280" fill="none" xmlns="http://www.w3.org/2000/svg">
<g clip-path="url(#clip0_301_260)">
<path opacity="0.1" d="M107.874 112.192H63.1932C61.6109 112.192 60.3281 113.417 60.3281 114.929V124.014C60.3281 125.526 61.6109 126.752 63.1932 126.752H107.874C109.456 126.752 110.739 125.526 110.739 124.014V114.929C110.739 113.417 109.456 112.192 107.874 112.192Z" fill="#6C63FF"/>
<path opacity="0.1" d="M160.629 126.755H115.948C114.366 126.755 113.083 127.981 113.083 129.493V138.578C113.083 140.09 114.366 141.315 115.948 141.315H160.629C162.211 141.315 163.494 140.09 163.494 138.578V129.493C163.494 127.981 162.211 126.755 160.629 126.755Z" fill="#6C63FF"/>
<path opacity="0.1" d="M213.388 141.315H168.707C167.125 141.315 165.842 142.541 165.842 144.053V153.138C165.842 154.65 167.125 155.875 168.707 155.875H213.388C214.97 155.875 216.253 154.65 216.253 153.138V144.053C216.253 142.541 214.97 141.315 213.388 141.315Z" fill="#6C63FF"/>
<path opacity="0.1" d="M107.874 90.3516H63.1932C61.6109 90.3516 60.3281 91.5771 60.3281 93.0889V102.174C60.3281 103.686 61.6109 104.912 63.1932 104.912H107.874C109.456 104.912 110.739 103.686 110.739 102.174V93.0889C110.739 91.5771 109.456 90.3516 107.874 90.3516Z" fill="#6C63FF"/>
<path opacity="0.1" d="M160.629 104.912H115.948C114.366 104.912 113.083 106.137 113.083 107.649V116.734C113.083 118.246 114.366 119.472 115.948 119.472H160.629C162.211 119.472 163.494 118.246 163.494 116.734V107.649C163.494 106.137 162.211 104.912 160.629 104.912Z" fill="#6C63FF"/>
<path opacity="0.1" d="M213.388 119.475H168.707C167.125 119.475 165.842 120.701 165.842 122.213V131.298C165.842 132.81 167.125 134.035 168.707 134.035H213.388C214.97 134.035 216.253 132.81 216.253 131.298V122.213C216.253 120.701 214.97 119.475 213.388 119.475Z" fill="#6C63FF"/>
<path opacity="0.1" d="M272.005 112.192H227.324C225.742 112.192 224.459 113.417 224.459 114.929V124.014C224.459 125.526 225.742 126.752 227.324 126.752H272.005C273.587 126.752 274.87 125.526 274.87 124.014V114.929C274.87 113.417 273.587 112.192 272.005 112.192Z" fill="#6C63FF"/>
<path opacity="0.1" d="M324.759 126.755H280.079C278.497 126.755 277.214 127.981 277.214 129.493V138.578C277.214 140.09 278.497 141.315 280.079 141.315H324.759C326.342 141.315 327.625 140.09 327.625 138.578V129.493C327.625 127.981 326.342 126.755 324.759 126.755Z" fill="#6C63FF"/>
<path opacity="0.1" d="M377.519 141.315H332.838C331.256 141.315 329.973 142.541 329.973 144.053V153.138C329.973 154.65 331.256 155.875 332.838 155.875H377.519C379.101 155.875 380.384 154.65 380.384 153.138V144.053C380.384 142.541 379.101 141.315 377.519 141.315Z" fill="#6C63FF"/>
<path opacity="0.1" d="M272.005 90.3516H227.324C225.742 90.3516 224.459 91.5771 224.459 93.0889V102.174C224.459 103.686 225.742 104.912 227.324 104.912H272.005C273.587 104.912 274.87 103.686 274.87 102.174V93.0889C274.87 91.5771 273.587 90.3516 272.005 90.3516Z" fill="#6C63FF"/>
<path opacity="0.1" d="M324.759 104.912H280.079C278.497 104.912 277.214 106.137 277.214 107.649V116.734C277.214 118.246 278.497 119.472 280.079 119.472H324.759C326.342 119.472 327.625 118.246 327.625 116.734V107.649C327.625 106.137 326.342 104.912 324.759 104.912Z" fill="#6C63FF"/>
<path opacity="0.1" d="M377.519 119.475H332.838C331.256 119.475 329.973 120.701 329.973 122.213V131.298C329.973 132.81 331.256 134.035 332.838 134.035H377.519C379.101 134.035 380.384 132.81 380.384 131.298V122.213C380.384 120.701 379.101 119.475 377.519 119.475Z" fill="#6C63FF"/>
<path opacity="0.1" d="M107.874 61.2278H63.1932C61.6109 61.2278 60.3281 62.4533 60.3281 63.9651V73.0504C60.3281 74.5622 61.6109 75.7878 63.1932 75.7878H107.874C109.456 75.7878 110.739 74.5622 110.739 73.0504V63.9651C110.739 62.4533 109.456 61.2278 107.874 61.2278Z" fill="#6C63FF"/>
<path opacity="0.1" d="M160.629 75.7878H115.948C114.366 75.7878 113.083 77.0134 113.083 78.5252V87.6105C113.083 89.1223 114.366 90.3478 115.948 90.3478H160.629C162.211 90.3478 163.494 89.1223 163.494 87.6105V78.5252C163.494 77.0134 162.211 75.7878 160.629 75.7878Z" fill="#6C63FF"/>
<path opacity="0.1" d="M213.388 90.3516H168.707C167.125 90.3516 165.842 91.5771 165.842 93.0889V102.174C165.842 103.686 167.125 104.912 168.707 104.912H213.388C214.97 104.912 216.253 103.686 216.253 102.174V93.0889C216.253 91.5771 214.97 90.3516 213.388 90.3516Z" fill="#6C63FF"/>
<path opacity="0.1" d="M107.874 39.3843H63.1932C61.6109 39.3843 60.3281 40.6098 60.3281 42.1216V51.2069C60.3281 52.7187 61.6109 53.9443 63.1932 53.9443H107.874C109.456 53.9443 110.739 52.7187 110.739 51.2069V42.1216C110.739 40.6098 109.456 39.3843 107.874 39.3843Z" fill="#6C63FF"/>
<path opacity="0.1" d="M160.629 53.948H115.948C114.366 53.948 113.083 55.1736 113.083 56.6854V65.7706C113.083 67.2824 114.366 68.508 115.948 68.508H160.629C162.211 68.508 163.494 67.2824 163.494 65.7706V56.6854C163.494 55.1736 162.211 53.948 160.629 53.948Z" fill="#6C63FF"/>
<path opacity="0.1" d="M213.388 68.5078H168.707C167.125 68.5078 165.842 69.7334 165.842 71.2452V80.3304C165.842 81.8422 167.125 83.0678 168.707 83.0678H213.388C214.97 83.0678 216.253 81.8422 216.253 80.3304V71.2452C216.253 69.7334 214.97 68.5078 213.388 68.5078Z" fill="#6C63FF"/>
<path opacity="0.1" d="M272.005 61.2278H227.324C225.742 61.2278 224.459 62.4533 224.459 63.9651V73.0504C224.459 74.5622 225.742 75.7878 227.324 75.7878H272.005C273.587 75.7878 274.87 74.5622 274.87 73.0504V63.9651C274.87 62.4533 273.587 61.2278 272.005 61.2278Z" fill="#6C63FF"/>
<path opacity="0.1" d="M324.759 75.7878H280.079C278.497 75.7878 277.214 77.0134 277.214 78.5252V87.6105C277.214 89.1223 278.497 90.3478 280.079 90.3478H324.759C326.342 90.3478 327.625 89.1223 327.625 87.6105V78.5252C327.625 77.0134 326.342 75.7878 324.759 75.7878Z" fill="#6C63FF"/>
<path opacity="0.1" d="M377.519 90.3516H332.838C331.256 90.3516 329.973 91.5771 329.973 93.0889V102.174C329.973 103.686 331.256 104.912 332.838 104.912H377.519C379.101 104.912 380.384 103.686 380.384 102.174V93.0889C380.384 91.5771 379.101 90.3516 377.519 90.3516Z" fill="#6C63FF"/>
<path opacity="0.1" d="M272.005 39.3843H227.324C225.742 39.3843 224.459 40.6098 224.459 42.1216V51.2069C224.459 52.7187 225.742 53.9443 227.324 53.9443H272.005C273.587 53.9443 274.87 52.7187 274.87 51.2069V42.1216C274.87 40.6098 273.587 39.3843 272.005 39.3843Z" fill="#6C63FF"/>
<path opacity="0.1" d="M324.759 53.948H280.079C278.497 53.948 277.214 55.1736 277.214 56.6854V65.7706C277.214 67.2824 278.497 68.508 280.079 68.508H324.759C326.342 68.508 327.625 67.2824 327.625 65.7706V56.6854C327.625 55.1736 326.342 53.948 324.759 53.948Z" fill="#6C63FF"/>
<path opacity="0.1" d="M377.519 68.5078H332.838C331.256 68.5078 329.973 69.7334 329.973 71.2452V80.3304C329.973 81.8422 331.256 83.0678 332.838 83.0678H377.519C379.101 83.0678 380.384 81.8422 380.384 80.3304V71.2452C380.384 69.7334 379.101 68.5078 377.519 68.5078Z" fill="#6C63FF"/>
<path opacity="0.1" d="M211.487 280C327.979 280 422.415 263.588 422.415 243.342C422.415 223.097 327.979 206.684 211.487 206.684C94.9944 206.684 0.558594 223.097 0.558594 243.342C0.558594 263.588 94.9944 280 211.487 280Z" fill="#6C63FF"/>
<path d="M93.1047 118.263L75.3667 222.158L155.573 214.053L152.103 205.21L89.4414 210.184L104.095 118.079L93.1047 118.263Z" fill="#3F3D56"/>
<path d="M72.2817 0.368421L180.252 0L211.487 225.842L103.13 239.842L72.2817 0.368421Z" fill="#3F3D56"/>
<path d="M84.043 9.02637H171.191L201.654 219.026L111.807 230.816L84.043 9.02637Z" fill="white"/>
<path d="M166.232 209.58C166.779 210.582 167.188 211.665 167.901 212.568C169.984 215.228 173.936 215.644 176.901 217.38C177.05 217.452 177.172 217.564 177.252 217.704C177.387 218.01 177.086 218.33 176.797 218.522C174.549 220.028 171.599 220.062 168.85 220.043C167.926 220.075 167.002 219.99 166.1 219.793C164.647 219.424 163.401 218.455 161.967 218.061C161.223 217.884 160.462 217.781 159.696 217.755L156.684 217.56C155.882 217.549 155.088 217.408 154.336 217.144C153.961 217.007 153.628 216.781 153.369 216.488C153.11 216.195 152.933 215.844 152.855 215.467C152.77 214.856 153.044 214.263 153.206 213.666C153.591 212.251 153.472 210.542 154.625 209.576C155.1 209.229 155.644 208.978 156.225 208.84C158.321 208.165 160.46 207.621 162.63 207.211C164.415 206.876 165.441 208.128 166.232 209.58Z" fill="#3F3D56"/>
<path d="M132.167 217.549C132.244 218.334 132.268 219.233 131.674 219.782C131.304 220.075 130.857 220.266 130.382 220.334C127.532 220.968 124.355 221.012 121.875 219.531C121.617 219.39 121.39 219.204 121.204 218.982C120.998 218.68 120.88 218.33 120.865 217.969C120.776 216.926 121.112 215.898 121.416 214.893C122.137 212.506 122.685 210.075 123.055 207.616C123.086 207.414 130.332 208.722 130.814 209.407C131.419 210.254 131.423 212.288 131.585 213.297C131.829 214.707 132.023 216.124 132.167 217.549Z" fill="#3F3D56"/>
<path d="M159.137 121.678L161.065 138.806C161.45 142.306 161.855 145.825 161.589 149.336C161.281 153.388 160.093 157.441 160.594 161.457C160.791 163.019 161.238 164.552 161.304 166.125C161.316 167.171 161.261 168.217 161.138 169.256C160.266 179.649 163.024 189.962 164.566 200.281C164.814 201.554 164.869 202.854 164.728 204.142C164.527 205.45 164.126 207.167 165.345 207.786L153.9 211.75C152.439 210 153.406 207.277 153.129 205.056C152.874 203.055 151.725 201.272 151.112 199.345C150.557 197.614 150.441 195.79 150.26 193.992C149.261 184.203 146.196 174.668 145.478 164.857C145.455 163.91 145.326 162.967 145.093 162.046C144.707 160.827 143.936 159.762 143.373 158.616C142.509 156.896 142.085 155.009 141.669 153.145L139.22 142.185C136.744 145.707 136.845 150.29 136.355 154.512C135.668 160.407 134.134 166.202 132.884 172.023C132.594 173.276 132.377 174.542 132.233 175.818C131.909 179.233 132.553 182.682 132.21 186.093C131.824 190.046 130.085 193.904 130.505 197.857C130.737 200.045 131.616 202.116 132.21 204.238C132.803 206.36 133.096 208.688 132.19 210.711C129.023 209.6 125.621 209.241 122.276 209.665C118.601 206.073 117.95 201.062 117.699 196.033C117.448 191.004 118.054 185.968 117.398 180.987C117.205 179.513 116.905 178.076 116.855 176.606C116.693 171.894 119.064 167.484 120.244 162.905C121.306 158.782 121.407 154.487 120.541 150.323C119.963 147.571 118.968 144.9 118.613 142.111C118.131 138.202 118.948 134.264 119.77 130.403C120.321 127.798 120.869 125.193 121.493 122.603C122.164 119.822 122.963 116.981 124.756 114.704C127.625 111.061 132.719 109.443 137.481 109.797C142.243 110.151 146.689 112.221 150.622 114.8C153.722 116.779 156.578 119.087 159.137 121.678Z" fill="#192534"/>
<path d="M146.342 56.0922C146.126 56.4241 145.975 56.7913 145.898 57.1753C145.802 57.9306 146.284 58.6232 146.67 59.2827C147.164 60.13 147.543 61.0337 147.799 61.9722C147.983 62.553 148.039 63.1638 147.965 63.7664C147.871 64.219 147.702 64.6543 147.464 65.0558C146.72 66.4264 145.617 67.6937 144.117 68.2648C142.955 68.6735 141.688 68.7225 140.496 68.4048C139.312 68.0845 138.192 67.5763 137.184 66.9016C136.334 66.3871 135.57 65.7537 134.916 65.0227C134.292 64.2233 133.767 63.358 133.351 62.4437C132.549 60.8411 131.735 59.128 131.881 57.3706C131.889 57.2112 131.92 57.0537 131.974 56.9027C132.099 56.6298 132.274 56.3803 132.491 56.1658C134.136 54.3032 134.979 51.9132 134.851 49.479L140.469 50.6985C141.707 50.9674 142.945 51.2364 144.167 51.5716C145.17 51.8479 146.712 52.2311 147.364 53.0858C148.015 53.9406 146.785 55.3111 146.342 56.0922Z" fill="#FBBEBE"/>
<path d="M143.334 55.1783C148.974 55.1783 153.545 50.8105 153.545 45.4225C153.545 40.0346 148.974 35.6667 143.334 35.6667C137.695 35.6667 133.124 40.0346 133.124 45.4225C133.124 50.8105 137.695 55.1783 143.334 55.1783Z" fill="#FBBEBE"/>
<path d="M141.692 65.1037C142.123 64.2011 143.057 63.63 143.909 63.0627C144.761 62.4953 145.625 61.7695 145.791 60.7858C145.801 60.5633 145.858 60.3452 145.96 60.1448C146.288 59.6732 147.067 59.909 147.534 60.2553C148.667 61.099 149.438 62.2963 150.19 63.4642C151.163 64.8845 151.996 66.388 152.678 67.9553C153.761 70.6853 153.892 73.6658 154.012 76.58C154.12 79.2327 154.224 81.9258 153.549 84.4974C153.125 86.1258 152.392 87.7063 152.35 89.3827C152.223 95.4727 150.009 101.294 149.855 107.384C149.843 109.145 149.936 110.905 150.133 112.656L150.495 116.609C144.888 116.302 139.297 115.832 133.721 115.198C133.559 113.378 133.015 111.613 132.518 109.852C130.481 102.652 129.175 95.2818 128.619 87.8427C128.322 83.8932 128.018 79.9585 127.559 76.0237C127.146 72.4464 126.337 68.8469 126.822 65.2769C127.077 63.6542 127.611 62.083 128.403 60.6274C128.654 60.0475 129.085 59.555 129.637 59.2163C129.914 59.0888 130.207 58.9983 130.509 58.9474C131.383 58.7782 132.27 58.6784 133.162 58.649C133.38 58.6314 133.599 58.6514 133.81 58.7079C134.185 58.8869 134.494 59.1726 134.693 59.5258C136.411 61.9937 138.842 63.9315 141.692 65.1037Z" fill="#F2F2F2"/>
<path d="M136.957 64.3227C137.674 65.3027 139.193 65.5348 139.856 66.5332C140.08 66.9505 140.249 67.3921 140.361 67.8485C140.766 69.0827 141.584 70.1548 142.081 71.3595C142.799 73.0911 142.818 75.0069 142.826 76.8674C142.896 78.3494 142.777 79.8341 142.471 81.2885C142.239 82.1985 141.861 83.0643 141.584 83.9632C141.112 85.4919 140.937 87.0901 141.067 88.679C141.067 89.0222 141.163 89.3592 141.345 89.6553C141.606 89.9512 141.948 90.1729 142.332 90.2964C143.462 90.7716 144.646 91.2579 145.88 91.1474C146.133 91.1398 146.378 91.0617 146.585 90.9227C146.728 90.7982 146.846 90.6496 146.932 90.4843L147.703 89.239C148.401 88.1006 149.13 86.8258 148.86 85.5253C148.664 84.854 148.37 84.2127 147.985 83.6206C147.492 82.6595 147.072 81.6659 146.728 80.6474C145.498 77.269 144.252 73.8427 143.975 70.2764C143.811 68.9191 143.969 67.5442 144.437 66.2532C144.8 65.4587 145.255 64.706 145.795 64.0095C145.673 63.853 145.504 63.7357 145.31 63.6732C145.116 63.6106 144.908 63.6059 144.711 63.6595C144.323 63.774 143.948 63.9233 143.589 64.1053C142.455 64.5622 141.198 64.3964 140.053 64.0832C139.606 63.9579 138.896 63.5306 138.433 63.56C138.275 63.5785 136.984 64.3669 136.957 64.3227Z" fill="#6C63FF"/>
<path d="M145.984 64.2822C145.752 64.1054 145.394 63.9433 145.189 64.1496C145.121 64.239 145.071 64.3404 145.043 64.448C144.842 64.9638 144.252 65.218 143.716 65.417C143.18 65.6159 142.602 65.7264 142.278 65.3469C142.176 65.1992 142.125 65.0242 142.134 64.8473C142.143 64.6704 142.211 64.5008 142.328 64.3633C142.565 64.0902 142.851 63.8595 143.172 63.6817C144.946 62.4855 146.154 60.6691 146.535 58.627C147.032 59.0047 147.362 59.5483 147.457 60.1485C147.584 60.7343 147.599 61.3385 147.726 61.9243C147.915 62.7643 148.336 63.5491 148.432 64.4001C148.482 64.8533 148.432 65.3101 148.432 65.7633C148.449 66.2063 148.504 66.6474 148.594 67.0822C147.692 66.1685 147.056 65.0964 145.984 64.2822Z" fill="#F2F2F2"/>
<path d="M138.179 61.7806C137.793 61.4306 137.407 61.0991 137.022 60.7417C135.33 59.1637 134.052 57.226 133.293 55.0864C132.799 55.4548 132.256 55.9412 132.244 56.5601C132.288 56.9981 132.465 57.4142 132.753 57.7575C134.211 59.9515 135.174 62.4123 135.58 64.9822C135.788 64.6713 136.077 64.4168 136.418 64.2432C136.759 64.0697 137.141 63.9829 137.527 63.9912C138.136 63.9912 140.87 65.5385 141.067 65.148C141.356 64.5364 138.641 62.197 138.179 61.7806Z" fill="#F2F2F2"/>
<path d="M146.79 58.8478C150.417 62.2978 154.857 64.8663 159.738 66.3378C160.224 66.4389 160.674 66.6571 161.046 66.9715C161.323 67.303 161.51 67.6956 161.589 68.1136C162.53 71.6283 162.846 75.2646 163.159 78.8789C163.241 79.4766 163.228 80.0827 163.12 80.6767C162.893 81.642 162.175 82.4231 161.47 83.1489C159.256 85.4146 156.731 87.7836 156.357 90.8636C156.328 91.4574 156.255 92.0484 156.137 92.632C155.944 93.3173 155.516 93.9215 155.254 94.5883C153.966 97.8709 156.877 101.846 155.103 104.904C156.064 106.667 156.722 108.565 157.055 110.526C157.114 111.27 157.292 112 157.583 112.693C158.111 113.746 159.199 114.417 160.055 115.271C162.665 117.828 162.985 121.741 163.139 125.311C163.236 127.323 163.205 129.633 161.597 130.951C160.668 131.721 159.399 131.972 158.184 132.164C156.569 132.421 154.81 132.606 153.38 131.843C152.354 131.298 151.656 130.344 150.989 129.423C149.724 127.665 148.455 125.911 147.256 124.11C145.359 121.269 143.57 118.024 144.117 114.693C143.963 118.101 143.211 121.535 141.46 124.504C139.71 127.474 136.891 129.953 133.471 130.933C130.05 131.913 126.052 131.22 123.503 128.833C122.671 128.015 121.956 127.094 121.378 126.096C119.927 123.722 118.868 121.148 118.239 118.466C118.073 117.769 117.95 116.992 118.316 116.369C118.49 116.075 118.756 115.843 118.937 115.551C119.546 114.56 118.96 113.311 118.37 112.302C117.472 112.383 116.828 111.374 116.909 110.511C116.99 109.649 117.53 108.901 117.911 108.117C119.03 105.803 118.783 103.11 118.243 100.616C117.703 98.1215 116.897 95.642 116.959 93.0962C117.024 90.4031 114.996 87.9789 113.45 85.7278C112.586 84.4604 111.58 83.2815 110.828 81.9515C109.26 79.1526 108.897 75.8797 109.817 72.8294C110.357 71.2631 111.066 69.7543 111.931 68.3273L113.203 66.0467C113.44 65.5018 113.808 65.0178 114.277 64.6338C114.746 64.2498 115.302 63.9766 115.902 63.8362L124.706 60.5204C125.831 60.1531 126.9 59.6425 127.883 59.0025C128.959 58.2289 129.761 57.1604 130.787 56.3352C130.936 56.1852 131.116 56.0652 131.314 55.9823C131.513 55.8994 131.727 55.8553 131.944 55.8525C132.769 55.9225 133.062 56.9173 133.147 57.6946C133.34 59.4336 134.689 60.9073 135.148 62.5983C137.631 71.9378 142.887 80.5515 144.329 90.0862C145.949 86.3688 147.569 82.6441 149.643 79.1441C149.97 78.6416 150.245 78.1098 150.464 77.5562C150.713 76.7577 150.806 75.9222 150.738 75.0915C150.634 72.6931 149.967 70.3499 149.308 68.0325C148.452 64.8789 147.68 61.972 146.79 58.8478Z" fill="#3F3D56"/>
<path d="M163.567 87.3859C163.737 88.9553 163.903 90.5285 164.207 92.0796C164.562 93.8738 165.102 95.6275 165.638 97.3811C165.9 98.3669 166.275 99.322 166.756 100.229C166.931 100.492 167.069 100.776 167.169 101.073C167.358 101.81 166.926 102.546 166.741 103.283C166.185 105.494 167.851 107.951 166.802 109.989C166.486 110.607 165.935 111.12 165.727 111.783C165.484 112.545 165.727 113.36 165.854 114.148C166.182 116.358 165.391 118.606 164.612 120.732L163.286 124.32C162.075 122.169 160.853 119.995 159.179 118.149C158.581 117.486 157.93 116.871 157.378 116.171C156.556 115.071 155.906 113.862 155.45 112.582C154.273 109.542 153.6 106.345 153.457 103.106C153.361 102.186 153.473 101.256 153.784 100.38C154.04 99.8734 154.325 99.3813 154.64 98.9064C155.674 97.1269 155.886 95.0196 155.867 92.9859C155.847 90.9522 155.62 88.9111 155.867 86.8885C156.068 85.1997 156.591 83.5603 157.409 82.0511C157.892 81.0738 158.609 80.2192 159.503 79.5569C160.17 79.0798 160.983 78.8272 161.817 78.8385C163.077 78.9085 162.788 79.9438 162.896 80.9422L163.567 87.3859Z" fill="#3F3D56"/>
<path d="M106.848 82.3716C106.061 84.5821 105.352 86.8123 104.719 89.0621C104.102 91.2727 103.551 93.4955 103.065 95.7306C102.815 96.7133 102.676 97.7186 102.648 98.7295C102.698 99.9065 102.909 101.072 103.277 102.196C105.76 110.747 110.287 118.635 115.385 126.052C116.842 124.316 118.572 122.807 120.514 121.579C120.673 121.489 120.805 121.362 120.899 121.211C120.948 121.067 120.962 120.915 120.941 120.766C120.92 120.617 120.863 120.474 120.776 120.348C119.368 117.593 117.14 115.165 116.438 112.17C116.145 110.924 116.133 109.627 115.802 108.39C115.374 106.787 114.417 105.321 114.197 103.677C113.962 101.887 114.583 99.9342 113.704 98.3464C115.497 97.6795 116.534 95.9148 117.294 94.2237C118.106 92.4937 118.686 90.6729 119.021 88.8042C119.549 85.2218 118.816 81.5734 116.935 78.4332C116.017 76.8668 114.838 75.4533 113.445 74.2479C112.987 73.8537 111.903 72.7227 111.236 72.7337C110.345 72.7521 110.06 74.13 109.805 74.749C108.776 77.2764 107.758 79.8074 106.848 82.3716Z" fill="#3F3D56"/>
<path d="M122.82 123.609C122.936 123.69 123.067 123.8 123.036 123.933C123.005 124.066 122.893 124.099 122.793 124.154C122.272 124.507 121.883 125.011 121.682 125.591C121.042 126.971 120.483 128.384 120.009 129.824C119.146 128.589 118.131 127.457 116.986 126.453C116.107 125.679 115.123 124.946 114.653 123.9C114.653 123.87 116.673 122.445 116.859 122.29C117.425 121.807 118.139 120.47 118.725 120.175C119.388 119.844 120.021 121.144 120.526 121.667C121.221 122.386 121.989 123.037 122.82 123.609Z" fill="#FBBEBE"/>
<path d="M154.178 43.8974C154.151 43.4148 154.085 42.8806 153.699 42.5674C153.361 42.3437 152.953 42.2359 152.543 42.2616C150.295 42.1916 147.969 42.5527 145.848 41.8306C144.453 41.3553 143.261 40.4416 141.9 39.8742C140.539 39.3069 138.796 39.1558 137.697 40.11C136.864 40.8469 136.636 41.9779 136.347 43.0206C135.71 45.3217 134.577 47.4702 133.019 49.3279C131.974 49.0184 131.226 48.1269 130.744 47.1911C129.105 44.0006 129.911 40.1911 131.076 36.809C131.461 35.6742 131.889 34.5506 132.317 33.4306L133.258 30.9548C134.493 30.8389 135.641 30.2934 136.482 29.4221L136.887 30.3616C137.933 30.3257 138.942 29.985 139.779 29.3853C140.103 29.9674 140.936 30.1221 141.611 29.9342C142.285 29.7463 142.868 29.3853 143.539 29.1974C145.332 28.6448 147.244 29.4958 149.126 29.5916C149.922 29.5731 150.719 29.5952 151.513 29.6579C153.734 30.0006 155.304 31.9974 155.982 34.0458C156.433 35.409 156.807 37.0853 158.215 37.5679C158.246 38.0837 157.289 38.1832 157.209 38.6732C157.199 38.8366 157.239 38.9991 157.324 39.1411L158.616 41.79C157.998 41.9381 157.349 41.9074 156.75 41.7016C156.167 43.0095 154.235 44.8958 154.178 43.8974Z" fill="#192534"/>
<path d="M219.639 49.6631C220.293 51.6832 220.809 53.7422 221.181 55.8268C221.459 57.3889 221.621 59.1241 220.684 60.4283C224.254 55.2962 227.983 50.0094 233.409 46.6973C232.304 45.5528 231.464 44.199 230.942 42.7239C230.421 41.2488 230.23 39.6854 230.382 38.1352C230.413 37.8257 225.928 39.4431 225.585 39.6273C224.012 40.4636 222.569 41.5026 221.035 42.3978C220.24 42.8583 216.932 43.9489 216.901 44.6083C216.901 45.032 218.216 46.3289 218.463 46.7747C218.947 47.7008 219.341 48.6678 219.639 49.6631Z" fill="#FBBEBE"/>
<path d="M236.231 243.224C235.35 242.631 234.316 242.277 233.241 242.199C232.166 242.121 231.089 242.323 230.123 242.782C228.377 243.644 227.2 245.276 225.612 246.382C222.882 248.275 219.276 248.426 216.079 249.451C215.231 249.723 214.329 250.129 213.97 250.924C213.85 251.259 213.802 251.613 213.829 251.966C213.856 252.319 213.958 252.662 214.128 252.976C214.663 254.114 215.599 255.037 216.774 255.581C218.208 256.237 219.858 256.266 221.447 256.285L235.252 256.44C239.494 256.487 243.762 256.535 247.977 257.04C248.96 257.158 250.025 257.287 250.892 256.826C252.304 256.09 252.466 254.225 252.358 252.689C252.073 248.797 251.163 244.969 249.658 241.342C249.492 240.94 249.273 240.483 248.806 240.41C248.475 240.395 248.149 240.495 247.888 240.69C243.994 242.9 239.062 244.149 234.92 242.381" fill="white"/>
<path d="M243.141 159.077C241.599 167.635 242.605 176.43 244.341 184.951C244.66 186.648 245.081 188.326 245.601 189.976C246.222 191.855 247.059 193.661 247.641 195.551C249.122 200.34 248.914 205.461 248.694 210.461L247.684 233.211C247.599 235.119 247.522 237.072 248.123 238.892C248.366 239.629 248.663 240.55 248.05 241.047C247.81 241.212 247.53 241.314 247.236 241.345C244.477 241.831 241.627 241.423 239.139 240.185L238.865 217.203C238.78 210.118 238.691 203.004 237.55 196.007C236.644 190.444 235.071 184.955 234.966 179.325C234.858 173.431 236.37 167.613 237.912 161.899C238.244 160.676 239.455 159.781 240.45 158.952C240.797 158.625 241.22 158.38 241.684 158.237C242.146 158.115 242.856 158.705 243.141 159.077Z" fill="#3F3D56"/>
<path opacity="0.1" d="M243.141 159.077C241.599 167.635 242.605 176.43 244.341 184.951C244.66 186.648 245.081 188.326 245.601 189.976C246.222 191.855 247.059 193.661 247.641 195.551C249.122 200.34 248.914 205.461 248.694 210.461L247.684 233.211C247.599 235.119 247.522 237.072 248.123 238.892C248.366 239.629 248.663 240.55 248.05 241.047C247.81 241.212 247.53 241.314 247.236 241.345C244.477 241.831 241.627 241.423 239.139 240.185L238.865 217.203C238.78 210.118 238.691 203.004 237.55 196.007C236.644 190.444 235.071 184.955 234.966 179.325C234.858 173.431 236.37 167.613 237.912 161.899C238.244 160.676 239.455 159.781 240.45 158.952C240.797 158.625 241.22 158.38 241.684 158.237C242.146 158.115 242.856 158.705 243.141 159.077Z" fill="black"/>
<path d="M214.186 132.329C213.615 134.573 214.826 136.898 214.691 139.204C214.614 140.601 214.04 141.993 214.306 143.364C214.572 144.734 215.597 145.766 216.145 147.022C216.544 148.071 216.755 149.177 216.77 150.294C216.928 153.049 216.8 155.82 216.693 158.565C216.511 163.17 216.376 167.801 217.013 172.366C217.567 176.32 218.692 180.183 220.356 183.842C220.86 184.838 221.277 185.872 221.601 186.933C221.814 187.922 221.956 188.924 222.026 189.932C222.392 193.21 223.313 196.409 224.752 199.404C225.735 201.456 227.451 203.088 227.995 205.266C228.511 207.351 228.164 209.551 228.538 211.662C228.812 213.227 229.479 214.708 229.85 216.256C230.332 218.256 230.32 220.331 230.563 222.372C231.257 228.266 234.06 234.161 232.387 239.879C232.051 241.028 231.531 242.196 231.766 243.368C231.882 243.943 232.175 244.51 232.044 245.081C231.936 245.567 231.542 245.943 231.342 246.404C230.956 247.266 231.365 248.29 232.051 248.957C232.784 249.578 233.635 250.059 234.558 250.372C237.4 251.532 240.342 252.711 243.427 252.685C243.801 252.704 244.175 252.639 244.518 252.494C245.073 252.217 245.347 251.617 245.582 251.064L247.163 247.328C247.356 246.875 247.549 246.345 247.283 245.925C247.098 245.694 246.873 245.495 246.62 245.335C245.343 244.307 245.633 242.388 245.972 240.844C246.839 236.879 247.319 232.846 247.406 228.797C247.576 220.721 246.184 212.693 244.796 204.724C244.314 201.957 243.828 199.172 242.868 196.519C241.908 193.867 240.492 191.314 240.724 188.558C240.97 185.581 240.161 182.461 240.724 179.524C241.287 176.588 242.177 173.714 242.752 170.782C243.496 166.976 243.681 163.096 243.909 159.235C244.005 157.658 244.129 156.03 244.9 154.63C245.351 153.812 246.007 153.112 246.512 152.32C247.815 150.261 248.023 147.707 249.269 145.615C249.859 144.624 250.672 143.751 251.104 142.689C251.408 141.853 251.566 140.974 251.575 140.088C251.697 137.865 251.568 135.635 251.189 133.438C244.625 130.247 237.345 128.633 229.981 128.737C227.162 128.782 224.312 129.054 221.667 129.986C219.145 130.882 216.847 132.138 214.186 132.329Z" fill="#3F3D56"/>
<path d="M229.996 249.053C228.863 250.401 228.94 252.328 228.215 253.916C227.336 255.843 225.377 257.077 223.518 258.201L211.95 265.201C211.317 265.569 210.639 266.022 210.407 266.707C210.297 267.145 210.317 267.603 210.465 268.03C210.741 268.954 211.256 269.798 211.962 270.483C212.668 271.168 213.543 271.672 214.506 271.95C215.53 272.183 216.582 272.286 217.634 272.256L222.836 272.322C224.42 272.381 226.007 272.322 227.582 272.145C229.025 271.946 230.428 271.552 231.863 271.302C234.473 270.848 237.157 270.889 239.771 270.451C241.372 270.15 242.954 269.76 244.507 269.283C246.396 268.741 248.32 268.177 249.94 267.105C250.386 266.846 250.748 266.474 250.985 266.029C251.259 265.422 251.108 264.725 250.954 264.081L248.471 253.654C248.331 252.786 247.999 251.956 247.499 251.219C246.948 250.519 245.957 250.055 245.097 250.353C244.742 250.508 244.407 250.7 244.098 250.928C242.825 251.727 241.194 251.86 239.69 251.609C238.719 251.444 237.435 251.189 236.652 250.574C236.058 250.106 235.881 249.381 235.376 248.85C235.021 248.503 234.595 248.23 234.123 248.05C233.652 247.871 233.146 247.788 232.639 247.807C232.131 247.826 231.634 247.947 231.179 248.161C230.724 248.376 230.321 248.68 229.996 249.053Z" fill="white"/>
<path d="M222.496 48.2264C230.19 48.2264 236.428 42.2668 236.428 34.9153C236.428 27.5638 230.19 21.6042 222.496 21.6042C214.802 21.6042 208.564 27.5638 208.564 34.9153C208.564 42.2668 214.802 48.2264 222.496 48.2264Z" fill="#FBBEBE"/>
<path d="M211.749 35.6964C213.083 34.9816 213.083 32.9222 214.448 32.2369C215.813 31.5516 217.364 32.7416 218.239 33.9427C219.515 35.7017 220.401 37.6914 220.842 39.7895C220.965 40.3864 221.081 41.0385 221.551 41.4548C222.022 41.8711 222.639 41.9227 223.24 41.9816C225.001 42.1487 226.765 42.3009 228.531 42.4385C230.497 42.5895 232.572 42.7111 234.357 41.9043C235.062 41.6033 235.667 41.1243 236.108 40.519C236.461 39.9378 236.714 39.3057 236.856 38.6474C237.778 35.2985 238.707 31.909 238.784 28.4459C238.815 27.0164 238.684 25.5353 237.963 24.2827C237.543 23.5459 236.926 22.9048 236.752 22.0943C236.579 21.2838 237.138 20.2522 238.017 20.3406C237.222 20.3718 236.431 20.2281 235.703 19.9206C235.005 19.5522 234.488 18.7601 234.735 18.038C232.776 18.2774 231.35 16.428 229.823 15.2306C229.574 14.9954 229.239 14.863 228.889 14.8622C228.621 14.9261 228.362 15.0214 228.118 15.1459C227.347 15.4038 226.541 14.9138 225.751 14.7001C223.63 14.1327 220.934 15.5032 219.361 14.0295C219.511 14.969 218.304 15.599 217.31 15.5806C216.315 15.5622 215.289 15.2122 214.348 15.529C214.484 15.7671 214.564 16.0311 214.581 16.302C214.598 16.5729 214.552 16.8441 214.447 17.0961C214.342 17.3482 214.179 17.5748 213.972 17.76C213.764 17.9451 213.516 18.084 213.245 18.1669L213.712 19.1395C213.231 19.2314 212.787 19.4497 212.429 19.77C212.071 20.0903 211.814 20.4998 211.687 20.9522C211.175 22.8864 211.302 25.6348 211.425 27.6243C211.487 28.4974 212.378 35.3685 211.749 35.6964Z" fill="#192534"/>
<path d="M223.638 52.0725C216.639 59.592 214.857 70.1767 213.365 80.1425L211.167 94.8573C210.596 98.6741 210.01 102.491 209.513 106.319C209.166 108.938 208.842 111.598 209.22 114.214C209.517 116.277 210.238 118.267 210.839 120.253C212.405 125.461 213.184 130.856 213.153 136.275C213.62 134.964 215.235 134.433 216.654 134.138C228.561 131.67 240.984 132.938 252.076 137.753C254.024 132.539 253.657 126.836 254.201 121.325C254.972 113.466 257.629 105.851 258.416 98.0073C258.705 95.0857 258.74 92.1494 258.771 89.2131C258.794 87.0578 258.817 84.8804 258.346 82.7694C257.822 80.4336 256.715 78.2562 255.57 76.1378C252.404 70.249 248.887 64.5389 245.035 59.0357C243.097 56.2652 241.075 53.5499 238.969 50.8899C237.903 49.5415 236.814 48.2078 235.703 46.8889C234.628 45.6104 234.161 44.5015 232.453 45.2678C229.225 46.712 225.986 49.5488 223.638 52.0725Z" fill="#6C63FF"/>
<path d="M227.648 114.66C225.94 114.719 224.231 114.667 222.531 114.505C221.27 114.387 219.982 114.211 218.752 114.505C218.217 114.634 217.716 114.869 217.282 115.194C217.122 115.331 217.006 115.509 216.95 115.708C216.894 115.906 216.899 116.116 216.966 116.312C217.033 116.507 217.158 116.68 217.326 116.809C217.493 116.937 217.697 117.016 217.911 117.036L219.23 117.147C220.066 117.217 220.938 117.298 221.59 117.884C221.857 118.114 222.027 118.43 222.068 118.772C222.149 119.63 221.37 120.098 220.672 120.455C219.68 120.9 218.762 121.484 217.949 122.187C217.313 122.774 216.913 123.557 216.82 124.397C216.817 124.472 216.834 124.547 216.871 124.613C216.908 124.679 216.962 124.735 217.028 124.775C217.095 124.815 217.171 124.838 217.249 124.841C217.328 124.843 217.406 124.827 217.475 124.792C219.018 124.055 220.024 121.87 221.717 122.235C220.177 122.701 218.858 123.67 217.992 124.972C217.778 125.283 217.681 125.654 217.715 126.024C217.75 126.395 217.914 126.744 218.182 127.014C218.45 127.284 218.805 127.459 219.191 127.512C219.576 127.565 219.969 127.492 220.306 127.304C220.556 127.164 220.798 127.01 221.031 126.844C222.177 125.957 223.205 124.937 224.088 123.808C222.854 126.295 221.605 129.205 223.024 131.677C223.095 131.813 223.205 131.927 223.342 132.004C223.479 132.081 223.637 132.119 223.795 132.112C224.243 132.068 224.374 131.666 224.447 131.313C224.678 130.174 224.736 128.973 225.322 127.96C226.68 125.61 230.027 125.381 232.576 124.235C235.634 122.88 237.727 119.962 238.572 116.845C238.867 115.936 238.919 114.97 238.722 114.037C238.155 111.941 235.448 111.458 233.709 112.472C231.577 113.765 230.339 114.579 227.648 114.66Z" fill="#FBBEBE"/>
<path opacity="0.1" d="M224.941 73.4226C227.64 77.4052 232.325 79.6489 236.343 82.4452C237.324 83.0552 238.179 83.8319 238.865 84.7368C239.879 86.2325 240.022 88.1336 239.814 89.8947C239.552 92.2194 238.769 94.4557 237.994 96.6736L236.309 101.481C235.241 104.532 234.138 107.645 232.106 110.209C231.585 110.861 230.98 111.558 231.003 112.376C231.048 112.848 231.218 113.302 231.496 113.695C232.147 114.709 233.004 115.587 234.017 116.278C235.03 116.969 236.177 117.459 237.392 117.718C238.12 117.895 238.882 117.895 239.61 117.718C240.651 117.423 241.433 116.613 242.158 115.846C245.629 112.188 249.099 108.478 251.606 104.186C254.054 99.9968 255.52 95.3436 256.869 90.7347C257.425 89.0379 257.813 87.295 258.026 85.5289C258.312 82.2131 257.402 78.8973 255.913 75.902C254.425 72.9068 252.377 70.1952 250.268 67.561C248.277 64.9735 246.065 62.5484 243.655 60.3104C239.459 56.5636 234.327 54.3604 228.712 56.4862C224.748 57.9894 223.264 61.1247 222.909 65.1404C222.608 68.0399 223.323 70.9527 224.941 73.4226Z" fill="black"/>
<path d="M226.344 72.4132C229.044 76.3959 233.733 78.6395 237.747 81.4359C238.724 82.0518 239.575 82.8335 240.257 83.7422C241.271 85.238 241.414 87.1353 241.206 88.9001C240.94 91.2248 240.161 93.4611 239.382 95.679L237.697 100.468C236.629 103.519 235.526 106.628 233.494 109.196C232.977 109.848 232.371 110.541 232.395 111.363C232.437 111.835 232.607 112.288 232.888 112.678C233.538 113.692 234.394 114.572 235.406 115.263C236.418 115.955 237.566 116.445 238.78 116.705C239.509 116.882 240.273 116.882 241.001 116.705C242.043 116.414 242.821 115.6 243.55 114.837C247.021 111.175 250.491 107.468 252.998 103.176C255.446 98.9874 256.912 94.3343 258.261 89.7216C258.819 88.0266 259.206 86.2847 259.418 84.5195C259.703 81.2038 258.793 77.888 257.309 74.889C255.824 71.8901 253.773 69.1822 251.663 66.548C249.666 63.974 247.449 61.5625 245.035 59.338C240.843 55.5948 235.711 53.388 230.096 55.5174C226.128 57.0206 224.648 60.1522 224.289 64.1716C224.006 67.0601 224.728 69.9571 226.344 72.4132Z" fill="#6C63FF"/>
<path d="M311.61 204.562C311.613 205.523 311.51 206.481 311.302 207.421C311.263 207.598 311.221 207.789 311.178 207.94C310.083 212.137 306.994 215.206 303.308 215.401C303.185 215.401 303.061 215.401 302.922 215.401C299.024 215.401 295.727 212.188 294.639 207.764C294.609 207.646 294.582 207.528 294.555 207.395C294.347 206.455 294.243 205.497 294.246 204.536C294.246 198.542 298.129 193.686 302.922 193.686C307.715 193.686 311.61 198.579 311.61 204.562Z" fill="#3F3D56"/>
<path opacity="0.1" d="M311.61 204.562C311.613 205.523 311.51 206.481 311.302 207.421C311.263 207.598 311.221 207.79 311.178 207.941C311.047 207.941 310.92 207.941 310.793 207.941C309.838 207.891 308.889 207.768 307.955 207.572C307.127 207.817 306.282 208.001 305.425 208.125C304.768 208.219 304.107 208.278 303.443 208.302H302.772C301.978 208.302 301.184 208.251 300.397 208.151C299.124 207.988 297.873 207.692 296.668 207.266C296.008 207.476 295.336 207.648 294.655 207.782C294.624 207.664 294.597 207.546 294.57 207.414C294.362 206.474 294.259 205.516 294.262 204.555C294.262 198.561 298.145 193.705 302.938 193.705C307.731 193.705 311.61 198.579 311.61 204.562Z" fill="black"/>
<path d="M330.119 184.351C330.123 181.713 329.476 179.111 328.23 176.757L318.027 179.79L326.984 174.757C325.482 172.684 323.511 170.959 321.218 169.711C318.925 168.462 316.368 167.722 313.735 167.543C313.316 166.936 312.856 166.355 312.358 165.804L297.705 170.163L309.725 163.41C307.425 161.724 304.727 160.605 301.867 160.153C299.008 159.701 296.076 159.929 293.331 160.818C290.586 161.706 288.112 163.227 286.129 165.247C284.146 167.266 282.714 169.721 281.961 172.395L294.512 186.2L280.896 176.791C277.447 179.128 274.992 182.571 273.977 186.493C272.963 190.415 273.457 194.555 275.37 198.158C277.283 201.762 280.487 204.588 284.398 206.123C288.309 207.659 292.668 207.8 296.679 206.522C300.308 207.797 304.273 207.901 307.97 206.821C310.547 207.362 313.219 207.346 315.788 206.771C318.358 206.196 320.759 205.078 322.817 203.5C324.875 201.921 326.536 199.922 327.678 197.649C328.82 195.377 329.415 192.888 329.418 190.367C329.418 189.998 329.418 189.63 329.379 189.262C329.879 187.669 330.128 186.014 330.119 184.351Z" fill="#6C63FF"/>
<path opacity="0.1" d="M329.815 187.475C324.427 186.499 318.901 186.432 313.488 187.276C307.361 188.245 301.099 190.374 295.106 188.819C291.59 187.906 288.551 185.791 285.115 184.616C281.8 183.511 278.229 183.307 274.8 184.026C273.493 187.013 273.114 190.296 273.708 193.483C274.302 196.67 275.844 199.627 278.149 201.999C280.454 204.371 283.426 206.059 286.709 206.861C289.991 207.664 293.446 207.546 296.66 206.522C300.289 207.796 304.254 207.901 307.951 206.82C310.528 207.362 313.2 207.345 315.769 206.771C318.338 206.196 320.74 205.078 322.798 203.5C324.856 201.921 326.517 199.922 327.659 197.649C328.801 195.377 329.396 192.888 329.399 190.367C329.399 189.998 329.399 189.63 329.36 189.262C329.546 188.674 329.698 188.078 329.815 187.475Z" fill="black"/>
</g>
<defs>
<clipPath id="clip0_301_260">
<rect width="421.857" height="280" fill="white" transform="translate(0.558594)"/>
</clipPath>
</defs>
</svg>
