<svg width="759" height="404" viewBox="0 0 759 404" fill="none" xmlns="http://www.w3.org/2000/svg">
<g style="mix-blend-mode:lighten">
<g clip-path="url(#clip0_280_662)">
<path d="M200.926 231.181C227.46 231.181 257.953 201.716 284.933 215.715C366.619 258.102 355.374 187.175 378.842 160.796L378.072 159.25C352.178 182.484 319.848 201.388 284.578 213.917C252.705 225.24 220.593 230.487 191.725 229.102L191.675 230.961C194.723 231.108 197.807 231.181 200.926 231.181Z" fill="#F2F2F2"/>
<path d="M7.24235 59.927C28.3939 75.958 70.4797 70.8935 83.5401 98.3538C123.084 181.496 156.914 118.162 191.537 111.312L191.855 109.614C157.195 112.491 120.018 108.028 84.3426 96.7055C52.1025 86.4749 23.3384 71.2557 1.16137 52.7106L-3.31479e-05 54.162C2.34144 56.1213 4.75557 58.0429 7.24235 59.927Z" fill="#F2F2F2"/>
<path d="M320.05 107.524C316.987 107.524 314.504 104.192 314.504 100.082C314.504 95.9713 316.987 92.6393 320.05 92.6393C323.114 92.6393 325.597 95.9713 325.597 100.082C325.597 104.192 323.114 107.524 320.05 107.524Z" fill="#E6E6E6"/>
<path d="M86.9709 177.168C83.9078 177.168 81.4247 173.836 81.4247 169.725C81.4247 165.615 83.9078 162.283 86.9709 162.283C90.034 162.283 92.5171 165.615 92.5171 169.725C92.5171 173.836 90.034 177.168 86.9709 177.168Z" fill="#E6E6E6"/>
<path d="M239.293 14.8847C236.23 14.8847 233.747 11.5526 233.747 7.44233C233.747 3.33204 236.23 0 239.293 0C242.356 0 244.839 3.33204 244.839 7.44233C244.839 11.5526 242.356 14.8847 239.293 14.8847Z" fill="#E6E6E6"/>
<path d="M139.861 274.719L146.31 235.905C146.44 235.12 146.253 234.314 145.79 233.667C145.327 233.019 144.627 232.581 143.842 232.449L114.549 227.575C113.764 227.445 112.959 227.633 112.312 228.096C111.664 228.559 111.227 229.26 111.096 230.045L104.646 268.859C104.516 269.645 104.703 270.45 105.166 271.098C105.629 271.746 106.33 272.183 107.115 272.315L136.407 277.189C137.192 277.319 137.997 277.132 138.644 276.669C139.292 276.206 139.729 275.504 139.861 274.719V274.719Z" fill="#3F3D56"/>
<path d="M139.562 262.622L143.708 237.669C143.83 236.933 143.655 236.179 143.221 235.572C142.788 234.965 142.132 234.555 141.397 234.432L116.222 230.243C115.487 230.122 114.733 230.297 114.127 230.731C113.52 231.164 113.111 231.821 112.988 232.557L107.248 267.096C107.127 267.831 107.302 268.586 107.735 269.192C108.169 269.799 108.825 270.209 109.56 270.332L125.155 272.927C128.431 273.468 131.787 272.687 134.488 270.755C137.189 268.823 139.014 265.898 139.562 262.622V262.622Z" fill="white"/>
<path d="M138.475 243.953C138.594 243.234 138.423 242.497 137.999 241.904C137.576 241.311 136.935 240.91 136.216 240.79L118.753 237.884C118.397 237.825 118.033 237.836 117.681 237.918C117.33 238 116.998 238.15 116.705 238.36C116.411 238.569 116.162 238.835 115.971 239.142C115.78 239.448 115.651 239.789 115.592 240.145C115.533 240.501 115.545 240.865 115.626 241.217C115.708 241.569 115.857 241.901 116.067 242.195C116.277 242.488 116.543 242.738 116.849 242.929C117.155 243.12 117.496 243.248 117.851 243.308L135.315 246.214C136.034 246.332 136.77 246.161 137.362 245.737C137.955 245.313 138.355 244.672 138.475 243.953Z" fill="#6375FF"/>
<path d="M137.074 252.389C137.192 251.67 137.021 250.933 136.598 250.34C136.174 249.748 135.533 249.347 134.814 249.227L117.351 246.321C116.995 246.261 116.631 246.273 116.279 246.355C115.928 246.436 115.596 246.586 115.303 246.796C115.009 247.006 114.76 247.272 114.569 247.578C114.378 247.884 114.249 248.225 114.19 248.581C114.131 248.938 114.143 249.302 114.224 249.654C114.306 250.005 114.456 250.337 114.665 250.631C114.875 250.925 115.141 251.174 115.447 251.365C115.753 251.556 116.094 251.685 116.45 251.744L133.913 254.65C134.632 254.769 135.368 254.598 135.961 254.174C136.553 253.75 136.953 253.108 137.074 252.389V252.389Z" fill="#6375FF"/>
<path d="M135.672 260.826C135.79 260.107 135.619 259.37 135.196 258.777C134.772 258.184 134.131 257.783 133.412 257.663L115.949 254.757C115.23 254.638 114.493 254.809 113.901 255.232C113.308 255.656 112.908 256.299 112.788 257.018C112.669 257.737 112.84 258.474 113.264 259.067C113.687 259.661 114.329 260.061 115.048 260.181L132.511 263.087C133.23 263.205 133.966 263.034 134.559 262.61C135.151 262.186 135.551 261.545 135.672 260.826Z" fill="#6375FF"/>
<path d="M153.087 238.136C153.85 237.277 154.415 236.261 154.743 235.159C155.072 234.057 155.154 232.897 154.986 231.76C154.817 230.623 154.402 229.537 153.768 228.578C153.135 227.619 152.299 226.811 151.32 226.21L161.538 177.525L147.995 182.735L140.155 229.247C139.256 230.96 139.016 232.944 139.48 234.823C139.945 236.701 141.082 238.344 142.676 239.439C144.27 240.535 146.21 241.008 148.129 240.767C150.048 240.527 151.812 239.591 153.087 238.136V238.136Z" fill="#FFB8B8"/>
<path d="M157.595 392.118L146.449 392.117L141.146 349.092L157.597 349.092L157.595 392.118Z" fill="#FFB6B6"/>
<path d="M160.439 388.475L157.301 388.475L145.052 383.49L138.487 388.475H138.486C134.776 388.475 131.217 389.95 128.594 392.575C125.97 395.2 124.496 398.761 124.496 402.474V402.929L160.438 402.93L160.439 388.475Z" fill="#2F2E41"/>
<path d="M258.315 377.615L248.338 382.59L224.413 346.451L239.137 339.108L258.315 377.615Z" fill="#FFB6B6"/>
<path d="M259.237 373.086L256.428 374.487L243.243 375.493L239.589 382.885L239.588 382.885C236.268 384.542 233.741 387.45 232.563 390.971C231.385 394.492 231.654 398.337 233.308 401.66L233.511 402.067L265.68 386.023L259.237 373.086Z" fill="#2F2E41"/>
<path d="M152.657 196.713L223.532 198.563L222.3 233.1C222.3 233.1 223.532 242.351 221.067 244.818C218.602 247.285 217.369 247.285 218.602 251.602C219.834 255.919 223.021 297.168 223.021 297.168C223.021 297.168 252.11 348.638 250.878 349.872C249.645 351.105 248.412 349.872 249.645 352.955C250.878 356.039 252.11 354.805 250.878 356.039C249.786 357.217 248.757 358.452 247.796 359.739H227.707C227.707 359.739 226.583 353.572 226.583 352.955C226.583 352.338 225.351 348.638 225.351 348.021C225.351 347.405 190.252 310.191 190.252 310.191L182.856 248.518L164.983 308.958C164.983 308.958 164.983 361.997 163.75 363.231C162.518 364.464 162.518 363.847 163.134 366.314C163.75 368.781 166.216 368.164 164.367 370.015C162.518 371.865 161.901 368.781 162.518 371.865L163.134 374.948L139.456 375.213C139.456 375.213 136.991 370.015 138.223 368.164C139.456 366.314 139.382 366.819 137.878 363.791C136.374 360.764 135.758 360.147 136.374 359.53C136.991 358.913 136.991 355.633 136.991 355.633C136.991 355.633 145.877 234.333 145.877 232.483C145.924 231.531 145.749 230.581 145.366 229.709V227.197L147.726 218.298L152.657 196.713Z" fill="#2F2E41"/>
<path d="M88.7658 368.939L88.1543 355.178C81.7792 351.768 74.6686 349.967 67.44 349.931C77.3887 358.071 76.1454 373.761 82.8904 384.706C85.0202 388.104 87.8869 390.979 91.2778 393.117C94.6687 395.255 98.4971 396.603 102.479 397.059L110.805 402.16C111.947 395.787 111.695 389.242 110.066 382.976C108.438 376.709 105.471 370.871 101.37 365.863C99.0416 363.076 96.3718 360.594 93.4236 358.474C91.4297 363.736 88.7658 368.939 88.7658 368.939Z" fill="#F2F2F2"/>
<path d="M189.356 75.5911L153.855 147.437L160.8 234.631L206.165 230.483L214.3 86.0836L189.356 75.5911Z" fill="#2F2E41"/>
<path d="M139.506 225.005L160.25 223.107L160.282 222.844L174.204 107.498L171.088 98.8549C170.343 96.8028 169.079 94.9785 167.421 93.5594C165.763 92.1403 163.766 91.1746 161.624 90.7561V90.7558C159.993 90.4413 158.315 90.453 156.689 90.7902C155.062 91.1274 153.517 91.7834 152.145 92.7204C150.773 93.6574 149.599 94.8569 148.692 96.2498C147.785 97.6427 147.162 99.2014 146.859 100.836L143.134 120.973L137.849 189.042L139.506 225.005Z" fill="#2F2E41"/>
<path d="M193.516 86.2456L189.332 76.229L176.384 76.4565L162.882 95.5688L148.71 155.208C148.71 155.208 143.62 198.774 148.71 201.074C153.8 203.374 171.052 200.534 171.052 200.534L193.516 86.2456Z" fill="#6375FF"/>
<path d="M176.384 76.4565C176.384 76.4565 148.491 92.5914 147.4 101.014C146.309 109.436 142.656 212.522 142.656 212.522L152.52 206.144L155.216 168.572L167.254 91.6499L176.384 76.4565Z" fill="#2F2E41"/>
<path d="M182.968 71.7635C172.469 71.7635 163.958 63.2467 163.958 52.7405C163.958 42.2344 172.469 33.7175 182.968 33.7175C193.467 33.7175 201.978 42.2344 201.978 52.7405C201.978 63.2467 193.467 71.7635 182.968 71.7635Z" fill="#FFB8B8"/>
<path d="M204.531 40.2411C202.396 36.9365 198.39 34.734 194.507 35.3529C194.146 32.873 193.111 30.5398 191.516 28.6074C189.922 26.675 187.828 25.2175 185.462 24.3936C183.097 23.5697 180.551 23.4109 178.102 23.9346C175.653 24.4582 173.394 25.6443 171.572 27.3635C170.973 26.9413 170.275 26.6811 169.546 26.6081C168.816 26.5351 168.081 26.6517 167.41 26.9467C166.073 27.5548 164.91 28.4887 164.028 29.663C161.8 32.4437 160.367 35.777 159.881 39.3081C159.396 42.8392 159.876 46.4359 161.272 49.7153C160.797 47.9888 162.526 46.3646 164.273 45.9772C166.02 45.5898 167.853 45.9563 169.624 45.704C171.895 45.3807 173.936 44.0626 176.21 43.766C178.121 43.5167 180.043 44.007 181.907 44.4985C183.771 44.99 185.688 45.4912 187.602 45.2638C189.516 45.0364 191.981 52.295 191.948 57.4074C191.942 58.3763 192.141 59.6202 193.087 59.8258C194.253 60.0789 194.928 58.4696 196.037 58.0311C196.548 57.8845 197.096 57.9422 197.565 58.192C198.035 58.4418 198.389 58.8643 198.553 59.3703C198.693 59.8848 198.708 60.4252 198.597 60.9466C198.486 61.468 198.252 61.9553 197.915 62.368C197.233 63.1861 196.424 63.8886 195.518 64.4484L195.975 64.8286C196.735 65.833 198.311 65.8765 199.406 65.2551C200.453 64.5454 201.301 63.5791 201.869 62.4483C203.895 59.0761 205.673 55.4831 206.388 51.6139C207.103 47.7446 206.665 43.5457 204.531 40.2411Z" fill="#2F2E41"/>
<path d="M245.937 181.124L207.958 140.35C207.189 139.525 206.124 139.04 204.997 139.001C203.87 138.961 202.774 139.37 201.948 140.138L171.176 168.841C170.352 169.611 169.867 170.677 169.828 171.804C169.788 172.932 170.197 174.029 170.965 174.855L208.944 215.629C209.713 216.454 210.778 216.939 211.905 216.979C213.032 217.018 214.128 216.609 214.954 215.841L245.726 187.138C246.55 186.368 247.035 185.302 247.075 184.175C247.114 183.047 246.705 181.95 245.937 181.124Z" fill="#E6E6E6"/>
<path d="M232.105 171.01L207.689 144.797C206.968 144.025 205.971 143.57 204.916 143.533C203.86 143.496 202.834 143.879 202.06 144.599L175.614 169.266C174.842 169.988 174.388 170.986 174.351 172.042C174.314 173.098 174.697 174.125 175.416 174.899L209.212 211.182C209.933 211.955 210.931 212.409 211.986 212.446C213.041 212.483 214.068 212.1 214.841 211.38L231.224 196.099C234.661 192.887 236.684 188.441 236.849 183.737C237.014 179.034 235.308 174.457 232.105 171.01V171.01Z" fill="white"/>
<path d="M210.22 156.105C209.515 155.35 208.541 154.906 207.509 154.87C206.478 154.834 205.475 155.208 204.719 155.911L186.374 173.023C185.619 173.727 185.174 174.703 185.138 175.735C185.102 176.767 185.477 177.772 186.18 178.527C186.884 179.283 187.859 179.727 188.89 179.764C189.922 179.8 190.925 179.425 191.681 178.721L210.026 161.609C210.78 160.904 211.224 159.929 211.26 158.897C211.297 157.865 210.922 156.861 210.22 156.105V156.105Z" fill="#E6E6E6"/>
<path d="M218.475 164.968C217.771 164.213 216.796 163.769 215.765 163.733C214.734 163.696 213.73 164.071 212.975 164.774L194.629 181.886C194.255 182.234 193.954 182.653 193.742 183.119C193.53 183.584 193.411 184.087 193.393 184.598C193.375 185.109 193.458 185.618 193.637 186.097C193.816 186.577 194.087 187.016 194.436 187.39C194.784 187.764 195.203 188.066 195.668 188.278C196.133 188.49 196.635 188.608 197.146 188.626C197.656 188.644 198.166 188.561 198.644 188.382C199.123 188.203 199.562 187.932 199.936 187.583L218.282 170.472C219.036 169.767 219.479 168.791 219.516 167.76C219.552 166.728 219.178 165.724 218.475 164.968V164.968Z" fill="#E6E6E6"/>
<path d="M226.73 173.83C226.025 173.076 225.051 172.632 224.02 172.595C222.989 172.559 221.985 172.934 221.23 173.637L202.884 190.749C202.129 191.453 201.684 192.428 201.648 193.46C201.612 194.493 201.987 195.497 202.691 196.253C203.394 197.008 204.369 197.453 205.401 197.489C206.432 197.525 207.436 197.15 208.191 196.446L226.537 179.334C227.291 178.629 227.734 177.654 227.771 176.622C227.807 175.59 227.432 174.586 226.73 173.83V173.83Z" fill="#E6E6E6"/>
<path d="M182.092 222.43L195.223 241.244L195.835 241.982C196.898 243.262 198.367 244.139 199.998 244.469C200.229 244.515 200.461 244.55 200.694 244.573C200.981 244.602 201.27 244.614 201.559 244.609C201.725 244.606 201.89 244.596 202.055 244.582C203.013 244.5 203.945 244.228 204.797 243.782L210.399 239.867C210.845 239.556 211.163 239.094 211.295 238.566C211.36 238.305 211.379 238.034 211.35 237.766C211.308 237.391 211.173 237.033 210.957 236.724L194.789 213.557C194.446 213.066 193.922 212.732 193.333 212.628C192.744 212.523 192.138 212.656 191.647 212.998L182.65 219.286C182.629 219.301 182.608 219.316 182.587 219.331C182.574 219.341 182.56 219.351 182.548 219.362C182.53 219.376 182.512 219.39 182.495 219.404C182.473 219.422 182.452 219.44 182.431 219.459C182.413 219.476 182.394 219.494 182.375 219.512L182.364 219.522C182.341 219.545 182.318 219.568 182.295 219.592C182.273 219.616 182.251 219.64 182.23 219.665C182.215 219.682 182.199 219.701 182.185 219.719L182.183 219.721C182.14 219.775 182.099 219.831 182.061 219.889C182.048 219.907 182.037 219.926 182.026 219.944L182.021 219.952C182.011 219.967 182.002 219.982 181.994 219.997C181.968 220.041 181.944 220.087 181.92 220.133C181.883 220.21 181.849 220.289 181.82 220.37C181.81 220.395 181.802 220.422 181.794 220.448C181.787 220.469 181.78 220.491 181.775 220.513L181.773 220.517L181.771 220.526C181.765 220.545 181.76 220.564 181.755 220.583C181.746 220.619 181.738 220.656 181.73 220.692C181.728 220.702 181.726 220.712 181.724 220.723C181.722 220.733 181.721 220.743 181.719 220.753C181.717 220.763 181.715 220.774 181.713 220.783L181.711 220.799C181.706 220.829 181.702 220.859 181.699 220.889C181.695 220.926 181.692 220.964 181.69 221.001C181.688 221.032 181.687 221.063 181.686 221.093C181.685 221.121 181.685 221.149 181.686 221.177C181.686 221.184 181.686 221.191 181.687 221.198C181.687 221.227 181.689 221.255 181.69 221.284C181.694 221.355 181.703 221.427 181.714 221.497C181.718 221.524 181.723 221.549 181.728 221.575C181.734 221.607 181.741 221.638 181.749 221.669C181.751 221.681 181.754 221.692 181.757 221.704C181.762 221.721 181.767 221.738 181.771 221.755C181.777 221.774 181.782 221.793 181.788 221.812L181.803 221.857C181.812 221.883 181.821 221.909 181.831 221.935C181.837 221.951 181.843 221.967 181.85 221.982C181.895 222.095 181.949 222.203 182.012 222.307C182.02 222.319 182.027 222.332 182.035 222.344C182.054 222.373 182.073 222.402 182.092 222.43Z" fill="white"/>
<path d="M190.985 223.144C189.92 223.144 189.057 222.281 189.057 221.216C189.057 220.15 189.92 219.287 190.985 219.287C192.049 219.287 192.912 220.15 192.912 221.216C192.912 222.281 192.049 223.144 190.985 223.144Z" fill="#6375FF"/>
<path d="M212.758 241.597C213.521 240.738 214.087 239.722 214.415 238.621C214.743 237.519 214.826 236.359 214.657 235.222C214.489 234.085 214.073 232.999 213.44 232.04C212.806 231.081 211.971 230.273 210.991 229.672L221.209 180.987L207.666 186.197L199.827 232.709C198.927 234.422 198.687 236.406 199.152 238.284C199.616 240.163 200.753 241.805 202.347 242.901C203.941 243.997 205.881 244.469 207.8 244.229C209.719 243.989 211.483 243.052 212.758 241.597V241.597Z" fill="#FFB8B8"/>
<path d="M220.261 221.842L225.773 186.306L227.844 118.058L226.305 97.6019C226.18 95.944 225.728 94.3273 224.976 92.8448C224.224 91.3623 223.186 90.0434 221.923 88.9641C220.659 87.8847 219.194 87.0663 217.613 86.5559C216.032 86.0455 214.366 85.8533 212.71 85.9902C210.536 86.1757 208.446 86.9207 206.645 88.1529C204.844 89.3852 203.392 91.0628 202.43 93.0227L198.403 101.281L199.841 217.721L220.261 221.842Z" fill="#2F2E41"/>
<path d="M197.854 60.4511C197.843 60.2357 197.778 60.0265 197.666 59.8421C197.554 59.6577 197.399 59.5036 197.213 59.3936C197.028 59.2836 196.818 59.2209 196.603 59.2112C196.387 59.2014 196.173 59.2449 195.978 59.3378C195.784 59.4307 195.615 59.57 195.487 59.7436C195.359 59.9172 195.275 60.1197 195.244 60.3332C195.213 60.5466 195.235 60.7645 195.307 60.9676C195.38 61.1706 195.502 61.3527 195.662 61.4975L193.455 65.1268C193.364 65.2757 193.336 65.4544 193.377 65.6237C193.419 65.7931 193.525 65.9391 193.674 66.0297C193.823 66.1202 194.002 66.148 194.171 66.1068C194.34 66.0656 194.486 65.9588 194.576 65.8099L197.058 61.7292C197.306 61.6241 197.515 61.4449 197.658 61.2161C197.801 60.9874 197.869 60.7203 197.854 60.4511V60.4511Z" fill="white"/>
<path d="M196.306 62.9183C196.224 63.0803 196.027 63.1454 195.865 63.0637C195.703 62.982 195.638 62.7844 195.72 62.6225L196.311 61.4492C196.393 61.2872 196.59 61.2221 196.752 61.3038C196.914 61.3855 196.979 61.5831 196.897 61.745L196.306 62.9183Z" fill="#2F2E41"/>
</g>
<g clip-path="url(#clip1_280_662)">
<path d="M569.839 281.271L585.755 263.078L585.921 263.223L588.848 259.877L588.682 259.732L593.569 254.147C593.751 253.938 593.891 253.695 593.979 253.433C594.068 253.17 594.104 252.893 594.086 252.617C594.067 252.34 593.994 252.07 593.871 251.822C593.748 251.574 593.577 251.352 593.368 251.17L581.532 240.839C581.324 240.657 581.081 240.517 580.818 240.429C580.555 240.34 580.278 240.304 580.001 240.323C579.724 240.341 579.454 240.414 579.205 240.537C578.957 240.66 578.735 240.831 578.552 241.039L575.145 244.934L574.875 244.709L572.881 247.095L573.097 247.275L572.645 247.791L572.416 247.599L570.422 249.985L570.598 250.132L554.822 268.164C554.639 268.372 554.499 268.615 554.41 268.877C554.321 269.14 554.285 269.418 554.304 269.694C554.322 269.971 554.395 270.241 554.519 270.489C554.642 270.738 554.813 270.959 555.023 271.141L566.858 281.472C567.28 281.839 567.831 282.025 568.39 281.987C568.949 281.95 569.47 281.692 569.839 281.271V281.271Z" fill="#3F3D56"/>
<path d="M555.301 270.098C555.2 269.916 555.157 269.707 555.18 269.5C555.202 269.293 555.287 269.098 555.424 268.942L579.404 241.53C579.581 241.329 579.831 241.205 580.098 241.187C580.366 241.169 580.63 241.258 580.832 241.434L583.35 243.633L583.252 243.682C583.081 243.768 582.934 243.894 582.823 244.05C582.713 244.206 582.642 244.387 582.618 244.576C582.594 244.766 582.617 244.958 582.685 245.137C582.753 245.316 582.864 245.475 583.008 245.601L588.596 250.479C588.746 250.589 588.919 250.662 589.102 250.692C589.285 250.722 589.473 250.709 589.649 250.654C589.824 250.6 589.982 250.505 590.113 250.378C590.243 250.25 590.342 250.094 590.4 249.922L590.436 249.817L593.038 252.088C593.239 252.265 593.363 252.514 593.381 252.781C593.399 253.049 593.31 253.312 593.134 253.514L570.254 279.667C569.785 280.202 569.123 280.529 568.412 280.577C567.702 280.625 567.002 280.389 566.465 279.922L555.52 270.368C555.432 270.291 555.357 270.2 555.301 270.098V270.098Z" fill="white"/>
<path d="M579.469 259.29C581.678 259.29 583.469 257.501 583.469 255.295C583.469 253.088 581.678 251.299 579.469 251.299C577.26 251.299 575.469 253.088 575.469 255.295C575.469 257.501 577.26 259.29 579.469 259.29Z" fill="#6375FF"/>
<path d="M576.446 270.628L565.36 260.953C565.326 260.922 565.297 260.886 565.277 260.845C565.256 260.803 565.244 260.759 565.241 260.713C565.238 260.667 565.244 260.621 565.259 260.577C565.273 260.534 565.296 260.493 565.327 260.459C565.357 260.424 565.394 260.396 565.435 260.376C565.476 260.355 565.521 260.343 565.567 260.34C565.613 260.337 565.659 260.343 565.703 260.358C565.746 260.373 565.786 260.396 565.821 260.426L576.906 270.102C576.941 270.132 576.969 270.169 576.99 270.21C577.01 270.251 577.022 270.296 577.026 270.342C577.029 270.388 577.023 270.434 577.008 270.477C576.993 270.521 576.97 270.561 576.94 270.596C576.91 270.63 576.873 270.659 576.832 270.679C576.79 270.699 576.745 270.711 576.7 270.714C576.654 270.717 576.608 270.711 576.564 270.697C576.52 270.682 576.48 270.659 576.446 270.628V270.628Z" fill="white"/>
<path d="M571.687 268.57L568.041 265.387C567.971 265.326 567.928 265.24 567.922 265.147C567.915 265.055 567.946 264.964 568.007 264.894C568.068 264.824 568.155 264.781 568.247 264.775C568.34 264.769 568.431 264.8 568.501 264.861L572.147 268.043C572.217 268.104 572.26 268.191 572.266 268.283C572.272 268.376 572.242 268.467 572.181 268.537C572.119 268.606 572.033 268.649 571.941 268.655C571.848 268.662 571.757 268.631 571.687 268.57V268.57Z" fill="white"/>
<path d="M569.578 270.98L565.932 267.797C565.898 267.767 565.869 267.73 565.849 267.689C565.828 267.648 565.816 267.603 565.813 267.557C565.81 267.512 565.816 267.466 565.831 267.422C565.846 267.379 565.869 267.338 565.899 267.304C565.929 267.269 565.966 267.241 566.007 267.221C566.048 267.2 566.093 267.188 566.139 267.185C566.185 267.182 566.231 267.188 566.274 267.203C566.318 267.217 566.358 267.24 566.393 267.271L570.039 270.453C570.109 270.514 570.152 270.6 570.158 270.693C570.164 270.785 570.133 270.877 570.072 270.946C570.011 271.016 569.925 271.059 569.832 271.065C569.74 271.071 569.648 271.041 569.578 270.98V270.98Z" fill="white"/>
<path d="M568.499 272.214L564.853 269.031C564.818 269.001 564.79 268.965 564.769 268.923C564.749 268.882 564.736 268.837 564.733 268.792C564.73 268.746 564.736 268.7 564.751 268.656C564.765 268.613 564.789 268.572 564.819 268.538C564.849 268.503 564.886 268.475 564.927 268.454C564.968 268.434 565.013 268.422 565.059 268.419C565.105 268.416 565.151 268.422 565.195 268.437C565.238 268.452 565.279 268.475 565.313 268.505L568.959 271.688C568.994 271.718 569.022 271.755 569.043 271.796C569.063 271.837 569.075 271.882 569.078 271.927C569.081 271.973 569.075 272.019 569.061 272.063C569.046 272.106 569.023 272.146 568.993 272.181C568.962 272.215 568.926 272.244 568.884 272.264C568.843 272.284 568.799 272.296 568.753 272.3C568.707 272.303 568.661 272.297 568.617 272.282C568.574 272.267 568.534 272.244 568.499 272.214V272.214Z" fill="white"/>
<path d="M572.692 271.543L564.956 264.79C564.922 264.76 564.893 264.723 564.873 264.682C564.852 264.641 564.84 264.596 564.837 264.551C564.834 264.505 564.84 264.459 564.854 264.415C564.869 264.372 564.892 264.331 564.922 264.297C564.953 264.262 564.989 264.234 565.031 264.213C565.072 264.193 565.117 264.181 565.163 264.178C565.209 264.175 565.255 264.181 565.298 264.196C565.342 264.21 565.382 264.234 565.417 264.264L573.153 271.016C573.187 271.047 573.216 271.083 573.236 271.124C573.256 271.166 573.269 271.21 573.272 271.256C573.275 271.302 573.269 271.348 573.254 271.391C573.239 271.435 573.216 271.475 573.186 271.51C573.156 271.544 573.119 271.572 573.078 271.593C573.037 271.613 572.992 271.625 572.946 271.628C572.9 271.631 572.854 271.625 572.811 271.611C572.767 271.596 572.727 271.573 572.692 271.543V271.543Z" fill="white"/>
<path d="M564.981 273.601L563.657 272.445C563.598 272.394 563.55 272.331 563.515 272.261C563.481 272.192 563.46 272.115 563.455 272.038C563.45 271.96 563.46 271.882 563.485 271.808C563.51 271.734 563.549 271.665 563.601 271.607C563.652 271.548 563.714 271.5 563.785 271.465C563.855 271.43 563.931 271.41 564.009 271.405C564.087 271.399 564.165 271.41 564.239 271.435C564.313 271.459 564.381 271.499 564.44 271.55L565.764 272.706C565.883 272.809 565.956 272.956 565.966 273.113C565.977 273.271 565.924 273.426 565.821 273.544C565.717 273.663 565.57 273.736 565.413 273.746C565.255 273.757 565.1 273.705 564.981 273.601V273.601Z" fill="white"/>
<path d="M548.259 251.98C547.587 251.313 547.071 250.507 546.745 249.618C546.419 248.73 546.292 247.781 546.374 246.839C546.455 245.896 546.742 244.983 547.214 244.163C547.687 243.344 548.334 242.638 549.109 242.095L538.535 190.977L549.943 194.572L558.451 244.024C559.278 245.386 559.576 247.003 559.289 248.57C559.001 250.136 558.149 251.543 556.893 252.524C555.636 253.505 554.063 253.991 552.472 253.891C550.881 253.79 549.382 253.11 548.259 251.98V251.98Z" fill="#9E616A"/>
<path d="M523.817 115.34L530.884 110.012C530.884 110.012 537.118 109.571 538.222 120.8C539.326 132.03 546.24 175.129 546.24 175.129L557.053 225.157L542.084 228.439L530.502 174.45L518.908 137.203L523.817 115.34Z" fill="#2F2E41"/>
<path d="M525.657 207.467L502.593 177.838C502.183 177.31 501.999 176.64 502.082 175.977C502.165 175.313 502.508 174.71 503.036 174.299L536.935 147.971C537.464 147.561 538.134 147.377 538.798 147.46C539.463 147.543 540.067 147.886 540.478 148.414L563.542 178.043C563.953 178.571 564.137 179.24 564.053 179.904C563.97 180.567 563.627 181.171 563.099 181.582L529.2 207.91C528.672 208.32 528.001 208.503 527.337 208.42C526.673 208.337 526.069 207.994 525.657 207.467Z" fill="#3F3D56"/>
<path d="M526.241 204.792L505.332 177.932C504.968 177.463 504.805 176.869 504.879 176.28C504.953 175.69 505.257 175.155 505.726 174.79L536.749 150.695C537.219 150.331 537.814 150.168 538.403 150.242C538.993 150.316 539.53 150.62 539.895 151.088L560.804 177.948C561.168 178.418 561.331 179.012 561.257 179.601C561.184 180.19 560.879 180.726 560.41 181.091L529.387 205.185C528.917 205.549 528.323 205.712 527.733 205.638C527.143 205.565 526.607 205.26 526.241 204.792V204.792Z" fill="white"/>
<path d="M555.557 180.309L545.009 166.759C544.964 166.701 544.93 166.635 544.911 166.564C544.891 166.493 544.886 166.419 544.895 166.346C544.904 166.273 544.927 166.203 544.964 166.139C545 166.075 545.049 166.019 545.107 165.973C545.165 165.928 545.232 165.895 545.303 165.876C545.374 165.856 545.448 165.851 545.521 165.86C545.594 165.869 545.664 165.893 545.728 165.929C545.792 165.965 545.848 166.014 545.894 166.072L556.442 179.622C556.487 179.68 556.52 179.747 556.54 179.817C556.56 179.888 556.565 179.963 556.556 180.036C556.547 180.109 556.524 180.179 556.487 180.243C556.451 180.307 556.402 180.364 556.344 180.409C556.286 180.454 556.219 180.487 556.148 180.507C556.077 180.526 556.003 180.531 555.93 180.522C555.857 180.513 555.786 180.489 555.722 180.453C555.658 180.416 555.602 180.368 555.557 180.309V180.309Z" fill="#E4E4E4"/>
<path d="M553.808 181.667L543.26 168.117C543.215 168.059 543.182 167.993 543.162 167.922C543.142 167.851 543.137 167.776 543.146 167.703C543.155 167.63 543.178 167.56 543.215 167.496C543.251 167.432 543.3 167.375 543.358 167.33C543.416 167.285 543.483 167.252 543.554 167.232C543.625 167.213 543.699 167.208 543.772 167.217C543.845 167.226 543.916 167.25 543.98 167.286C544.044 167.323 544.1 167.371 544.145 167.43L554.693 180.98C554.784 181.097 554.825 181.246 554.806 181.393C554.787 181.54 554.711 181.673 554.594 181.764C554.477 181.855 554.328 181.896 554.181 181.878C554.034 181.86 553.9 181.784 553.808 181.667V181.667Z" fill="#E4E4E4"/>
<path d="M546.084 175.348L541.512 169.475C541.467 169.417 541.433 169.35 541.413 169.279C541.394 169.208 541.388 169.134 541.397 169.061C541.406 168.988 541.43 168.918 541.466 168.853C541.503 168.789 541.551 168.733 541.609 168.688C541.668 168.643 541.734 168.61 541.805 168.59C541.876 168.571 541.951 168.565 542.024 168.575C542.097 168.584 542.168 168.607 542.232 168.644C542.296 168.68 542.352 168.729 542.397 168.787L546.969 174.661C547.06 174.778 547.101 174.927 547.083 175.074C547.064 175.221 546.988 175.355 546.87 175.446C546.753 175.538 546.604 175.578 546.457 175.56C546.31 175.542 546.175 175.466 546.084 175.348V175.348Z" fill="#E4E4E4"/>
<path d="M543.727 186.875L527.075 165.483C527.03 165.425 526.996 165.359 526.976 165.288C526.957 165.217 526.951 165.143 526.96 165.07C526.969 164.997 526.993 164.926 527.029 164.862C527.066 164.798 527.114 164.742 527.172 164.697C527.231 164.651 527.297 164.618 527.368 164.599C527.439 164.579 527.514 164.574 527.587 164.583C527.66 164.592 527.73 164.616 527.795 164.652C527.859 164.689 527.915 164.738 527.96 164.796L544.612 186.187C544.657 186.245 544.691 186.312 544.71 186.383C544.73 186.454 544.735 186.528 544.726 186.601C544.717 186.674 544.694 186.745 544.657 186.809C544.621 186.873 544.572 186.929 544.514 186.974C544.456 187.019 544.389 187.053 544.318 187.072C544.247 187.092 544.173 187.097 544.1 187.088C544.027 187.078 543.956 187.055 543.892 187.018C543.828 186.982 543.772 186.933 543.727 186.875Z" fill="#E4E4E4"/>
<path d="M541.979 188.232L525.327 166.841C525.236 166.724 525.195 166.575 525.213 166.428C525.232 166.281 525.308 166.147 525.425 166.056C525.543 165.965 525.691 165.924 525.839 165.942C525.986 165.96 526.12 166.037 526.212 166.154L542.864 187.545C542.909 187.603 542.942 187.67 542.962 187.74C542.981 187.811 542.987 187.885 542.977 187.958C542.968 188.031 542.945 188.102 542.908 188.166C542.872 188.23 542.823 188.286 542.765 188.331C542.707 188.376 542.641 188.409 542.57 188.429C542.499 188.448 542.425 188.454 542.352 188.444C542.279 188.435 542.208 188.412 542.144 188.375C542.08 188.339 542.024 188.29 541.979 188.232V188.232Z" fill="#E4E4E4"/>
<path d="M538.01 191.315L521.359 169.923C521.313 169.865 521.28 169.799 521.26 169.728C521.24 169.657 521.235 169.583 521.244 169.51C521.253 169.436 521.276 169.366 521.313 169.302C521.349 169.238 521.398 169.182 521.456 169.136C521.514 169.091 521.581 169.058 521.652 169.038C521.723 169.019 521.797 169.014 521.87 169.023C521.944 169.032 522.014 169.056 522.078 169.092C522.142 169.129 522.198 169.178 522.243 169.236L538.895 190.627C538.941 190.685 538.974 190.752 538.993 190.823C539.013 190.894 539.018 190.968 539.009 191.041C539 191.113 538.977 191.184 538.94 191.248C538.904 191.312 538.855 191.368 538.797 191.413C538.739 191.458 538.672 191.491 538.601 191.511C538.531 191.53 538.456 191.536 538.383 191.527C538.31 191.517 538.24 191.494 538.176 191.458C538.112 191.421 538.056 191.373 538.01 191.315V191.315Z" fill="#E4E4E4"/>
<path d="M536.262 192.672L519.611 171.281C519.519 171.164 519.479 171.015 519.497 170.868C519.516 170.721 519.592 170.587 519.709 170.496C519.826 170.404 519.975 170.364 520.123 170.382C520.27 170.4 520.404 170.477 520.495 170.594L537.147 191.985C537.238 192.102 537.279 192.251 537.261 192.398C537.242 192.545 537.166 192.679 537.049 192.77C536.931 192.862 536.783 192.902 536.635 192.884C536.488 192.866 536.354 192.789 536.262 192.672V192.672Z" fill="#E4E4E4"/>
<path d="M532.294 195.755L515.642 174.363C515.597 174.305 515.564 174.239 515.544 174.168C515.524 174.097 515.519 174.023 515.528 173.95C515.537 173.877 515.561 173.806 515.597 173.743C515.634 173.679 515.682 173.622 515.74 173.577C515.798 173.532 515.865 173.499 515.936 173.479C516.007 173.46 516.081 173.455 516.154 173.464C516.227 173.473 516.298 173.496 516.362 173.533C516.426 173.569 516.482 173.618 516.527 173.676L533.179 195.067C533.224 195.125 533.257 195.192 533.277 195.263C533.296 195.333 533.302 195.408 533.293 195.481C533.284 195.553 533.26 195.624 533.224 195.688C533.187 195.752 533.139 195.808 533.081 195.853C533.022 195.898 532.956 195.931 532.885 195.951C532.814 195.97 532.74 195.976 532.667 195.967C532.594 195.957 532.523 195.934 532.459 195.898C532.395 195.861 532.339 195.813 532.294 195.755V195.755Z" fill="#E4E4E4"/>
<path d="M530.545 197.112L513.894 175.721C513.848 175.663 513.815 175.597 513.795 175.526C513.776 175.455 513.771 175.381 513.78 175.308C513.789 175.235 513.812 175.164 513.849 175.1C513.885 175.036 513.934 174.98 513.992 174.935C514.05 174.89 514.116 174.857 514.187 174.837C514.258 174.818 514.333 174.812 514.406 174.822C514.479 174.831 514.549 174.854 514.613 174.891C514.677 174.927 514.733 174.976 514.778 175.034L531.43 196.425C531.521 196.542 531.562 196.691 531.543 196.838C531.524 196.985 531.448 197.119 531.331 197.21C531.214 197.301 531.065 197.341 530.918 197.323C530.771 197.305 530.637 197.229 530.545 197.112Z" fill="#E4E4E4"/>
<path d="M559.163 222.053C559.29 222.053 559.393 221.951 559.393 221.824C559.393 221.697 559.29 221.594 559.163 221.594C559.036 221.594 558.933 221.697 558.933 221.824C558.933 221.951 559.036 222.053 559.163 222.053Z" fill="white"/>
<path d="M575.89 282.266H574.236V267.391C574.236 262.058 572.115 256.943 568.339 253.172C564.564 249.401 559.444 247.283 554.104 247.283C548.765 247.283 543.645 249.401 539.87 253.172C536.094 256.943 533.973 262.058 533.973 267.391V282.266H532.319V267.391C532.319 261.62 534.614 256.085 538.7 252.004C542.785 247.923 548.327 245.63 554.104 245.63C559.882 245.63 565.424 247.923 569.509 252.004C573.595 256.085 575.89 261.62 575.89 267.391V282.266Z" fill="#2F2E41"/>
<path d="M600.516 268.779C599.967 266.419 598.632 264.314 596.729 262.811C594.826 261.308 592.469 260.495 590.042 260.505H515.023C512.452 260.513 509.968 261.436 508.018 263.109C506.068 264.783 504.779 267.096 504.384 269.633C503.258 277.463 502.887 285.383 503.275 293.284C503.402 296.325 503.628 299.447 503.953 302.649C504.163 304.743 504.413 306.873 504.703 309.04C505.059 311.616 506.334 313.976 508.294 315.687C510.254 317.398 512.767 318.344 515.37 318.35H589.899C592.345 318.362 594.722 317.535 596.632 316.008C598.542 314.481 599.87 312.347 600.395 309.96C600.946 307.514 601.402 305.077 601.763 302.649C602.231 299.545 602.544 296.419 602.7 293.284C603.125 285.054 602.39 276.805 600.516 268.779V268.779Z" fill="#6375FF"/>
<path d="M575.89 277.583H574.236V262.708C574.236 257.375 572.115 252.261 568.339 248.49C564.564 244.719 559.444 242.6 554.104 242.6C548.765 242.6 543.645 244.719 539.87 248.49C536.094 252.261 533.973 257.375 533.973 262.708V277.583H532.319V262.708C532.319 256.937 534.614 251.402 538.7 247.321C542.785 243.24 548.327 240.948 554.104 240.948C559.882 240.948 565.424 243.24 569.509 247.321C573.595 251.402 575.89 256.937 575.89 262.708V277.583Z" fill="#2F2E41"/>
<path d="M555.5 264.681L552.743 259.91C552.487 259.433 552.093 259.044 551.612 258.794C551.132 258.544 550.587 258.445 550.049 258.509C549.511 258.574 549.005 258.798 548.597 259.154C548.189 259.51 547.898 259.981 547.762 260.505V266.014C547.762 266.525 547.965 267.016 548.327 267.377C548.689 267.739 549.18 267.942 549.692 267.942C550.204 267.942 550.695 267.739 551.057 267.377C551.419 267.016 551.622 266.525 551.622 266.014V265.684L552.157 266.609C552.413 267.052 552.834 267.375 553.329 267.507C553.824 267.64 554.35 267.57 554.794 267.315C555.237 267.059 555.561 266.638 555.693 266.144C555.826 265.65 555.756 265.124 555.5 264.681V264.681Z" fill="#2F2E41"/>
<path d="M533.697 280.888C535.525 280.888 537.007 279.409 537.007 277.583C537.007 275.757 535.525 274.278 533.697 274.278C531.87 274.278 530.388 275.757 530.388 277.583C530.388 279.409 531.87 280.888 533.697 280.888Z" fill="#2F2E41"/>
<path d="M574.787 281.164C576.614 281.164 578.096 279.684 578.096 277.859C578.096 276.033 576.614 274.553 574.787 274.553C572.959 274.553 571.478 276.033 571.478 277.859C571.478 279.684 572.959 281.164 574.787 281.164Z" fill="#2F2E41"/>
<path d="M602.7 293.284C602.544 296.419 602.231 299.545 601.762 302.649H503.953C503.628 299.443 503.402 296.321 503.275 293.284H602.7Z" fill="#3F3D56"/>
<path d="M317.779 343.906C319.664 328.765 329.059 313.847 343.515 308.919C337.814 324.504 337.815 341.6 343.519 357.184C345.74 363.186 348.836 369.63 346.747 375.679C345.447 379.443 342.266 382.323 338.711 384.123C335.156 385.924 331.21 386.782 327.314 387.623L326.547 388.257C320.362 374.306 315.894 359.047 317.779 343.906Z" fill="#E6E6E6"/>
<path d="M343.658 309.206C335.239 318.628 330.007 330.46 328.704 343.022C328.375 345.721 328.475 348.455 328.999 351.124C329.593 353.707 330.869 356.083 332.694 358.007C334.359 359.835 336.275 361.512 337.467 363.712C338.06 364.848 338.406 366.095 338.483 367.374C338.559 368.652 338.365 369.932 337.911 371.13C336.859 374.145 334.785 376.602 332.674 378.934C330.329 381.523 327.853 384.176 326.856 387.609C326.736 388.025 326.097 387.814 326.217 387.398C327.951 381.425 333.756 378.033 336.524 372.653C337.816 370.143 338.358 367.228 337.147 364.579C336.088 362.261 334.114 360.53 332.412 358.694C330.604 356.844 329.277 354.579 328.548 352.098C327.889 349.465 327.685 346.739 327.942 344.038C328.425 337.946 329.863 331.968 332.204 326.323C334.841 319.865 338.564 313.905 343.213 308.701C343.501 308.379 343.944 308.886 343.658 309.206H343.658Z" fill="white"/>
<path d="M328.886 338.952C326.805 338.448 324.972 337.221 323.714 335.491C322.455 333.762 321.854 331.641 322.016 329.509C322.05 329.078 322.723 329.111 322.688 329.543C322.534 331.528 323.094 333.503 324.27 335.111C325.445 336.72 327.157 337.856 329.097 338.314C329.518 338.414 329.305 339.052 328.886 338.952V338.952Z" fill="white"/>
<path d="M331.728 357.191C335.485 354.95 338.259 351.377 339.496 347.184C339.618 346.769 340.257 346.98 340.135 347.395C338.84 351.756 335.946 355.469 332.031 357.792C331.657 358.013 331.356 357.411 331.728 357.191V357.191Z" fill="white"/>
<path d="M335.466 320.502C336.23 320.864 337.073 321.032 337.918 320.989C338.763 320.946 339.584 320.694 340.307 320.256C340.678 320.03 340.978 320.632 340.61 320.857C339.809 321.337 338.902 321.614 337.968 321.664C337.035 321.713 336.103 321.533 335.255 321.14C335.172 321.11 335.104 321.049 335.064 320.97C335.024 320.891 335.016 320.8 335.041 320.715C335.069 320.631 335.13 320.561 335.21 320.521C335.289 320.481 335.381 320.474 335.466 320.502V320.502Z" fill="white"/>
<path d="M387.58 335.963C387.353 336.11 387.126 336.258 386.898 336.411C383.854 338.411 380.977 340.654 378.296 343.12C378.086 343.307 377.876 343.5 377.671 343.693C371.276 349.701 366.053 356.842 362.268 364.754C360.764 367.904 359.503 371.164 358.495 374.505C357.103 379.119 355.961 384.233 353.205 388.007C352.922 388.404 352.614 388.783 352.284 389.142H327.381C327.324 389.114 327.267 389.091 327.21 389.062L326.216 389.108C326.256 388.932 326.301 388.75 326.341 388.574C326.364 388.472 326.392 388.37 326.415 388.268C326.432 388.2 326.449 388.132 326.46 388.069C326.466 388.047 326.472 388.024 326.477 388.007C326.489 387.944 326.506 387.888 326.517 387.831C326.767 386.815 327.025 385.799 327.29 384.783C327.29 384.777 327.29 384.777 327.295 384.772C329.335 377.036 332.04 369.403 335.818 362.422C335.932 362.212 336.045 361.996 336.171 361.786C337.891 358.649 339.866 355.657 342.074 352.842C343.288 351.304 344.58 349.828 345.944 348.42C349.474 344.79 353.554 341.737 358.035 339.374C366.967 334.663 377.308 332.858 386.853 335.736C387.097 335.81 387.336 335.883 387.58 335.963Z" fill="#E6E6E6"/>
<path d="M387.524 336.279C375.123 338.739 363.813 345.04 355.201 354.286C353.312 356.243 351.743 358.486 350.553 360.932C349.471 363.352 349.057 366.017 349.355 368.65C349.583 371.111 350.101 373.602 349.727 376.076C349.516 377.339 349.04 378.544 348.331 379.61C347.622 380.677 346.694 381.582 345.61 382.266C342.953 384.04 339.817 384.755 336.725 385.347C333.292 386.005 329.716 386.633 326.851 388.775C326.504 389.035 326.121 388.481 326.468 388.222C331.452 384.496 338.132 385.278 343.585 382.647C346.129 381.42 348.319 379.419 348.949 376.575C349.5 374.088 348.968 371.519 348.715 369.029C348.387 366.464 348.693 363.858 349.606 361.439C350.667 358.941 352.147 356.641 353.981 354.639C358.038 350.065 362.79 346.157 368.062 343.058C374.06 339.487 380.625 336.967 387.473 335.608C387.897 335.524 387.946 336.195 387.524 336.279L387.524 336.279Z" fill="white"/>
<path d="M357.799 351.146C356.442 349.492 355.718 347.41 355.756 345.272C355.794 343.134 356.591 341.079 358.006 339.474C358.293 339.15 358.81 339.581 358.523 339.905C357.203 341.397 356.46 343.312 356.429 345.303C356.397 347.294 357.08 349.23 358.352 350.763C358.629 351.096 358.074 351.477 357.799 351.146H357.799Z" fill="white"/>
<path d="M349.075 367.418C353.425 367.888 357.794 366.703 361.309 364.099C361.657 363.841 362.04 364.394 361.692 364.652C358.029 367.355 353.481 368.579 348.954 368.079C348.523 368.031 348.646 367.37 349.075 367.418H349.075Z" fill="white"/>
<path d="M374.174 340.371C374.566 341.12 375.137 341.761 375.838 342.235C376.538 342.709 377.346 343.001 378.188 343.087C378.619 343.129 378.496 343.79 378.067 343.748C377.138 343.65 376.246 343.325 375.471 342.803C374.696 342.281 374.061 341.578 373.621 340.754C373.573 340.68 373.555 340.59 373.571 340.503C373.586 340.416 373.635 340.339 373.706 340.286C373.779 340.236 373.87 340.217 373.957 340.232C374.045 340.248 374.123 340.298 374.174 340.371V340.371Z" fill="white"/>
<path d="M579.587 351.435C566.992 337.776 560.512 317.326 567.302 300.04C577.307 317.588 593.204 331.035 612.18 338.003C619.508 340.664 627.935 342.861 631.916 349.558C634.393 353.724 634.568 358.94 633.446 363.654C632.323 368.369 630.017 372.704 627.734 376.98L627.72 378.19C609.884 372.954 592.182 365.095 579.587 351.435Z" fill="#E6E6E6"/>
<path d="M567.681 300.131C569.819 315.353 576.704 329.515 587.359 340.605C589.61 343.033 592.23 345.092 595.123 346.705C597.992 348.185 601.206 348.871 604.43 348.692C607.44 348.585 610.506 348.127 613.489 348.752C615.011 349.095 616.444 349.755 617.693 350.69C618.942 351.625 619.979 352.812 620.736 354.175C622.711 357.523 623.364 361.379 623.871 365.172C624.435 369.384 624.953 373.768 627.361 377.393C627.653 377.832 626.954 378.259 626.662 377.82C622.473 371.513 623.884 363.46 621.06 356.66C619.742 353.487 617.459 350.691 614.043 349.73C611.055 348.89 607.893 349.359 604.847 349.494C601.704 349.715 598.555 349.165 595.675 347.89C592.709 346.429 590.013 344.475 587.704 342.111C582.419 336.871 577.993 330.835 574.586 324.222C570.655 316.696 568.043 308.554 566.862 300.148C566.789 299.628 567.608 299.615 567.681 300.131H567.681Z" fill="white"/>
<path d="M583.718 337.236C581.612 338.769 579.03 339.504 576.432 339.311C573.833 339.117 571.389 338.008 569.534 336.18C569.16 335.809 569.719 335.211 570.094 335.583C571.818 337.288 574.095 338.321 576.515 338.496C578.935 338.671 581.338 337.977 583.29 336.538C583.715 336.225 584.14 336.925 583.718 337.236V337.236Z" fill="white"/>
<path d="M602.912 348.947C603.784 343.699 602.643 338.315 599.718 333.869C599.428 333.429 600.127 333.002 600.417 333.442C603.452 338.074 604.628 343.679 603.708 349.139C603.62 349.659 602.824 349.465 602.912 348.947V348.947Z" fill="white"/>
<path d="M571.74 316.618C572.678 316.194 573.496 315.544 574.121 314.727C574.746 313.909 575.158 312.949 575.32 311.933C575.401 311.412 576.197 311.607 576.116 312.125C575.932 313.247 575.476 314.306 574.788 315.211C574.099 316.116 573.2 316.838 572.167 317.316C572.074 317.369 571.963 317.384 571.859 317.359C571.754 317.334 571.663 317.27 571.604 317.18C571.548 317.088 571.53 316.976 571.556 316.871C571.581 316.766 571.647 316.675 571.74 316.618V316.618Z" fill="white"/>
<path d="M627.11 280.436C627.068 280.762 627.027 281.089 626.99 281.421C626.455 285.818 626.277 290.252 626.461 294.678C626.469 295.02 626.483 295.367 626.502 295.709C627.057 306.367 629.588 316.83 633.967 326.566C635.713 330.438 637.752 334.172 640.065 337.736C643.26 342.657 647.116 347.739 648.457 353.264C648.604 353.839 648.714 354.422 648.789 355.011L629.198 378.113C629.127 378.143 629.062 378.178 628.99 378.209L628.25 379.167C628.118 378.991 627.985 378.807 627.853 378.631C627.776 378.53 627.703 378.423 627.626 378.322C627.576 378.252 627.526 378.183 627.477 378.123C627.46 378.1 627.444 378.077 627.432 378.058C627.383 377.999 627.344 377.938 627.3 377.883C626.552 376.852 625.81 375.814 625.074 374.769C625.069 374.764 625.069 374.764 625.068 374.755C619.48 366.777 614.511 358.263 610.992 349.267C610.886 348.996 610.775 348.721 610.678 348.44C609.115 344.376 607.887 340.191 607.006 335.927C606.531 333.591 606.175 331.232 605.939 328.86C605.341 322.729 605.712 316.543 607.039 310.527C609.686 298.536 616.142 287.523 626.327 280.932C626.587 280.763 626.844 280.6 627.11 280.436Z" fill="#E6E6E6"/>
<path d="M627.359 280.736C619.892 294.175 616.853 309.623 618.675 324.886C619.009 328.178 619.861 331.398 621.198 334.426C622.597 337.333 624.749 339.813 627.432 341.609C629.899 343.333 632.623 344.812 634.628 347.105C635.637 348.294 636.383 349.683 636.817 351.181C637.251 352.678 637.363 354.25 637.146 355.793C636.705 359.654 634.902 363.126 633.021 366.46C630.932 370.161 628.704 373.973 628.441 378.316C628.409 378.842 627.594 378.762 627.626 378.236C628.082 370.681 634.064 365.1 635.907 357.972C636.767 354.646 636.63 351.041 634.481 348.219C632.602 345.752 629.795 344.225 627.281 342.5C624.638 340.787 622.456 338.453 620.924 335.703C619.437 332.753 618.462 329.572 618.043 326.296C616.982 318.934 617.086 311.452 618.352 304.123C619.75 295.75 622.572 287.679 626.695 280.256C626.951 279.797 627.613 280.28 627.359 280.736V280.736Z" fill="white"/>
<path d="M617.799 320.006C615.194 319.964 612.689 318.998 610.731 317.281C608.773 315.564 607.49 313.208 607.11 310.633C607.035 310.112 607.843 309.971 607.918 310.493C608.267 312.891 609.462 315.086 611.289 316.681C613.115 318.276 615.453 319.166 617.879 319.191C618.406 319.197 618.324 320.012 617.799 320.006Z" fill="white"/>
<path d="M626.065 340.899C629.925 337.233 632.26 332.249 632.604 326.94C632.637 326.414 633.453 326.494 633.419 327.019C633.051 332.543 630.611 337.725 626.586 341.531C626.202 341.894 625.684 341.26 626.065 340.899V340.899Z" fill="white"/>
<path d="M620.663 296.34C621.667 296.566 622.712 296.539 623.704 296.262C624.696 295.985 625.603 295.466 626.345 294.753C626.724 294.385 627.242 295.02 626.865 295.385C626.042 296.169 625.04 296.741 623.945 297.05C622.849 297.358 621.695 297.394 620.583 297.154C620.477 297.14 620.379 297.086 620.311 297.003C620.242 296.92 620.208 296.815 620.215 296.707C620.226 296.599 620.279 296.5 620.363 296.432C620.447 296.363 620.555 296.33 620.663 296.34V296.34Z" fill="white"/>
<path d="M412.366 153.351C411.214 152.539 409.953 151.692 408.544 151.726C405.131 151.808 403.292 156.804 399.883 156.628C397.709 156.516 396.266 154.311 394.242 153.511C391.607 152.47 388.253 154.506 387.966 157.322L388.304 157.013C398.548 159.507 409.177 159.997 419.607 158.457C417.194 156.755 414.78 155.053 412.366 153.351Z" fill="#F2F2F2"/>
<path d="M402.99 228.826C401.837 228.013 400.577 227.166 399.167 227.2C395.755 227.282 393.915 232.279 390.506 232.103C388.333 231.991 386.89 229.785 384.865 228.985C382.23 227.944 378.877 229.98 378.589 232.796L378.928 232.487C389.171 234.981 399.801 235.472 410.231 233.931C407.817 232.229 405.403 230.528 402.99 228.826Z" fill="#F2F2F2"/>
<path d="M634.918 86.5777C632.024 82.6417 628.858 78.5372 625.317 78.7013C616.747 79.0984 612.127 103.308 603.565 102.457C598.106 101.914 594.481 91.2259 589.398 87.3505C582.779 82.3054 574.357 92.1724 573.635 105.817L574.485 104.318C600.129 116.396 626.992 118.788 653.105 111.317C647.043 103.07 640.98 94.8241 634.918 86.5777Z" fill="#F2F2F2"/>
<path d="M361.343 124.155C375.05 124.155 386.162 113.056 386.162 99.3641C386.162 85.6725 375.05 74.5732 361.343 74.5732C347.635 74.5732 336.523 85.6725 336.523 99.3641C336.523 113.056 347.635 124.155 361.343 124.155Z" fill="#F2F2F2"/>
<path d="M486.541 59.6987C491.11 59.6987 494.814 55.9989 494.814 51.435C494.814 46.8711 491.11 43.1714 486.541 43.1714C481.972 43.1714 478.268 46.8711 478.268 51.435C478.268 55.9989 481.972 59.6987 486.541 59.6987Z" fill="#2F2E41"/>
<path d="M499.778 91.1005C511.353 91.1005 520.736 81.7278 520.736 70.166C520.736 58.6042 511.353 49.2314 499.778 49.2314C488.203 49.2314 478.82 58.6042 478.82 70.166C478.82 81.7278 488.203 91.1005 499.778 91.1005Z" fill="#2F2E41"/>
<path d="M488.989 386.066H498.851L503.544 348.071H488.989V386.066Z" fill="#9E616A"/>
<path d="M485.77 379.319L501.526 378.38V385.122L516.505 395.456C517.245 395.966 517.802 396.699 518.095 397.548C518.389 398.397 518.402 399.317 518.135 400.175C517.867 401.032 517.332 401.782 516.608 402.314C515.884 402.846 515.008 403.133 514.109 403.133H495.352L492.118 396.464L490.856 403.133H483.784L485.77 379.319Z" fill="#2F2E41"/>
<path d="M430.399 373.634L438.313 379.512L464.777 351.82L453.097 343.145L430.399 373.634Z" fill="#9E616A"/>
<path d="M431.847 366.302L445.051 374.939L441.023 380.35L446.87 397.57C447.159 398.42 447.168 399.341 446.896 400.197C446.624 401.053 446.086 401.8 445.359 402.328C444.632 402.857 443.755 403.139 442.856 403.135C441.957 403.13 441.083 402.839 440.361 402.303L425.309 391.122L426.699 383.843L421.702 388.443L416.026 384.228L431.847 366.302Z" fill="#2F2E41"/>
<path d="M521.288 175.94H483.784V211.198H521.288V175.94Z" fill="#9E616A"/>
<path d="M477.507 190.03C477.507 190.03 458.796 206.177 467.429 252.21L477.969 297.314L443.596 354.274L454.556 367.592L499.242 305.939L515.435 267.999L524 201.504L477.507 190.03Z" fill="#2F2E41"/>
<path d="M506.509 278.811L507.634 296.221L504.19 370.411L487.983 367.592L484.886 314.769L506.509 278.811Z" fill="#2F2E41"/>
<path d="M511.538 96.8947L493.442 97.5998L486.23 109.558L469.776 112.766L479.599 162.403L469.897 198.427L504.757 213.665L512.514 190.444L522.824 218.596L539.376 200.618L525.752 165.915L532.8 138.538L531.216 109.831L517.979 108.178L511.538 96.8947Z" fill="#2F2E41"/>
<path d="M501.512 91.0952C510.918 91.0952 518.543 83.4789 518.543 74.0836C518.543 64.6883 510.918 57.0719 501.512 57.0719C492.106 57.0719 484.481 64.6883 484.481 74.0836C484.481 83.4789 492.106 91.0952 501.512 91.0952Z" fill="#9E616A"/>
<path d="M513.078 56.7426C510.094 54.9253 506.676 53.9422 503.181 53.8962C499.686 53.8502 496.243 54.7429 493.211 56.481C490.18 58.2191 487.672 60.7387 485.949 63.7764C484.227 66.8142 483.352 70.2584 483.419 73.749C492.097 75.9254 501.214 77.5909 510.468 74.2696L512.654 68.9267L513.942 74.2736C516.761 75.4242 519.586 76.3978 522.412 74.2624C522.527 70.7817 521.726 67.3316 520.088 64.2571C518.45 61.1827 516.033 58.5915 513.078 56.7426V56.7426Z" fill="#2F2E41"/>
<path d="M478.839 29.0023C473.118 26.3822 465.94 27.6117 461.176 31.7201C456.413 35.8285 454.148 42.515 455.068 48.7339C456.006 55.078 459.867 60.5412 463.427 65.8785C466.986 71.2159 470.463 77.0644 470.459 83.4774C470.456 88.0964 468.619 92.5257 465.352 95.794C462.084 99.0624 457.653 100.903 453.028 100.912C458.456 103.246 464.12 105.625 470.023 105.349C475.925 105.072 482.111 101.282 483.074 95.4588C483.768 91.2629 481.707 87.1714 479.988 83.2807C477.188 76.9409 475.165 70.2869 473.961 63.4628C473.387 60.2058 473.013 56.7818 474.076 53.6498C474.923 51.329 476.493 49.3412 478.557 47.9798C480.62 46.6183 483.067 45.9551 485.536 46.0881L487.487 44.3356C488.354 38.1092 484.559 31.6224 478.839 29.0023Z" fill="#2F2E41"/>
<path d="M470.494 221.666H454.217C453.85 221.665 453.487 221.744 453.154 221.898C452.82 222.052 452.525 222.277 452.287 222.557C451.687 222.447 451.069 222.48 450.484 222.655C449.899 222.829 449.364 223.14 448.923 223.561C448.482 223.982 448.147 224.502 447.945 225.078C447.744 225.654 447.682 226.269 447.765 226.873C447.848 227.477 448.073 228.053 448.422 228.553C448.771 229.053 449.234 229.464 449.772 229.751C450.311 230.038 450.91 230.193 451.52 230.204C452.131 230.215 452.735 230.082 453.283 229.814L455.185 245.765C455.345 246.284 455.667 246.739 456.105 247.062C456.542 247.384 457.072 247.559 457.616 247.558H468.199C468.743 247.558 469.272 247.384 469.71 247.062C470.147 246.739 470.47 246.284 470.629 245.765L472.925 224.953C473.042 224.573 473.068 224.171 473.002 223.779C472.935 223.388 472.777 223.017 472.54 222.697C472.304 222.377 471.995 222.117 471.64 221.938C471.285 221.759 470.892 221.666 470.494 221.666V221.666ZM451.601 229.103C450.869 229.103 450.168 228.813 449.651 228.296C449.134 227.78 448.843 227.079 448.843 226.349C448.843 225.618 449.134 224.917 449.651 224.401C450.168 223.884 450.869 223.594 451.601 223.594C451.651 223.594 451.698 223.606 451.748 223.609C451.638 224.052 451.651 224.517 451.786 224.953L452.951 228.735C452.541 228.973 452.075 229.1 451.601 229.103V229.103Z" fill="#6375FF"/>
<path d="M456.967 247.573C457.635 246.902 458.148 246.093 458.469 245.204C458.79 244.314 458.912 243.364 458.826 242.422C458.74 241.48 458.449 240.568 457.972 239.751C457.495 238.934 456.845 238.231 456.067 237.692L466.38 186.521L454.991 190.174L446.735 239.669C445.915 241.035 445.625 242.654 445.92 244.219C446.215 245.784 447.075 247.186 448.336 248.161C449.598 249.135 451.173 249.613 452.764 249.505C454.354 249.396 455.85 248.709 456.967 247.573H456.967Z" fill="#9E616A"/>
<path d="M476.842 118.095L469.775 112.766C469.775 112.766 463.541 112.325 462.437 123.555C461.333 134.785 454.42 177.884 454.42 177.884L443.606 227.912L458.576 231.194L470.158 177.205L481.752 139.957L476.842 118.095Z" fill="#2F2E41"/>
<path d="M537.834 164.675C540.044 164.675 541.835 162.886 541.835 160.68C541.835 158.473 540.044 156.684 537.834 156.684C535.625 156.684 533.834 158.473 533.834 160.68C533.834 162.886 535.625 164.675 537.834 164.675Z" fill="#6375FF"/>
</g>
</g>
<defs>
<clipPath id="clip0_280_662">
<rect width="378.842" height="403.835" fill="white" transform="matrix(-1 0 0 1 378.842 0)"/>
</clipPath>
<clipPath id="clip1_280_662">
<rect width="735.322" height="376.211" fill="white" transform="translate(23.6772 27.6239)"/>
</clipPath>
</defs>
</svg>
