<svg width="42" height="22" viewBox="0 0 42 22" fill="none" xmlns="http://www.w3.org/2000/svg">
<g clip-path="url(#clip0_281_398)">
<path d="M21 21.9348C32.598 21.9348 42 17.0245 42 10.9674C42 4.91028 32.598 0 21 0C9.40202 0 0 4.91028 0 10.9674C0 17.0245 9.40202 21.9348 21 21.9348Z" fill="url(#paint0_radial_281_398)"/>
<path d="M21 21.12C32.1449 21.12 41.1797 16.5745 41.1797 10.9674C41.1797 5.36029 32.1449 0.814819 21 0.814819C9.85507 0.814819 0.820312 5.36029 0.820312 10.9674C0.820312 16.5745 9.85507 21.12 21 21.12Z" fill="#6181B6"/>
<path d="M25.0852 14.2593L26.086 9.14224C26.3157 7.9852 26.1188 7.1215 25.5282 6.58372C24.954 6.06224 23.9696 5.8015 22.5258 5.8015H20.7868L21.279 3.25928C21.2954 3.1615 21.279 3.06372 21.2133 2.98224C21.1477 2.90076 21.0657 2.86816 20.9672 2.86816H18.5719C18.4079 2.86816 18.2766 2.98224 18.2438 3.1289L17.1774 8.55557C17.079 7.93631 16.8493 7.41483 16.4555 6.99113C15.7501 6.19261 14.6508 5.7852 13.1579 5.7852H8.54771C8.38365 5.7852 8.2524 5.89927 8.21959 6.04594L6.07037 17.0622C6.05396 17.16 6.07037 17.2578 6.136 17.3393C6.20162 17.4208 6.28365 17.4533 6.38209 17.4533H8.79381C8.95787 17.4533 9.08912 17.3393 9.12193 17.1926L9.64693 14.5363H11.4352C12.3704 14.5363 13.1743 14.4385 13.7813 14.243C14.4212 14.0311 14.9954 13.6889 15.504 13.2163C15.9141 12.8415 16.2587 12.4178 16.5212 11.9615L16.0946 14.1615C16.0782 14.2593 16.0946 14.3571 16.1602 14.4385C16.2258 14.52 16.3079 14.5526 16.4063 14.5526H18.8016C18.9657 14.5526 19.0969 14.4385 19.1297 14.2919L20.311 8.26224H21.9516C22.6571 8.26224 22.854 8.39261 22.9196 8.45779C22.9688 8.50668 23.0672 8.70224 22.9524 9.3052L22.0008 14.1778C21.9844 14.2756 22.0008 14.3733 22.0665 14.4548C22.1321 14.5363 22.2141 14.5689 22.3126 14.5689H24.7735C24.9212 14.52 25.0524 14.4059 25.0852 14.2593ZM13.9946 10.0222C13.8469 10.7882 13.568 11.3422 13.1579 11.6519C12.7477 11.9615 12.0751 12.1245 11.1891 12.1245H10.1227L10.8938 8.18076H12.2719C13.2891 8.18076 13.6993 8.39261 13.8633 8.57187C14.0766 8.83261 14.1258 9.33779 13.9946 10.0222ZM35.3227 6.99113C34.6172 6.19261 33.518 5.7852 32.0251 5.7852H27.3821C27.218 5.7852 27.0868 5.89927 27.054 6.04594L24.9047 17.0459C24.8883 17.1437 24.9047 17.2415 24.9704 17.323C25.036 17.4045 25.118 17.4371 25.2165 17.4371H27.6282C27.7922 17.4371 27.9235 17.323 27.9563 17.1763L28.4813 14.52H30.2696C31.2047 14.52 32.0087 14.4222 32.6157 14.2267C33.2555 14.0148 33.8297 13.6726 34.3383 13.2C34.7649 12.8089 35.1258 12.3689 35.3883 11.8963C35.6508 11.4237 35.8477 10.9022 35.9626 10.3319C36.2415 8.91409 36.0282 7.80594 35.3227 6.99113ZM32.8126 10.0222C32.6649 10.7882 32.386 11.3422 31.9758 11.6519C31.5657 11.9615 30.893 12.1245 30.0071 12.1245H28.9407L29.7118 8.18076H31.0899C32.1071 8.18076 32.5172 8.39261 32.6813 8.57187C32.911 8.83261 32.9602 9.33779 32.8126 10.0222Z" fill="white"/>
<path d="M12.2719 7.85483C13.1906 7.85483 13.7977 8.0178 14.1094 8.36002C14.4211 8.70224 14.4867 9.27261 14.3227 10.0874C14.1586 10.9348 13.8305 11.5541 13.3547 11.9126C12.8789 12.2711 12.157 12.4504 11.1891 12.4504H9.72891L10.6313 7.85483H12.2719ZM6.39844 17.1111H8.81016L9.38438 14.1941H11.4516C12.3703 14.1941 13.1086 14.0963 13.6992 13.9008C14.2898 13.7052 14.8148 13.3956 15.307 12.9393C15.7172 12.5645 16.0453 12.1571 16.2914 11.7171C16.5375 11.2771 16.718 10.7882 16.8164 10.2504C17.0789 8.94669 16.882 7.93631 16.2422 7.20298C15.6023 6.46965 14.5852 6.11113 13.1906 6.11113H8.54766L6.39844 17.1111ZM18.5883 3.19409H20.9836L20.4094 6.11113H22.5422C23.8875 6.11113 24.8062 6.33928 25.3148 6.81187C25.8234 7.28446 25.9711 8.03409 25.7742 9.07705L24.7734 14.1941H22.3453L23.2969 9.3215C23.4117 8.76743 23.3625 8.39261 23.182 8.19705C23.0016 8.0015 22.5914 7.88743 21.9844 7.88743H20.0648L18.8344 14.1941H16.4391L18.5883 3.19409ZM31.0898 7.85483C32.0086 7.85483 32.6156 8.0178 32.9273 8.36002C33.2391 8.70224 33.3047 9.27261 33.1406 10.0874C32.9766 10.9348 32.6484 11.5541 32.1727 11.9126C31.6969 12.2711 30.975 12.4504 30.007 12.4504H28.5469L29.4492 7.85483H31.0898ZM25.2164 17.1111H27.6281L28.2023 14.1941H30.2695C31.1883 14.1941 31.9266 14.0963 32.5172 13.9008C33.1078 13.7052 33.6328 13.3956 34.125 12.9393C34.5352 12.5645 34.8633 12.1571 35.1094 11.7171C35.3555 11.2771 35.5359 10.7882 35.6344 10.2504C35.8969 8.94669 35.7 7.93631 35.0602 7.20298C34.4203 6.46965 33.4031 6.11113 32.0086 6.11113H27.3656L25.2164 17.1111Z" fill="#000004"/>
</g>
<defs>
<radialGradient id="paint0_radial_281_398" cx="0" cy="0" r="1" gradientUnits="userSpaceOnUse" gradientTransform="translate(12.6085 3.85693) scale(27.5781 27.3933)">
<stop stop-color="white"/>
<stop offset="0.5" stop-color="#4C6B97"/>
<stop offset="1" stop-color="#231F20"/>
</radialGradient>
<clipPath id="clip0_281_398">
<rect width="42" height="22" fill="white"/>
</clipPath>
</defs>
</svg>
