<svg width="28" height="28" viewBox="0 0 28 28" fill="none" xmlns="http://www.w3.org/2000/svg">
<g clip-path="url(#clip0_281_428)">
<path d="M13.8812 0.00793457C6.7902 0.00793457 7.23295 3.09507 7.23295 3.09507L7.24083 6.29344H14.0076V7.25368H4.55316C4.55316 7.25368 0.015625 6.73705 0.015625 13.9199C0.015625 21.1029 3.97609 20.8482 3.97609 20.8482H6.33969V17.515C6.33969 17.515 6.21227 13.539 10.2369 13.539H16.9484C16.9484 13.539 20.7191 13.6001 20.7191 9.88041V3.73007C20.7191 3.73007 21.2918 0.00793457 13.8812 0.00793457ZM10.15 2.15877C10.3099 2.15863 10.4683 2.19014 10.616 2.25151C10.7638 2.31287 10.898 2.40289 11.0111 2.5164C11.1242 2.62991 11.2138 2.7647 11.275 2.91304C11.3361 3.06138 11.3675 3.22036 11.3673 3.38089C11.3675 3.54142 11.3361 3.70041 11.275 3.84875C11.2138 3.99709 11.1242 4.13187 11.0111 4.24538C10.898 4.35889 10.7638 4.44891 10.616 4.51028C10.4683 4.57164 10.3099 4.60315 10.15 4.60301C9.99008 4.60315 9.83172 4.57164 9.68396 4.51028C9.5362 4.44891 9.40194 4.35889 9.28887 4.24538C9.1758 4.13187 9.08614 3.99709 9.02501 3.84875C8.96389 3.70041 8.9325 3.54142 8.93264 3.38089C8.9325 3.22036 8.96389 3.06138 9.02501 2.91304C9.08614 2.7647 9.1758 2.62991 9.28887 2.5164C9.40194 2.40289 9.5362 2.31287 9.68396 2.25151C9.83172 2.19014 9.99008 2.15863 10.15 2.15877Z" fill="url(#paint0_linear_281_428)"/>
<path d="M14.0826 27.904C21.1736 27.904 20.7309 24.8169 20.7309 24.8169L20.723 21.6186H13.9561V20.6584H23.4106C23.4106 20.6584 27.9481 21.175 27.9481 13.992C27.9481 6.80906 23.9876 7.0638 23.9876 7.0638H21.6241V10.3969C21.6241 10.3969 21.7515 14.3729 17.7268 14.3729H11.0153C11.0153 14.3729 7.24463 14.3117 7.24463 18.0316V24.182C7.24463 24.182 6.67205 27.904 14.0825 27.904H14.0826ZM17.8139 25.7534C17.654 25.7536 17.4956 25.722 17.3478 25.6607C17.2001 25.5993 17.0658 25.5093 16.9528 25.3958C16.8397 25.2823 16.75 25.1475 16.6889 24.9992C16.6278 24.8508 16.5964 24.6918 16.5965 24.5313C16.5964 24.3708 16.6277 24.2118 16.6889 24.0634C16.75 23.9151 16.8396 23.7803 16.9527 23.6667C17.0658 23.5532 17.2 23.4632 17.3478 23.4018C17.4956 23.3404 17.654 23.3089 17.8139 23.3091C17.9738 23.3089 18.1321 23.3404 18.2799 23.4018C18.4277 23.4632 18.5619 23.5532 18.675 23.6667C18.788 23.7802 18.8777 23.915 18.9388 24.0633C19 24.2117 19.0314 24.3707 19.0312 24.5312C19.0314 24.6917 19 24.8507 18.9388 24.999C18.8777 25.1474 18.788 25.2822 18.675 25.3957C18.5619 25.5092 18.4277 25.5992 18.2799 25.6606C18.1321 25.7219 17.9738 25.7535 17.8139 25.7533V25.7534Z" fill="url(#paint1_linear_281_428)"/>
</g>
<defs>
<linearGradient id="paint0_linear_281_428" x1="2.69992" y1="2.51702" x2="16.596" y2="16.2207" gradientUnits="userSpaceOnUse">
<stop stop-color="#387EB8"/>
<stop offset="1" stop-color="#366994"/>
</linearGradient>
<linearGradient id="paint1_linear_281_428" x1="11.1965" y1="11.3516" x2="26.1166" y2="25.401" gradientUnits="userSpaceOnUse">
<stop stop-color="#FFE052"/>
<stop offset="1" stop-color="#FFC331"/>
</linearGradient>
<clipPath id="clip0_281_428">
<rect width="28" height="28" fill="white"/>
</clipPath>
</defs>
</svg>
