<svg width="32" height="32" viewBox="0 0 32 32" fill="none" xmlns="http://www.w3.org/2000/svg">
<path d="M8.56211 15.256C10.9501 16.0954 13.4694 16.4994 16.0001 16.449C18.5309 16.4991 21.0502 16.0947 23.4381 15.255C25.3021 14.528 25.9631 13.72 25.9631 13.255V9.70001C25.3114 10.1364 24.6123 10.4974 23.8791 10.776C21.3526 11.6807 18.6834 12.1218 16.0001 12.078C13.317 12.121 10.6482 11.6806 8.12111 10.778C7.38758 10.4994 6.68836 10.1377 6.03711 9.70001V13.25C6.03711 13.724 6.70011 14.528 8.56211 15.256ZM8.56211 21.961C9.40572 22.2827 10.2756 22.5307 11.1621 22.702C12.7562 23.0104 14.3765 23.1621 16.0001 23.155C17.6237 23.1624 19.244 23.011 20.8381 22.703C21.7246 22.5316 22.5945 22.2837 23.4381 21.962C25.3021 21.235 25.9631 20.427 25.9631 19.962V16.572C25.4244 16.8962 24.8582 17.1722 24.2711 17.397C21.6169 18.3368 18.8153 18.7917 16.0001 18.74C13.1846 18.7901 10.383 18.3335 7.72911 17.392C7.14223 17.1666 6.57609 16.8906 6.03711 16.567V19.96C6.03711 20.426 6.70011 21.231 8.56211 21.961ZM16.0001 30C21.5001 30 25.9631 28.256 25.9631 26.106V23.269C25.4731 23.5644 24.9597 23.8193 24.4281 24.031L24.2711 24.094C21.6174 25.0366 18.8158 25.4942 16.0001 25.445C13.1843 25.4956 10.3825 25.0379 7.72911 24.094C7.67511 24.074 7.62311 24.051 7.57211 24.031C7.04053 23.8193 6.52716 23.5644 6.03711 23.269V26.106C6.03711 28.256 10.5001 30 16.0001 30Z" fill="#FFDA44"/>
<path d="M16.0001 9.788C21.5025 9.788 25.9631 8.0446 25.9631 5.894C25.9631 3.7434 21.5025 2 16.0001 2C10.4977 2 6.03711 3.7434 6.03711 5.894C6.03711 8.0446 10.4977 9.788 16.0001 9.788Z" fill="#FFDA44"/>
</svg>
