<svg width="29" height="29" viewBox="0 0 29 29" fill="none" xmlns="http://www.w3.org/2000/svg">
<g clip-path="url(#clip0_281_425)">
<path d="M2.26562 0H26.7344C27.9857 0 29 1.01432 29 2.26562V26.7344C29 27.9857 27.9857 29 26.7344 29H2.26562C1.01432 29 0 27.9857 0 26.7344V2.26562C0 1.01432 1.01432 0 2.26562 0Z" fill="#3178C6"/>
<path d="M17.0509 22.7101V25.8389C17.5597 26.0997 18.1616 26.2952 18.8563 26.4256C19.5511 26.556 20.2833 26.6211 21.0532 26.6211C21.8034 26.6211 22.5161 26.5494 23.1913 26.406C23.8664 26.2626 24.4586 26.0263 24.9673 25.6972C25.4762 25.368 25.879 24.9377 26.1759 24.4064C26.4727 23.8753 26.6211 23.2186 26.6211 22.4364C26.6211 21.8693 26.5362 21.3722 26.3667 20.9452C26.1989 20.5212 25.9496 20.1342 25.6327 19.8062C25.3131 19.4737 24.9298 19.1756 24.483 18.9115C24.0361 18.6476 23.5321 18.3982 22.9711 18.1636C22.5601 17.994 22.1916 17.8296 21.8653 17.6698C21.5392 17.5101 21.2619 17.3472 21.0336 17.1809C20.8052 17.0147 20.6291 16.8387 20.5052 16.6529C20.3812 16.4671 20.3193 16.257 20.3193 16.0223C20.3193 15.8072 20.3747 15.6133 20.4856 15.4406C20.5965 15.2678 20.7531 15.1195 20.9553 14.9957C21.1575 14.8718 21.4054 14.7757 21.699 14.7072C21.9925 14.6388 22.3188 14.6046 22.6775 14.6046C22.9385 14.6046 23.2142 14.6242 23.5044 14.6632C23.7947 14.7023 24.0867 14.7626 24.3803 14.8441C24.673 14.9253 24.9592 15.0282 25.2365 15.1522C25.5053 15.2713 25.7625 15.4153 26.0046 15.5823V12.6588C25.5284 12.4763 25.0081 12.3411 24.4438 12.2531C23.8796 12.165 23.2321 12.1211 22.5014 12.1211C21.7577 12.1211 21.0532 12.201 20.3878 12.3607C19.7224 12.5203 19.1368 12.7696 18.6313 13.1086C18.1257 13.4476 17.7261 13.8794 17.4325 14.4042C17.139 14.9289 16.9922 15.5562 16.9922 16.2863C16.9922 17.2184 17.2612 18.0136 17.7995 18.672C18.3377 19.3303 19.1547 19.8877 20.2507 20.344C20.6553 20.5087 21.0566 20.6815 21.4543 20.8622C21.8262 21.0317 22.1475 21.2076 22.4182 21.3901C22.689 21.5726 22.9026 21.7714 23.0592 21.9865C23.2157 22.2017 23.294 22.4461 23.294 22.7199C23.2953 22.917 23.2447 23.1109 23.1472 23.2821C23.0494 23.4548 22.9009 23.6048 22.702 23.7319C22.5031 23.859 22.2551 23.9583 21.9583 24.03C21.6615 24.1017 21.3141 24.1376 20.9161 24.1376C20.2377 24.1376 19.5658 24.0187 18.9004 23.7807C18.2349 23.5428 17.6184 23.186 17.0509 22.7101ZM11.8359 14.9239H15.8594V12.3477H4.64453V14.9239H8.64846V26.3945H11.8359V14.9239Z" fill="white"/>
</g>
<defs>
<clipPath id="clip0_281_425">
<rect width="29" height="29" fill="white"/>
</clipPath>
</defs>
</svg>
