<svg width="19" height="19" viewBox="0 0 19 19" fill="none" xmlns="http://www.w3.org/2000/svg">
<path d="M14.0365 0H4.69865C2.11142 0 0 2.11142 0 4.69865V14.0513C0 16.6237 2.11142 18.7351 4.69865 18.7351H14.0513C16.6386 18.7351 18.75 16.6237 18.75 14.0365V4.69865C18.7351 2.11142 16.6237 0 14.0365 0ZM9.47165 14.9138C8.46055 14.9138 7.52379 14.661 6.69112 14.2L3.50912 15.2111L4.54996 12.163C4.02954 11.3006 3.73216 10.2895 3.73216 9.21887C3.73216 6.06661 6.30452 3.52399 9.47165 3.52399C12.6388 3.52399 15.2111 6.06661 15.2111 9.21887C15.2111 12.3711 12.6388 14.9138 9.47165 14.9138Z" fill="white"/>
<path d="M9.4719 4.43115C6.81032 4.43115 4.6543 6.57231 4.6543 9.21902C4.6543 10.2599 4.99629 11.2412 5.57618 12.0293L4.96655 13.8136L6.82519 13.2188C7.58352 13.7244 8.50541 14.0069 9.48677 14.0069C12.1484 14.0069 14.3192 11.8657 14.3192 9.21902C14.3044 6.57231 12.1335 4.43115 9.4719 4.43115ZM12.297 11.1966C12.1781 11.5237 11.5982 11.836 11.3454 11.8657C11.0926 11.8955 11.0926 12.0739 9.65033 11.5237C8.22289 10.9587 7.31588 9.5164 7.24153 9.41232C7.16718 9.3231 6.66163 8.65399 6.66163 7.97001C6.66163 7.28603 7.01849 6.94404 7.15231 6.81022C7.28614 6.67639 7.43483 6.63179 7.52404 6.63179C7.61326 6.63179 7.71734 6.64666 7.79169 6.64666C7.8809 6.64666 7.98499 6.60205 8.10394 6.88456C8.22289 7.16708 8.50541 7.85106 8.53515 7.9254C8.56488 7.99975 8.59462 8.07409 8.55002 8.16331C8.50541 8.25252 8.47567 8.312 8.41619 8.40122C8.34185 8.47556 8.2675 8.57965 8.20802 8.63912C8.13368 8.71347 8.05933 8.78781 8.14855 8.92164C8.23776 9.05546 8.52028 9.5164 8.93661 9.88813C9.4719 10.3639 9.93285 10.5126 10.0667 10.587C10.2005 10.6613 10.2897 10.6465 10.3641 10.5572C10.4533 10.468 10.7209 10.1558 10.8101 10.0071C10.8993 9.87326 11.0034 9.88813 11.1224 9.93274C11.2562 9.97735 11.9402 10.3193 12.0889 10.3937C12.2227 10.468 12.3268 10.4978 12.3565 10.5572C12.4011 10.587 12.4011 10.8695 12.297 11.1966Z" fill="white"/>
</svg>
