<svg width="110" height="109" viewBox="0 0 110 109" fill="none" xmlns="http://www.w3.org/2000/svg">
<path d="M19.0168 20.6517V87.8812C19.0168 90.8529 20.2142 93.7029 22.3455 95.8042C24.4768 97.9056 27.3675 99.0861 30.3816 99.0861H90.6148C91.5191 99.0861 92.3863 98.7319 93.0256 98.1015C93.665 97.4711 94.0242 96.6161 94.0242 95.7246C94.0242 94.8331 93.665 93.9781 93.0256 93.3477C92.3863 92.7173 91.5191 92.3631 90.6148 92.3631H30.3816C29.176 92.3631 28.0197 91.8909 27.1672 91.0504C26.3146 90.2099 25.8357 89.0698 25.8357 87.8812H90.6148C91.5191 87.8812 92.3863 87.527 93.0256 86.8966C93.665 86.2662 94.0242 85.4112 94.0242 84.5197V20.6517C94.0242 19.1802 93.7303 17.7232 93.1591 16.3638C92.588 15.0043 91.7509 13.7691 90.6956 12.7286C89.6403 11.6881 88.3874 10.8628 87.0086 10.2997C85.6298 9.7366 84.1519 9.44678 82.6595 9.44678H30.3816C27.3675 9.44678 24.4768 10.6273 22.3455 12.7286C20.2142 14.8299 19.0168 17.68 19.0168 20.6517ZM50.8382 36.4192C50.8168 37.2967 50.4482 38.1311 49.8111 38.7442C49.174 39.3572 48.319 39.7003 47.4287 39.7C44.0193 39.7 44.0193 36.3341 44.0193 36.3341V36.2937C44.0217 36.0931 44.0338 35.8927 44.0557 35.6932C44.2568 33.9618 44.9151 32.3128 45.965 30.9109C48.0288 28.1635 51.7383 26.1511 57.7161 26.2541C62.0347 26.3303 65.8669 28.1142 68.2672 31.0498C70.7083 34.0393 71.5311 38.0865 69.9128 42.071C68.2672 46.1272 64.5441 47.7407 62.4029 48.664L62.1756 48.7671C60.9028 49.3183 60.2982 49.6052 59.9345 49.892L59.93 49.8965V53.1414C59.9306 54.033 59.5719 54.8882 58.933 55.519C58.294 56.1498 57.4271 56.5046 56.5228 56.5052C55.6186 56.5058 54.7511 56.1522 54.1113 55.5222C53.4715 54.8922 53.1117 54.0374 53.1111 53.1459V49.7845C53.1111 47.4404 54.2567 45.7641 55.6705 44.6436C56.8069 43.7472 58.2389 43.1287 59.2435 42.6895L59.4163 42.6133C61.8802 41.5421 63.053 40.8788 63.5849 39.5701C63.8971 38.8664 64.0038 38.0908 63.893 37.3306C63.7821 36.5704 63.4582 35.8558 62.9575 35.2674C61.9484 34.0348 60.0982 33.0174 57.5979 32.9771C53.3475 32.9054 51.9383 34.2545 51.4473 34.9133C51.1222 35.3484 50.9128 35.8569 50.8382 36.3923V36.4192ZM61.0664 65.4713C61.0664 66.66 60.5875 67.8 59.735 68.6406C58.8825 69.4811 57.7262 69.9533 56.5205 69.9533C55.3149 69.9533 54.1586 69.4811 53.3061 68.6406C52.4536 67.8 51.9746 66.66 51.9746 65.4713C51.9746 64.2826 52.4536 63.1426 53.3061 62.3021C54.1586 61.4616 55.3149 60.9894 56.5205 60.9894C57.7262 60.9894 58.8825 61.4616 59.735 62.3021C60.5875 63.1426 61.0664 64.2826 61.0664 65.4713Z" fill="#E2E2E2"/>
</svg>
