<svg width="24" height="24" viewBox="0 0 150 150" fill="none" xmlns="http://www.w3.org/2000/svg">
<g clip-path="url(#clip0_979_3996)">
<path d="M79.8281 9.55313C78.2215 9.43451 76.611 9.37509 75 9.375V0C76.8425 0.000898384 78.6844 0.0696951 80.5219 0.20625L79.8281 9.55313ZM98.6156 13.7719C95.6104 12.6122 92.524 11.6753 89.3813 10.9688L91.4344 1.81875C95.025 2.625 98.5594 3.69375 101.991 5.025L98.6156 13.7719V13.7719ZM111.459 20.4281C110.119 19.5342 108.746 18.6899 107.344 17.8969L111.966 9.74063C115.171 11.5569 118.239 13.6062 121.144 15.8719L115.378 23.2688C114.107 22.2772 112.8 21.3328 111.459 20.4375V20.4281ZM128.653 37.2094C126.799 34.5748 124.753 32.0805 122.531 29.7469L129.319 23.2781C131.85 25.95 134.194 28.8094 136.322 31.8094L128.653 37.2094V37.2094ZM135.628 49.8844C135.013 48.3981 134.344 46.9346 133.622 45.4969L141.994 41.2781C143.649 44.5696 145.059 47.9788 146.212 51.4781L137.306 54.4125C136.802 52.8831 136.243 51.3727 135.628 49.8844V49.8844ZM140.597 73.3875C140.521 70.1657 140.208 66.9539 139.659 63.7781L148.894 62.1844C149.522 65.8031 149.888 69.4781 149.981 73.1531L140.606 73.3875H140.597ZM139.369 87.8063C139.678 86.2125 139.931 84.6281 140.128 83.025L149.437 84.1781C148.987 87.8358 148.266 91.4551 147.281 95.0063L138.244 92.5031C138.675 90.9563 139.05 89.3906 139.369 87.8063V87.8063ZM130.444 110.109C132.169 107.391 133.687 104.541 135 101.597L143.569 105.394C142.069 108.769 140.334 112.013 138.366 115.125L130.444 110.109ZM121.406 121.406C122.55 120.263 123.647 119.081 124.688 117.863L131.794 123.984C130.59 125.38 129.336 126.731 128.034 128.034L121.406 121.406V121.406Z" fill="#ECECEC"/>
<path d="M75 9.375C64.2082 9.37578 53.5832 12.0379 44.066 17.1257C34.5488 22.2134 26.4332 29.5697 20.438 38.543C14.4428 47.5162 10.7531 57.8295 9.69556 68.5693C8.63806 79.3091 10.2455 90.144 14.3754 100.114C18.5053 110.084 25.0303 118.882 33.3724 125.729C41.7145 132.575 51.6163 137.258 62.2006 139.364C72.785 141.469 83.7252 140.932 94.0524 137.8C104.38 134.668 113.775 129.037 121.406 121.406L128.034 128.034C119.313 136.76 108.574 143.201 96.7691 146.784C84.964 150.368 72.4572 150.985 60.3568 148.58C48.2565 146.174 36.9362 140.822 27.3989 132.996C17.8616 125.17 10.4019 115.113 5.68062 103.715C0.959366 92.3166 -0.87764 79.9301 0.332371 67.6525C1.54238 55.3749 5.76205 43.5853 12.6175 33.3283C19.4729 23.0713 28.7525 14.6635 39.634 8.85003C50.5155 3.03652 62.6629 -0.00326936 75 2.63867e-06V9.375Z" fill="#ECECEC"/>
<path d="M70.3125 28.125C71.5557 28.125 72.748 28.6189 73.6271 29.4979C74.5061 30.377 75 31.5693 75 32.8125V81.6563L105.45 99.0562C106.498 99.6885 107.257 100.706 107.565 101.89C107.873 103.075 107.706 104.333 107.099 105.396C106.491 106.458 105.492 107.241 104.315 107.577C103.139 107.913 101.877 107.776 100.8 107.194L67.9875 88.4438C67.2701 88.0339 66.6737 87.4418 66.2588 86.7273C65.8439 86.0127 65.6253 85.2012 65.625 84.375V32.8125C65.625 31.5693 66.1189 30.377 66.9979 29.4979C67.877 28.6189 69.0693 28.125 70.3125 28.125V28.125Z" fill="#ECECEC"/>
</g>
<defs>
<clipPath id="clip0_979_3996">
<rect width="150" height="150" fill="white"/>
</clipPath>
</defs>
</svg>
