<svg width="35" height="35" viewBox="0 0 35 35" fill="none" xmlns="http://www.w3.org/2000/svg">
<path d="M19.6875 21.875H32.8125V24.0625H19.6875V21.875ZM19.6875 26.25H32.8125V28.4375H19.6875V26.25ZM19.6875 30.625H32.8125V32.8125H19.6875V30.625ZM15.3125 19.6875C14.988 19.6875 14.6708 19.7837 14.401 19.964C14.1312 20.1443 13.9209 20.4005 13.7968 20.7003C13.6726 21.0001 13.6401 21.3299 13.7034 21.6482C13.7667 21.9664 13.923 22.2588 14.1524 22.4882C14.3818 22.7177 14.6742 22.8739 14.9924 22.9372C15.3107 23.0005 15.6406 22.968 15.9403 22.8439C16.2401 22.7197 16.4964 22.5094 16.6766 22.2396C16.8569 21.9698 16.9531 21.6526 16.9531 21.3281C16.9531 20.893 16.7803 20.4757 16.4726 20.168C16.1649 19.8604 15.7476 19.6875 15.3125 19.6875ZM14.2188 7.65625H16.4063V17.5H14.2188V7.65625Z" fill="#495E93"/>
<path d="M15.3125 4.37501C18.2123 4.37819 20.9925 5.53155 23.043 7.58204C25.0935 9.63253 26.2468 12.4127 26.25 15.3125H28.4375C28.4375 12.7166 27.6677 10.179 26.2255 8.02065C24.7833 5.86225 22.7335 4.17999 20.3352 3.18659C17.9369 2.19319 15.2979 1.93327 12.7519 2.4397C10.2059 2.94613 7.86729 4.19616 6.03173 6.03173C4.19616 7.86729 2.94613 10.2059 2.4397 12.7519C1.93327 15.2979 2.19319 17.9369 3.18659 20.3352C4.17999 22.7335 5.86225 24.7833 8.02065 26.2255C10.179 27.6677 12.7166 28.4375 15.3125 28.4375V26.25C12.4117 26.25 9.6297 25.0977 7.57853 23.0465C5.52735 20.9953 4.37501 18.2133 4.37501 15.3125C4.37501 12.4117 5.52735 9.6297 7.57853 7.57853C9.6297 5.52735 12.4117 4.37501 15.3125 4.37501Z" fill="#495E93"/>
</svg>
