<svg width="31" height="31" viewBox="0 0 31 31" fill="none" xmlns="http://www.w3.org/2000/svg">
<path d="M3.84727 6.76449H27.1806V9.68115H3.84727V6.76449ZM6.76393 0.931152H24.2639V3.84782H6.76393V0.931152ZM27.166 12.5832H3.83268C3.05913 12.5832 2.31727 12.8905 1.77029 13.4375C1.22331 13.9845 0.916016 14.7264 0.916016 15.4999V27.1666C0.916016 27.9401 1.22331 28.682 1.77029 29.229C2.31727 29.7759 3.05913 30.0832 3.83268 30.0832H27.166C27.9396 30.0832 28.6814 29.7759 29.2284 29.229C29.7754 28.682 30.0827 27.9401 30.0827 27.1666V15.4999C30.0827 14.7264 29.7754 13.9845 29.2284 13.4375C28.6814 12.8905 27.9396 12.5832 27.166 12.5832ZM13.0202 27.1666L8.20768 22.4416L10.2493 20.3999L13.0202 23.1707L20.7493 15.4416L22.791 17.4832L13.0202 27.1666Z" fill="#5871B2"/>
</svg>
